<?xml version="1.0" encoding="UTF-8"?>
<svg xmlns="http://www.w3.org/2000/svg" viewBox="0 0 3072.11 771.68">
  <defs>
    <style>
      .cls-1 {
        fill: #6e6e6d;
      }

      .cls-2 {
        fill: #e7c1dd;
      }

      .cls-3 {
        fill: #feeb1e;
      }

      .cls-4 {
        fill: #ee7528;
      }

      .cls-5 {
        fill: #848484;
      }

      .cls-6 {
        fill: #777;
      }

      .cls-7 {
        fill: #d87211;
      }

      .cls-8 {
        fill: none;
        stroke: #777;
        stroke-linecap: round;
        stroke-miterlimit: 10;
        stroke-width: 2px;
      }

      .cls-9 {
        fill: #131f31;
      }

      .cls-10 {
        fill: #c5e4e3;
      }

      .cls-11 {
        fill: #e30613;
      }

      .cls-12 {
        fill: #aa3617;
      }

      .cls-13 {
        fill: #c99bc7;
      }

      .cls-14 {
        fill: #b979b2;
      }

      .cls-15 {
        fill: #5c280d;
      }

      .cls-16 {
        fill: #eaeaea;
      }

      .cls-17 {
        fill: #5e1213;
      }

      .cls-18 {
        fill: #b3b2b2;
      }

      .cls-19 {
        fill: #feca28;
      }

      .cls-20 {
        fill: #61c7f2;
      }

      .cls-21 {
        fill: #e94556;
      }

      .cls-22 {
        fill: #e8f5f7;
      }

      .cls-23 {
        fill: #f28a1e;
      }

      .cls-24 {
        fill: #ef781a;
      }

      .cls-25 {
        fill: #6dc5d0;
      }

      .cls-26 {
        fill: #a0599f;
      }

      .cls-27 {
        fill: #f7e216;
      }

      .cls-28 {
        fill: #efae0c;
      }

      .cls-29 {
        fill: #bcbcbb;
      }

      .cls-30 {
        fill: #bc5917;
      }

      .cls-31 {
        fill: #5fb672;
      }

      .cls-32 {
        fill: #ededed;
      }
    </style>
  </defs>
  <g id="Layer_1" data-name="Layer 1">
    <rect class="cls-9" y="3.68" width="1024" height="768"/>
    <path class="cls-29" d="m350.87,119.2c0,34.12-27.65,61.78-61.77,61.78s-61.78-27.66-61.78-61.78c0-12.11,3.48-23.41,9.51-32.94,4.14-6.56,9.48-12.28,15.71-16.86,10.24-7.53,22.88-11.97,36.56-11.97,18.61,0,35.29,8.22,46.61,21.23,8.56,9.84,14.06,22.4,15.01,36.22.1,1.43.15,2.87.15,4.32Z"/>
    <path class="cls-1" d="m259.56,80.39c0,6.7-5.43,12.13-12.12,12.13-4.56,0-8.54-2.53-10.61-6.26,4.14-6.56,9.48-12.28,15.71-16.86,4.15,1.92,7.02,6.12,7.02,10.99Z"/>
    <circle class="cls-1" cx="320.71" cy="138.53" r="19.32"/>
    <ellipse class="cls-1" cx="253.45" cy="153.54" rx="8.78" ry="19.32" transform="translate(-34.33 224.19) rotate(-45)"/>
    <circle class="cls-1" cx="285.39" cy="107.55" r="6.47"/>
    <circle class="cls-1" cx="293.89" cy="97.84" r="3.24"/>
    <path class="cls-1" d="m350.72,114.88c-2.12.78-4.42,1.21-6.81,1.21-10.83,0-19.61-8.78-19.61-19.61,0-7.91,4.67-14.72,11.41-17.82,8.56,9.84,14.06,22.4,15.01,36.22Z"/>
    <ellipse class="cls-1" cx="241.46" cy="114.02" rx="11.92" ry="5.96" transform="translate(-17.08 180.81) rotate(-39.76)"/>
    <circle class="cls-1" cx="282.16" cy="63.8" r="3.24"/>
    <circle class="cls-1" cx="293.89" cy="67.04" r="2.3"/>
    <circle class="cls-1" cx="291.86" cy="174.6" r="2.27"/>
    <circle class="cls-1" cx="301.39" cy="169.4" r="2.27"/>
    <circle class="cls-16" cx="495.1" cy="233.65" r="2.27"/>
    <circle class="cls-16" cx="473.54" cy="293.38" r="2.27"/>
    <circle class="cls-16" cx="398.54" cy="69.34" r="4.61"/>
    <circle class="cls-16" cx="386.03" cy="97.84" r="2.27"/>
    <circle class="cls-16" cx="381.49" cy="21.24" r="2.27"/>
    <circle class="cls-16" cx="398.48" cy="127.55" r="2.27"/>
    <circle class="cls-16" cx="350.72" cy="46.76" r="2.27"/>
    <circle class="cls-16" cx="287.66" cy="21.24" r="2.27"/>
    <circle class="cls-16" cx="436.85" cy="42.07" r="4.69"/>
    <circle class="cls-16" cx="394.53" cy="251.7" r="6.22"/>
    <circle class="cls-16" cx="421.32" cy="184.76" r="3.78"/>
    <circle class="cls-16" cx="221.1" cy="37.38" r="2.27"/>
    <circle class="cls-16" cx="154.07" cy="10.81" r="2.27"/>
    <circle class="cls-16" cx="127.37" cy="51.7" r="2.27"/>
    <circle class="cls-16" cx="65.15" cy="37.38" r="2.27"/>
    <circle class="cls-16" cx="178.33" cy="39.65" r="2.27"/>
    <circle class="cls-16" cx="383.76" cy="349.17" r="2.27"/>
    <circle class="cls-16" cx="396.21" cy="370.51" r="2.27"/>
    <circle class="cls-16" cx="315.1" cy="426.04" r="5.61"/>
    <circle class="cls-16" cx="248.19" cy="400.05" r="2.27"/>
    <circle class="cls-16" cx="241.46" cy="472.54" r="2.27"/>
    <circle class="cls-16" cx="419.81" cy="302.14" r="2.27"/>
    <circle class="cls-16" cx="495.1" cy="351.44" r="2.27"/>
    <circle class="cls-16" cx="434.43" cy="448.54" r="2.27"/>
    <circle class="cls-16" cx="480.36" cy="424.91" r="2.27"/>
    <circle class="cls-16" cx="417.54" cy="429.38" r="2.27"/>
    <circle class="cls-16" cx="565.61" cy="423.86" r="10.07"/>
    <circle class="cls-16" cx="550.99" cy="304.41" r="2.27"/>
    <circle class="cls-16" cx="646.68" cy="332.29" r="6.42"/>
    <circle class="cls-16" cx="597.91" cy="157.85" r="2.27"/>
    <circle class="cls-16" cx="611.15" cy="80.96" r="2.27"/>
    <circle class="cls-16" cx="671.51" cy="36.24" r="5.68"/>
    <circle class="cls-16" cx="672.65" cy="257.92" r="2.27"/>
    <circle class="cls-16" cx="701.98" cy="246.27" r="2.27"/>
    <circle class="cls-16" cx="681.54" cy="295.65" r="2.27"/>
    <circle class="cls-16" cx="692.31" cy="193.43" r="2.27"/>
    <circle class="cls-16" cx="755.32" cy="224.58" r="2.27"/>
    <circle class="cls-16" cx="844.42" cy="213.1" r="6.73"/>
    <circle class="cls-16" cx="966.72" cy="291.2" r="6.73"/>
    <circle class="cls-16" cx="755.32" cy="265.21" r="2.27"/>
    <circle class="cls-16" cx="894.38" cy="260.2" r="2.27"/>
    <circle class="cls-16" cx="935.13" cy="128.74" r="3.36"/>
    <circle class="cls-16" cx="615.69" cy="209.16" r="2.27"/>
    <circle class="cls-16" cx="730.43" cy="157.85" r="2.27"/>
    <circle class="cls-16" cx="732.7" cy="127.55" r="2.27"/>
    <circle class="cls-16" cx="786.82" cy="169.4" r="2.27"/>
    <circle class="cls-16" cx="753.04" cy="35.11" r="2.27"/>
    <circle class="cls-16" cx="952.61" cy="180.98" r="2.27"/>
    <circle class="cls-16" cx="942.43" cy="235.92" r="2.27"/>
    <circle class="cls-16" cx="829.98" cy="101.08" r="2.27"/>
    <circle class="cls-16" cx="959.99" cy="323.6" r="2.27"/>
    <circle class="cls-16" cx="846.6" cy="46.76" r="2.27"/>
    <circle class="cls-16" cx="797.88" cy="73.95" r="2.27"/>
    <circle class="cls-16" cx="915.17" cy="57.43" r="2.27"/>
    <circle class="cls-16" cx="923.67" cy="26.44" r="5.2"/>
    <circle class="cls-16" cx="1011.75" cy="188.61" r="5.2"/>
    <circle class="cls-16" cx="992.31" cy="30.56" r="2.27"/>
    <circle class="cls-16" cx="690.03" cy="57.43" r="2.27"/>
    <circle class="cls-16" cx="597.91" cy="41.92" r="2.27"/>
    <circle class="cls-16" cx="333.35" cy="306.68" r="2.27"/>
    <circle class="cls-16" cx="285.39" cy="351.44" r="2.27"/>
    <circle class="cls-16" cx="292.75" cy="280.03" r="4.37"/>
    <circle class="cls-16" cx="209.54" cy="306.68" r="2.27"/>
    <circle class="cls-16" cx="182.87" cy="269.75" r="2.27"/>
    <circle class="cls-16" cx="142.7" cy="217.55" r="2.27"/>
    <circle class="cls-16" cx="82.69" cy="204.61" r="2.27"/>
    <circle class="cls-16" cx="17.64" cy="183.26" r="2.27"/>
    <circle class="cls-16" cx="52.7" cy="243.99" r="2.27"/>
    <circle class="cls-16" cx="62.87" cy="191.16" r="2.27"/>
    <circle class="cls-16" cx="182.87" cy="343.26" r="2.27"/>
    <circle class="cls-16" cx="122.82" cy="351.44" r="2.27"/>
    <circle class="cls-16" cx="122.82" cy="275.66" r="2.27"/>
    <circle class="cls-16" cx="84.96" cy="391.5" r="2.27"/>
    <circle class="cls-16" cx="133.98" cy="433.92" r="2.27"/>
    <circle class="cls-16" cx="227.32" cy="372.78" r="2.27"/>
    <circle class="cls-16" cx="159.76" cy="420.43" r="2.27"/>
    <circle class="cls-16" cx="180.6" cy="470.27" r="2.27"/>
    <circle class="cls-16" cx="80.42" cy="436.2" r="2.27"/>
    <circle class="cls-16" cx="15.37" cy="377.24" r="2.27"/>
    <circle class="cls-16" cx="62.87" cy="295.65" r="2.27"/>
    <circle class="cls-16" cx="19.91" cy="284.41" r="2.27"/>
    <circle class="cls-16" cx="148.39" cy="307.82" r="5.68"/>
    <circle class="cls-16" cx="560.98" cy="216.87" r="7.71"/>
    <circle class="cls-16" cx="283.12" cy="211.08" r="6.47"/>
    <circle class="cls-16" cx="218.82" cy="167.13" r="2.27"/>
    <circle class="cls-16" cx="218.82" cy="209.16" r="2.27"/>
    <circle class="cls-16" cx="207.27" cy="160.12" r="2.27"/>
    <circle class="cls-16" cx="125.1" cy="160.12" r="2.27"/>
    <circle class="cls-16" cx="78.14" cy="127.55" r="2.27"/>
    <circle class="cls-16" cx="87.23" cy="94.61" r="2.27"/>
    <circle class="cls-16" cx="60.6" cy="71.68" r="2.27"/>
    <circle class="cls-16" cx="29.1" cy="94.61" r="2.27"/>
    <circle class="cls-16" cx="17.64" cy="36.24" r="2.27"/>
    <circle class="cls-16" cx="154.07" cy="138.53" r="2.27"/>
    <circle class="cls-16" cx="159.76" cy="90.25" r="2.27"/>
    <circle class="cls-16" cx="519.98" cy="110.44" r="5.16"/>
    <circle class="cls-16" cx="532.71" cy="164.86" r="2.27"/>
    <circle class="cls-16" cx="480.36" cy="125.28" r="2.27"/>
    <circle class="cls-16" cx="475.81" cy="80.62" r="2.27"/>
    <circle class="cls-16" cx="550.89" cy="67.23" r="4.45"/>
    <circle class="cls-16" cx="637.98" cy="129.82" r="2.27"/>
    <circle class="cls-16" cx="670.38" cy="100.12" r="2.27"/>
    <circle class="cls-16" cx="800.16" cy="308.96" r="2.27"/>
    <circle class="cls-16" cx="846.6" cy="325.87" r="2.27"/>
    <circle class="cls-16" cx="917.44" cy="315.78" r="2.27"/>
    <circle class="cls-16" cx="889.83" cy="379.52" r="2.27"/>
    <circle class="cls-16" cx="931.77" cy="404.59" r="2.27"/>
    <circle class="cls-16" cx="977.44" cy="418.22" r="2.27"/>
    <circle class="cls-16" cx="862.87" cy="155.57" r="2.27"/>
    <circle class="cls-16" cx="971.76" cy="76.22" r="2.27"/>
    <circle class="cls-16" cx="892.1" cy="92.52" r="2.27"/>
    <circle class="cls-16" cx="608.87" cy="265.21" r="2.27"/>
    <circle class="cls-16" cx="658.43" cy="377.24" r="2.27"/>
    <circle class="cls-16" cx="665.83" cy="402.32" r="2.27"/>
    <circle class="cls-16" cx="728.16" cy="336.44" r="2.27"/>
    <circle class="cls-16" cx="789.1" cy="389.23" r="2.27"/>
    <circle class="cls-16" cx="827.71" cy="381.79" r="2.27"/>
    <circle class="cls-16" cx="844.32" cy="431.65" r="2.27"/>
    <circle class="cls-16" cx="898.92" cy="456.81" r="2.27"/>
    <circle class="cls-16" cx="1001.89" cy="456.81" r="2.27"/>
    <circle class="cls-16" cx="750.85" cy="370.51" r="4.46"/>
    <circle class="cls-16" cx="753.04" cy="429.38" r="4.46"/>
    <rect class="cls-9" x="1024" y="3.68" width="1024" height="768"/>
    <circle class="cls-16" cx="1519.1" cy="233.72" r="2.27"/>
    <circle class="cls-16" cx="1497.54" cy="293.45" r="2.27"/>
    <circle class="cls-16" cx="1422.54" cy="69.41" r="4.61"/>
    <circle class="cls-16" cx="1410.03" cy="97.91" r="2.27"/>
    <circle class="cls-16" cx="1352.81" cy="128.8" r="2.27"/>
    <circle class="cls-16" cx="1400.94" cy="153.37" r="2.27"/>
    <circle class="cls-16" cx="1321.12" cy="162.65" r="2.27"/>
    <circle class="cls-16" cx="1405.49" cy="21.3" r="2.27"/>
    <circle class="cls-16" cx="1422.48" cy="127.62" r="2.27"/>
    <circle class="cls-16" cx="1300.65" cy="131.08" r="2.27"/>
    <circle class="cls-16" cx="1359.63" cy="185.6" r="2.27"/>
    <circle class="cls-16" cx="1374.72" cy="46.83" r="2.27"/>
    <circle class="cls-16" cx="1329.59" cy="88.04" r="2.27"/>
    <circle class="cls-16" cx="1311.66" cy="21.3" r="2.27"/>
    <circle class="cls-16" cx="1460.85" cy="42.14" r="4.69"/>
    <circle class="cls-16" cx="1418.53" cy="251.77" r="6.22"/>
    <circle class="cls-16" cx="1445.32" cy="184.83" r="3.78"/>
    <circle class="cls-16" cx="1245.1" cy="37.45" r="2.27"/>
    <circle class="cls-16" cx="1178.07" cy="10.88" r="2.27"/>
    <circle class="cls-16" cx="1151.37" cy="51.76" r="2.27"/>
    <circle class="cls-16" cx="1089.15" cy="37.45" r="2.27"/>
    <circle class="cls-16" cx="1202.33" cy="39.72" r="2.27"/>
    <circle class="cls-16" cx="1407.76" cy="349.24" r="2.27"/>
    <circle class="cls-16" cx="1420.21" cy="370.57" r="2.27"/>
    <circle class="cls-16" cx="1339.1" cy="426.11" r="5.61"/>
    <circle class="cls-16" cx="1272.19" cy="400.11" r="2.27"/>
    <circle class="cls-16" cx="1265.46" cy="472.61" r="2.27"/>
    <circle class="cls-16" cx="1443.81" cy="302.21" r="2.27"/>
    <circle class="cls-16" cx="1519.1" cy="351.51" r="2.27"/>
    <circle class="cls-16" cx="1458.43" cy="448.61" r="2.27"/>
    <circle class="cls-16" cx="1504.36" cy="424.98" r="2.27"/>
    <circle class="cls-16" cx="1441.54" cy="429.45" r="2.27"/>
    <circle class="cls-16" cx="1589.61" cy="423.92" r="10.07"/>
    <circle class="cls-16" cx="1574.99" cy="304.48" r="2.27"/>
    <circle class="cls-16" cx="1670.68" cy="332.36" r="6.42"/>
    <circle class="cls-16" cx="1621.91" cy="157.91" r="2.27"/>
    <circle class="cls-16" cx="1635.15" cy="81.03" r="2.27"/>
    <circle class="cls-16" cx="1695.51" cy="36.31" r="5.68"/>
    <circle class="cls-16" cx="1696.65" cy="257.99" r="2.27"/>
    <circle class="cls-16" cx="1725.98" cy="246.33" r="2.27"/>
    <circle class="cls-16" cx="1705.54" cy="295.72" r="2.27"/>
    <circle class="cls-16" cx="1716.31" cy="193.5" r="2.27"/>
    <circle class="cls-16" cx="1779.32" cy="224.65" r="2.27"/>
    <circle class="cls-16" cx="1868.42" cy="213.17" r="6.73"/>
    <circle class="cls-16" cx="1779.32" cy="265.27" r="2.27"/>
    <circle class="cls-16" cx="1918.38" cy="260.26" r="2.27"/>
    <circle class="cls-16" cx="1959.13" cy="128.8" r="3.36"/>
    <circle class="cls-16" cx="2016.31" cy="102.46" r="3.36"/>
    <circle class="cls-16" cx="1639.69" cy="209.22" r="2.27"/>
    <circle class="cls-16" cx="1754.43" cy="157.91" r="2.27"/>
    <circle class="cls-16" cx="1756.7" cy="127.62" r="2.27"/>
    <circle class="cls-16" cx="1810.82" cy="169.47" r="2.27"/>
    <circle class="cls-16" cx="1777.04" cy="35.17" r="2.27"/>
    <circle class="cls-16" cx="1976.61" cy="181.05" r="2.27"/>
    <circle class="cls-16" cx="2015.32" cy="209.22" r="2.27"/>
    <circle class="cls-16" cx="1966.43" cy="235.99" r="2.27"/>
    <circle class="cls-16" cx="1998.03" cy="238.26" r="2.27"/>
    <circle class="cls-16" cx="1853.98" cy="101.15" r="2.27"/>
    <circle class="cls-16" cx="1983.99" cy="323.67" r="2.27"/>
    <circle class="cls-16" cx="1870.6" cy="46.83" r="2.27"/>
    <circle class="cls-16" cx="1821.88" cy="74.02" r="2.27"/>
    <circle class="cls-16" cx="1939.17" cy="57.5" r="2.27"/>
    <circle class="cls-16" cx="1947.67" cy="26.51" r="5.2"/>
    <circle class="cls-16" cx="2016.31" cy="30.63" r="2.27"/>
    <circle class="cls-16" cx="1714.03" cy="57.5" r="2.27"/>
    <circle class="cls-16" cx="1621.91" cy="41.99" r="2.27"/>
    <circle class="cls-16" cx="1357.35" cy="306.75" r="2.27"/>
    <circle class="cls-16" cx="1309.39" cy="351.51" r="2.27"/>
    <circle class="cls-16" cx="1316.75" cy="280.1" r="4.37"/>
    <circle class="cls-16" cx="1233.54" cy="306.75" r="2.27"/>
    <circle class="cls-16" cx="1206.87" cy="269.82" r="2.27"/>
    <circle class="cls-16" cx="1166.7" cy="217.62" r="2.27"/>
    <circle class="cls-16" cx="1106.69" cy="204.68" r="2.27"/>
    <circle class="cls-16" cx="1041.64" cy="183.32" r="2.27"/>
    <circle class="cls-16" cx="1019.22" cy="101.15" r="2.27"/>
    <circle class="cls-16" cx="1076.7" cy="244.06" r="2.27"/>
    <circle class="cls-16" cx="1086.87" cy="191.22" r="2.27"/>
    <circle class="cls-16" cx="1206.87" cy="343.32" r="2.27"/>
    <circle class="cls-16" cx="1146.82" cy="351.51" r="2.27"/>
    <circle class="cls-16" cx="1146.82" cy="275.73" r="2.27"/>
    <circle class="cls-16" cx="1108.96" cy="391.57" r="2.27"/>
    <circle class="cls-16" cx="1157.98" cy="433.99" r="2.27"/>
    <circle class="cls-16" cx="1251.32" cy="372.85" r="2.27"/>
    <circle class="cls-16" cx="1183.76" cy="420.5" r="2.27"/>
    <circle class="cls-16" cx="1204.6" cy="470.33" r="2.27"/>
    <circle class="cls-16" cx="1104.42" cy="436.26" r="2.27"/>
    <circle class="cls-16" cx="1059.72" cy="438.54" r="2.27"/>
    <circle class="cls-16" cx="1039.37" cy="377.31" r="2.27"/>
    <circle class="cls-16" cx="989.84" cy="338.71" r="2.27"/>
    <circle class="cls-16" cx="1086.87" cy="295.72" r="2.27"/>
    <circle class="cls-16" cx="1043.91" cy="284.47" r="2.27"/>
    <circle class="cls-16" cx="1008.82" cy="248.54" r="2.27"/>
    <circle class="cls-16" cx="1172.39" cy="307.89" r="5.68"/>
    <circle class="cls-16" cx="1076.7" cy="338.71" r="5.68"/>
    <circle class="cls-16" cx="992.11" cy="377.24" r="5.68"/>
    <circle class="cls-16" cx="1584.98" cy="216.94" r="7.71"/>
    <circle class="cls-16" cx="1307.12" cy="211.15" r="6.47"/>
    <circle class="cls-16" cx="1271.52" cy="153.37" r="6.47"/>
    <circle class="cls-16" cx="1242.82" cy="167.2" r="2.27"/>
    <circle class="cls-16" cx="1265.05" cy="76.29" r="2.27"/>
    <circle class="cls-16" cx="1242.82" cy="209.22" r="2.27"/>
    <circle class="cls-16" cx="1231.27" cy="160.19" r="2.27"/>
    <circle class="cls-16" cx="1240.55" cy="110.51" r="2.27"/>
    <circle class="cls-16" cx="1149.1" cy="160.19" r="2.27"/>
    <circle class="cls-16" cx="1102.14" cy="127.62" r="2.27"/>
    <circle class="cls-16" cx="1111.23" cy="94.67" r="2.27"/>
    <circle class="cls-16" cx="1084.6" cy="71.74" r="2.27"/>
    <circle class="cls-16" cx="1053.1" cy="94.67" r="2.27"/>
    <circle class="cls-16" cx="996.86" cy="136.32" r="2.27"/>
    <circle class="cls-16" cx="1041.64" cy="36.31" r="2.27"/>
    <circle class="cls-16" cx="1178.07" cy="138.59" r="2.27"/>
    <circle class="cls-16" cx="1183.76" cy="90.32" r="2.27"/>
    <circle class="cls-16" cx="1211.42" cy="80.68" r="2.27"/>
    <circle class="cls-16" cx="1543.98" cy="110.51" r="5.16"/>
    <circle class="cls-16" cx="1556.71" cy="164.92" r="2.27"/>
    <circle class="cls-16" cx="1504.36" cy="125.34" r="2.27"/>
    <circle class="cls-16" cx="1499.81" cy="80.68" r="2.27"/>
    <circle class="cls-16" cx="1574.89" cy="67.3" r="4.45"/>
    <circle class="cls-16" cx="1661.98" cy="129.89" r="2.27"/>
    <circle class="cls-16" cx="1694.38" cy="100.18" r="2.27"/>
    <circle class="cls-16" cx="1824.16" cy="309.02" r="2.27"/>
    <circle class="cls-16" cx="1870.6" cy="325.94" r="2.27"/>
    <circle class="cls-16" cx="1941.44" cy="315.84" r="2.27"/>
    <circle class="cls-16" cx="1913.83" cy="379.58" r="2.27"/>
    <circle class="cls-16" cx="1955.77" cy="404.66" r="2.27"/>
    <circle class="cls-16" cx="2007.36" cy="431.72" r="2.27"/>
    <circle class="cls-16" cx="1886.87" cy="155.64" r="2.27"/>
    <circle class="cls-16" cx="1995.76" cy="76.29" r="2.27"/>
    <circle class="cls-16" cx="2033.5" cy="132.16" r="2.27"/>
    <circle class="cls-16" cx="1916.1" cy="92.59" r="2.27"/>
    <circle class="cls-16" cx="1632.87" cy="265.27" r="2.27"/>
    <circle class="cls-16" cx="1682.43" cy="377.31" r="2.27"/>
    <circle class="cls-16" cx="1689.83" cy="402.38" r="2.27"/>
    <circle class="cls-16" cx="1752.16" cy="336.51" r="2.27"/>
    <circle class="cls-16" cx="1813.1" cy="389.3" r="2.27"/>
    <circle class="cls-16" cx="1851.71" cy="381.86" r="2.27"/>
    <circle class="cls-16" cx="1868.32" cy="431.72" r="2.27"/>
    <circle class="cls-16" cx="1922.92" cy="456.88" r="2.27"/>
    <circle class="cls-16" cx="1774.85" cy="370.57" r="4.46"/>
    <circle class="cls-16" cx="1777.04" cy="429.45" r="4.46"/>
    <rect class="cls-9" x="2048.11" y="3.68" width="1024" height="768"/>
    <circle class="cls-16" cx="2543.2" cy="233.72" r="2.27"/>
    <circle class="cls-16" cx="2521.65" cy="293.45" r="2.27"/>
    <circle class="cls-16" cx="2446.64" cy="69.41" r="4.61"/>
    <circle class="cls-16" cx="2369" cy="138.59" r="4.61"/>
    <circle class="cls-16" cx="2434.14" cy="97.91" r="2.27"/>
    <circle class="cls-16" cx="2409.61" cy="162.46" r="2.27"/>
    <circle class="cls-16" cx="2364.39" cy="184.83" r="2.27"/>
    <circle class="cls-16" cx="2429.59" cy="21.3" r="2.27"/>
    <circle class="cls-16" cx="2446.58" cy="127.62" r="2.27"/>
    <circle class="cls-16" cx="2431.87" cy="188.61" r="2.27"/>
    <circle class="cls-16" cx="2398.82" cy="46.83" r="2.27"/>
    <circle class="cls-16" cx="2358.78" cy="82.96" r="2.27"/>
    <circle class="cls-16" cx="2301.5" cy="110.51" r="2.27"/>
    <circle class="cls-16" cx="2335.77" cy="21.3" r="2.27"/>
    <circle class="cls-16" cx="2484.95" cy="42.14" r="4.69"/>
    <circle class="cls-16" cx="2442.64" cy="251.77" r="6.22"/>
    <circle class="cls-16" cx="2469.42" cy="184.83" r="3.78"/>
    <circle class="cls-16" cx="2269.2" cy="37.45" r="2.27"/>
    <circle class="cls-16" cx="2202.17" cy="10.88" r="2.27"/>
    <circle class="cls-16" cx="2175.47" cy="51.76" r="2.27"/>
    <circle class="cls-16" cx="2113.25" cy="37.45" r="2.27"/>
    <circle class="cls-16" cx="2226.43" cy="39.72" r="2.27"/>
    <circle class="cls-16" cx="2431.87" cy="349.24" r="2.27"/>
    <circle class="cls-16" cx="2444.31" cy="370.57" r="2.27"/>
    <circle class="cls-16" cx="2363.21" cy="426.11" r="5.61"/>
    <circle class="cls-16" cx="2296.3" cy="400.11" r="2.27"/>
    <circle class="cls-16" cx="2289.57" cy="472.61" r="2.27"/>
    <circle class="cls-16" cx="2467.92" cy="302.21" r="2.27"/>
    <circle class="cls-16" cx="2543.2" cy="351.51" r="2.27"/>
    <circle class="cls-16" cx="2620.54" cy="368.3" r="2.27"/>
    <circle class="cls-16" cx="2482.53" cy="448.61" r="2.27"/>
    <circle class="cls-16" cx="2528.46" cy="424.98" r="2.27"/>
    <circle class="cls-16" cx="2465.65" cy="429.45" r="2.27"/>
    <circle class="cls-16" cx="2613.71" cy="423.92" r="10.07"/>
    <circle class="cls-16" cx="3045.74" cy="385.41" r="10.07"/>
    <circle class="cls-16" cx="2599.1" cy="304.48" r="2.27"/>
    <circle class="cls-16" cx="2694.78" cy="332.36" r="6.42"/>
    <circle class="cls-16" cx="2646.02" cy="157.91" r="2.27"/>
    <circle class="cls-16" cx="2659.25" cy="81.03" r="2.27"/>
    <circle class="cls-16" cx="2719.62" cy="36.31" r="5.68"/>
    <circle class="cls-16" cx="2720.76" cy="257.99" r="2.27"/>
    <circle class="cls-16" cx="2750.09" cy="246.33" r="2.27"/>
    <circle class="cls-16" cx="2729.65" cy="295.72" r="2.27"/>
    <circle class="cls-16" cx="2740.41" cy="193.5" r="2.27"/>
    <circle class="cls-16" cx="2803.42" cy="224.65" r="2.27"/>
    <circle class="cls-16" cx="2892.52" cy="213.17" r="6.73"/>
    <circle class="cls-16" cx="3045.74" cy="293.45" r="6.73"/>
    <circle class="cls-16" cx="2803.42" cy="265.27" r="2.27"/>
    <circle class="cls-16" cx="2942.48" cy="260.26" r="2.27"/>
    <circle class="cls-16" cx="2862.04" cy="257.99" r="2.27"/>
    <circle class="cls-16" cx="2983.24" cy="128.8" r="3.36"/>
    <circle class="cls-16" cx="3039.01" cy="181.05" r="3.36"/>
    <circle class="cls-16" cx="2663.8" cy="209.22" r="2.27"/>
    <circle class="cls-16" cx="2778.53" cy="157.91" r="2.27"/>
    <circle class="cls-16" cx="2780.81" cy="127.62" r="2.27"/>
    <circle class="cls-16" cx="2834.93" cy="169.47" r="2.27"/>
    <circle class="cls-16" cx="2801.15" cy="35.17" r="2.27"/>
    <circle class="cls-16" cx="3000.71" cy="181.05" r="2.27"/>
    <circle class="cls-16" cx="2954.48" cy="184.41" r="2.27"/>
    <circle class="cls-16" cx="3039.01" cy="246.33" r="2.27"/>
    <circle class="cls-16" cx="2878.09" cy="101.15" r="2.27"/>
    <circle class="cls-16" cx="3008.1" cy="323.67" r="2.27"/>
    <circle class="cls-16" cx="3045.74" cy="349.24" r="2.27"/>
    <circle class="cls-16" cx="2894.7" cy="46.83" r="2.27"/>
    <circle class="cls-16" cx="2845.99" cy="74.02" r="2.27"/>
    <circle class="cls-16" cx="2963.28" cy="57.5" r="2.27"/>
    <circle class="cls-16" cx="2971.78" cy="26.51" r="5.2"/>
    <circle class="cls-16" cx="3050.94" cy="103.11" r="5.2"/>
    <circle class="cls-16" cx="3040.42" cy="30.63" r="2.27"/>
    <circle class="cls-16" cx="3063.02" cy="153.37" r="2.27"/>
    <circle class="cls-16" cx="2738.14" cy="57.5" r="2.27"/>
    <circle class="cls-16" cx="2646.02" cy="41.99" r="2.27"/>
    <circle class="cls-16" cx="2381.46" cy="306.75" r="2.27"/>
    <circle class="cls-16" cx="2333.5" cy="351.51" r="2.27"/>
    <circle class="cls-16" cx="2340.86" cy="280.1" r="4.37"/>
    <circle class="cls-16" cx="2257.65" cy="306.75" r="2.27"/>
    <circle class="cls-16" cx="2230.98" cy="269.82" r="2.27"/>
    <circle class="cls-16" cx="2190.81" cy="217.62" r="2.27"/>
    <circle class="cls-16" cx="2130.79" cy="204.68" r="2.27"/>
    <circle class="cls-16" cx="2065.75" cy="183.32" r="2.27"/>
    <circle class="cls-16" cx="2100.81" cy="244.06" r="2.27"/>
    <circle class="cls-16" cx="2110.98" cy="191.22" r="2.27"/>
    <circle class="cls-16" cx="2230.98" cy="343.32" r="2.27"/>
    <circle class="cls-16" cx="2170.93" cy="351.51" r="2.27"/>
    <circle class="cls-16" cx="2170.93" cy="275.73" r="2.27"/>
    <circle class="cls-16" cx="2133.07" cy="391.57" r="2.27"/>
    <circle class="cls-16" cx="2182.09" cy="433.99" r="2.27"/>
    <circle class="cls-16" cx="2275.42" cy="372.85" r="2.27"/>
    <circle class="cls-16" cx="2207.86" cy="420.5" r="2.27"/>
    <circle class="cls-16" cx="2228.71" cy="470.33" r="2.27"/>
    <circle class="cls-16" cx="2128.52" cy="436.26" r="2.27"/>
    <circle class="cls-16" cx="2063.47" cy="377.31" r="2.27"/>
    <circle class="cls-16" cx="2033.5" cy="351.51" r="2.27"/>
    <circle class="cls-16" cx="2110.98" cy="295.72" r="2.27"/>
    <circle class="cls-16" cx="2068.02" cy="284.47" r="2.27"/>
    <circle class="cls-16" cx="2031.22" cy="272.09" r="2.27"/>
    <circle class="cls-16" cx="2196.49" cy="307.89" r="5.68"/>
    <circle class="cls-16" cx="2295.81" cy="57.5" r="5.68"/>
    <circle class="cls-16" cx="2092.85" cy="341.28" r="5.68"/>
    <circle class="cls-16" cx="2007.36" cy="388.16" r="5.68"/>
    <circle class="cls-16" cx="2609.09" cy="216.94" r="7.71"/>
    <circle class="cls-16" cx="2331.22" cy="211.15" r="6.47"/>
    <circle class="cls-16" cx="2320.11" cy="118.87" r="6.47"/>
    <circle class="cls-16" cx="2266.93" cy="167.2" r="2.27"/>
    <circle class="cls-16" cx="2284.5" cy="155.64" r="2.27"/>
    <circle class="cls-16" cx="2266.93" cy="209.22" r="2.27"/>
    <circle class="cls-16" cx="2255.37" cy="160.19" r="2.27"/>
    <circle class="cls-16" cx="2173.2" cy="160.19" r="2.27"/>
    <circle class="cls-16" cx="2126.25" cy="127.62" r="2.27"/>
    <circle class="cls-16" cx="2135.34" cy="94.67" r="2.27"/>
    <circle class="cls-16" cx="2108.71" cy="71.74" r="2.27"/>
    <circle class="cls-16" cx="2077.2" cy="94.67" r="2.27"/>
    <circle class="cls-16" cx="2052.23" cy="76.29" r="2.27"/>
    <circle class="cls-16" cx="2065.75" cy="36.31" r="2.27"/>
    <circle class="cls-16" cx="2202.17" cy="138.59" r="2.27"/>
    <circle class="cls-16" cx="2207.86" cy="90.32" r="2.27"/>
    <circle class="cls-16" cx="2262.19" cy="78.76" r="2.27"/>
    <circle class="cls-16" cx="2233.25" cy="118.87" r="2.27"/>
    <circle class="cls-16" cx="2568.09" cy="110.51" r="5.16"/>
    <circle class="cls-16" cx="2580.82" cy="164.92" r="2.27"/>
    <circle class="cls-16" cx="2528.46" cy="125.34" r="2.27"/>
    <circle class="cls-16" cx="2523.92" cy="80.68" r="2.27"/>
    <circle class="cls-16" cx="2599" cy="67.3" r="4.45"/>
    <circle class="cls-16" cx="2686.09" cy="129.89" r="2.27"/>
    <circle class="cls-16" cx="2718.48" cy="100.18" r="2.27"/>
    <circle class="cls-16" cx="2848.26" cy="309.02" r="2.27"/>
    <circle class="cls-16" cx="2894.7" cy="325.94" r="2.27"/>
    <circle class="cls-16" cx="2965.55" cy="315.84" r="2.27"/>
    <circle class="cls-16" cx="2937.94" cy="379.58" r="2.27"/>
    <circle class="cls-16" cx="2979.88" cy="404.66" r="2.27"/>
    <circle class="cls-16" cx="3005.83" cy="387.68" r="2.27"/>
    <circle class="cls-16" cx="3039.01" cy="433.91" r="2.27"/>
    <circle class="cls-16" cx="2988.26" cy="436.26" r="2.27"/>
    <circle class="cls-16" cx="2910.98" cy="155.64" r="2.27"/>
    <circle class="cls-16" cx="3019.87" cy="76.29" r="2.27"/>
    <circle class="cls-16" cx="3052.47" cy="69.57" r="2.27"/>
    <circle class="cls-16" cx="2940.21" cy="92.59" r="2.27"/>
    <circle class="cls-16" cx="2656.98" cy="265.27" r="2.27"/>
    <circle class="cls-16" cx="2706.53" cy="377.31" r="2.27"/>
    <circle class="cls-16" cx="2713.94" cy="402.38" r="2.27"/>
    <circle class="cls-16" cx="2776.26" cy="336.51" r="2.27"/>
    <circle class="cls-16" cx="2837.2" cy="389.3" r="2.27"/>
    <circle class="cls-16" cx="2875.82" cy="381.86" r="2.27"/>
    <circle class="cls-16" cx="2892.43" cy="431.72" r="2.27"/>
    <circle class="cls-16" cx="2947.03" cy="456.88" r="2.27"/>
    <circle class="cls-16" cx="2798.96" cy="370.57" r="4.46"/>
    <circle class="cls-16" cx="2801.15" cy="429.45" r="4.46"/>
    <g>
      <path class="cls-12" d="m1456.66,39.1c0,26.03-5.93,50.64-16.5,72.62-27.03,56.11-84.47,94.84-150.93,94.84-92.35,0-167.24-74.76-167.46-167.05v-.41c0-12.15,1.29-24,3.76-35.42h327.38c.22,1,.43,2.01.63,3.02,1.1,5.63,1.92,11.36,2.44,17.18.11,1.16.2,2.33.28,3.5h0c.27,3.89.4,7.79.4,11.72Z"/>
      <circle class="cls-30" cx="1374.92" cy="91.47" r="52.37"/>
      <ellipse class="cls-4" cx="1192.62" cy="132.16" rx="23.81" ry="52.37" transform="translate(255.86 882.01) rotate(-45)"/>
      <circle class="cls-15" cx="1284.68" cy="97.46" r="17.54"/>
      <circle class="cls-30" cx="1209.17" cy="56.64" r="17.54"/>
      <circle class="cls-23" cx="1242.79" cy="91.47" r="8.77"/>
      <path class="cls-15" d="m1456.26,27.38c-5.75,2.12-11.98,3.28-18.46,3.28-19.83,0-37.13-10.87-46.26-26.98h61.37c-.26-1.23-.54-2.46-.83-3.68.3,1.22.58,2.45.84,3.68.22,1,.42,2.01.62,3.02,1.1,5.63,1.92,11.36,2.44,17.18.11,1.16.2,2.33.28,3.5Z"/>
      <path class="cls-15" d="m1170.45,37.47c-13.72,11.42-29.48,15.11-35.18,8.25-5.71-6.86.78-21.68,14.5-33.09,4.74-3.94,9.72-6.97,14.45-8.95h20.09c.23.21.45.45.65.69,5.7,6.87-.79,21.68-14.51,33.1Z"/>
      <circle class="cls-23" cx="1316.4" cy="36.46" r="8.77"/>
      <circle class="cls-7" cx="1296.73" cy="189.24" r="6.16"/>
      <circle class="cls-4" cx="1322.56" cy="175.16" r="6.16"/>
    </g>
    <g>
      <path class="cls-24" d="m1886.63,341.48s-11.7,20.46-8.98,19.98,9.08-7.21,9.08-7.21c0,0-14.18,19.25-12.13,19.13s11.89-11.58,11.89-11.58c0,0-16.24,23.78-12.73,21.87,3.51-1.9,15.74-19.82,15.74-19.82,0,0-6.29,13.15-4.62,12.64s11.78-15.3,11.78-15.3c0,0-4.82,8.95-3.04,8.65s7.93-7.82,7.93-7.82c0,0-3.89,7.15-2.07,7.11s10.69-13.4,10.69-13.4"/>
      <path class="cls-19" d="m1889.59,343.3s-8.25,14.47-6.25,14.17,6.56-5.01,6.56-5.01c0,0-10.09,13.56-8.58,13.5s8.54-8.09,8.54-8.09c0,0-11.53,16.76-8.97,15.46s11.23-13.93,11.23-13.93c0,0-4.4,9.32-3.17,8.99s8.4-10.76,8.4-10.76c0,0-3.38,6.33-2.08,6.15s5.7-5.46,5.7-5.46c0,0-2.73,5.06-1.4,5.06s7.63-9.42,7.63-9.42"/>
      <path class="cls-24" d="m1798.98,282.64s-11.7,20.46-8.98,19.98,9.08-7.21,9.08-7.21c0,0-14.18,19.25-12.13,19.13s11.89-11.58,11.89-11.58c0,0-16.24,23.78-12.73,21.87s15.74-19.82,15.74-19.82c0,0-6.29,13.15-4.62,12.64s11.78-15.3,11.78-15.3c0,0-4.82,8.95-3.04,8.65s7.93-7.82,7.93-7.82c0,0-3.89,7.15-2.07,7.11s10.69-13.4,10.69-13.4"/>
      <path class="cls-19" d="m1801.94,284.46s-8.25,14.47-6.25,14.17,6.56-5.01,6.56-5.01c0,0-10.09,13.56-8.58,13.5s8.54-8.09,8.54-8.09c0,0-11.53,16.76-8.97,15.46,2.55-1.3,11.23-13.93,11.23-13.93,0,0-4.4,9.32-3.17,8.99s8.4-10.76,8.4-10.76c0,0-3.38,6.33-2.08,6.15s5.7-5.46,5.7-5.46c0,0-2.73,5.06-1.4,5.06s7.63-9.42,7.63-9.42"/>
      <path class="cls-11" d="m1914.41,350.69c-.79,1.18-1.61,2.32-2.46,3.4-1,1.29-2.03,2.5-3.07,3.63l-22.86-15.35c.65-1.4,1.39-2.81,2.2-4.22.68-1.19,1.42-2.38,2.22-3.56,9.09-13.54,21.82-20.91,28.44-16.46,6.62,4.45,4.62,19.02-4.46,32.56Z"/>
      <polygon class="cls-11" points="1909.67 319.41 1901.26 284.85 1883.63 311.11 1897.47 334.2 1909.67 319.41"/>
      <path class="cls-11" d="m1826.76,291.85c-1.73,2.58-3.6,4.94-5.53,7.03l-22.86-15.35c1.21-2.58,2.68-5.2,4.41-7.78,3.69-5.5,7.98-9.98,12.23-13.07,6.2-4.51,12.29-6.04,16.22-3.4s4.83,8.85,3,16.3c-1.25,5.09-3.77,10.76-7.46,16.26Z"/>
      <polygon class="cls-11" points="1833.52 268.3 1868.69 262.99 1851.07 289.24 1824.45 285.19 1833.52 268.3"/>
      <path class="cls-11" d="m1897.7,295.81c-6.22,9.26-12.52,17.99-18.71,25.99l-35.74-23.99c5.06-8.76,10.75-17.9,16.97-27.16,32.61-48.57,67.42-82.31,77.77-75.36,10.35,6.95-7.68,51.95-40.29,100.52Z"/>
      <path class="cls-32" d="m1896.52,291.64c-5.71,8.5-11.48,16.53-17.12,23.9l-30.5-20.47c4.68-8.02,9.93-16.4,15.64-24.9,17.98-26.78,36.49-48.78,50.32-60.8,9.21-8,16.35-11.58,19.88-9.21s2.92,10.33-1,21.89c-5.89,17.35-19.23,42.82-37.21,69.6Z"/>
      <path class="cls-17" d="m1911.95,354.09c-1,1.29-2.03,2.5-3.07,3.63l-22.86-15.35c.65-1.4,1.39-2.81,2.2-4.22l23.74,15.94Z"/>
      <path class="cls-17" d="m1824.3,295.25c-1,1.29-2.03,2.5-3.07,3.63l-22.86-15.35c.65-1.4,1.39-2.81,2.2-4.22l23.74,15.94Z"/>
      <path class="cls-6" d="m1834.22,275.59l-19.22-12.9c6.2-4.51,12.29-6.04,16.22-3.4s4.83,8.85,3,16.3Z"/>
      <path class="cls-6" d="m1921.87,334.42l-19.22-12.9c6.2-4.51,12.29-6.04,16.22-3.4s4.83,8.85,3,16.3Z"/>
      <circle class="cls-6" cx="1907.72" cy="240.39" r="13.98"/>
      <circle class="cls-25" cx="1907.72" cy="240.39" r="12.08"/>
      <circle class="cls-11" cx="1893.98" cy="260.86" r="3.38"/>
      <circle class="cls-11" cx="1886.55" cy="271.93" r="3.38"/>
      <circle class="cls-11" cx="1879.12" cy="283" r="3.38"/>
      <circle class="cls-11" cx="1871.68" cy="294.07" r="3.38"/>
      <path class="cls-11" d="m1933.91,221.77l-18.88-12.67c9.21-8,16.35-11.58,19.88-9.21s2.92,10.33-1,21.89Z"/>
      <line class="cls-8" x1="1838.63" y1="271.06" x2="1854.34" y2="268.76"/>
      <line class="cls-8" x1="1844.76" y1="273.66" x2="1853.35" y2="272.26"/>
      <line class="cls-8" x1="1905.5" y1="315.95" x2="1901.68" y2="300.54"/>
      <line class="cls-8" x1="1900.78" y1="311.26" x2="1898.81" y2="302.78"/>
    </g>
    <g>
      <path class="cls-20" d="m2714.08,273.01c-2.16,6.52-4.86,12.77-8.01,18.7-2.28,4.3-4.8,8.44-7.55,12.4-32.85.13-69.45-2.34-107.8-7.7-.9-.12-1.81-.25-2.72-.38-39.33-5.62-76.11-13.66-108.35-23.19-1.53-4.57-2.8-9.26-3.78-14.04-1.36-6.58-2.19-13.33-2.45-20.2,28.13,13.9,70.23,26.15,118.07,32.99,47.84,6.84,91.7,6.88,122.59,1.41Z"/>
      <path class="cls-2" d="m2719.14,251.73c-7,48.97-41.82,87.11-86.19,100.7-16.83,5.16-35.03,6.78-53.6,4.13s-35.6-9.31-50.31-18.98c-38.78-25.48-61.52-71.84-54.52-120.81,9.66-67.55,72.25-114.49,139.8-104.83,14.5,2.07,28.05,6.59,40.3,13.07,13.52,7.14,25.44,16.68,35.29,27.98,16.89,19.37,27.7,43.88,30.03,70.34.46,5.27.58,10.61.36,16-.17,4.11-.55,8.25-1.15,12.41Z"/>
      <circle class="cls-13" cx="2654.1" cy="284.96" r="33.9"/>
      <path class="cls-26" d="m2704.12,172.43c2.68,4.66,5.06,9.5,7.11,14.5,2.74,6.69,4.92,13.64,6.46,20.8,27.48,12.61,43.52,26.84,41.68,39.74-1.72,12.04-18.72,20.83-45.29,25.54-30.89,5.46-74.75,5.43-122.59-1.41-47.84-6.84-89.94-19.09-118.07-32.99-24.19-11.96-38.04-25.16-36.32-37.2,1.84-12.9,21.23-22.07,51.14-26.47,3.49-6.44,7.53-12.51,12.03-18.16,3.37-4.23,7.01-8.21,10.88-11.93-88.69-1.5-153.32,15.11-157.54,44.62-4.01,28.03,47.55,60.16,126.04,83.38,32.24,9.53,69.02,17.56,108.35,23.19.91.13,1.82.26,2.72.38,38.36,5.36,74.96,7.84,107.8,7.7,81.84-.28,140.33-16.68,144.34-44.7,4.22-29.51-53.17-63.57-138.74-86.98Z"/>
      <path class="cls-14" d="m2711.23,186.93c2.74,6.69,4.92,13.64,6.46,20.8,27.48,12.61,43.52,26.84,41.68,39.74-1.72,12.04-18.72,20.83-45.29,25.54-30.89,5.46-74.75,5.43-122.59-1.41-47.84-6.84-89.94-19.09-118.07-32.99-24.19-11.96-38.04-25.16-36.32-37.2,1.84-12.9,21.23-22.07,51.14-26.47,3.49-6.44,7.53-12.51,12.03-18.16-63.06,1.8-107.16,15.48-110.36,37.88-3.03,21.21,31.33,45.2,85.96,64.15,32.06,11.13,71.1,20.52,113.65,26.6.9.13,1.79.26,2.69.38,41.56,5.79,80.69,7.6,113.87,5.93,57.75-2.89,97.46-16.28,100.49-37.5,3.2-22.4-35.3-47.89-95.33-67.29Z"/>
      <path class="cls-26" d="m2704.12,172.43c2.68,4.66,5.06,9.5,7.11,14.5,2.74,6.69,4.92,13.64,6.46,20.8,27.48,12.61,43.52,26.84,41.68,39.74-1.72,12.04-18.72,20.83-45.29,25.54-30.89,5.46-74.75,5.43-122.59-1.41-47.84-6.84-89.94-19.09-118.07-32.99-24.19-11.96-38.04-25.16-36.32-37.2,1.84-12.9,21.23-22.07,51.14-26.47,3.49-6.44,7.53-12.51,12.03-18.16,3.37-4.23,7.01-8.21,10.88-11.93-88.69-1.5-153.32,15.11-157.54,44.62-4.01,28.03,47.55,60.16,126.04,83.38,32.24,9.53,69.02,17.56,108.35,23.19.91.13,1.82.26,2.72.38,38.36,5.36,74.96,7.84,107.8,7.7,81.84-.28,140.33-16.68,144.34-44.7,4.22-29.51-53.17-63.57-138.74-86.98Z"/>
      <path class="cls-14" d="m2711.23,186.93c2.74,6.69,4.92,13.64,6.46,20.8,27.48,12.61,43.52,26.84,41.68,39.74-1.72,12.04-18.72,20.83-45.29,25.54-30.89,5.46-74.75,5.43-122.59-1.41-47.84-6.84-89.94-19.09-118.07-32.99-24.19-11.96-38.04-25.16-36.32-37.2,1.84-12.9,21.23-22.07,51.14-26.47,3.49-6.44,7.53-12.51,12.03-18.16-63.06,1.8-107.16,15.48-110.36,37.88-3.03,21.21,31.33,45.2,85.96,64.15,32.06,11.13,71.1,20.52,113.65,26.6.9.13,1.79.26,2.69.38,41.56,5.79,80.69,7.6,113.87,5.93,57.75-2.89,97.46-16.28,100.49-37.5,3.2-22.4-35.3-47.89-95.33-67.29Z"/>
      <path class="cls-13" d="m2632.95,352.43c-16.83,5.16-35.03,6.78-53.6,4.13s-35.6-9.31-50.31-18.98c12.73-2.61,31.91-2.72,52.98.29,21.08,3.01,39.45,8.49,50.93,14.56Z"/>
      <circle class="cls-13" cx="2507.42" cy="215.73" r="20.88"/>
      <path class="cls-13" d="m2720.29,239.32c-.46.02-.92,0-1.38-.08-4.38-.63-7.41-4.68-6.79-9.05.57-3.96,3.93-6.82,7.81-6.87.46,5.27.58,10.61.36,16Z"/>
      <path class="cls-13" d="m2689.9,152.98c-4.57,11.51-13.41,18.95-22.37,17.67-11.41-1.63-18.68-16.82-16.23-33.92.61-4.25,1.75-8.21,3.31-11.73,13.52,7.14,25.44,16.68,35.29,27.98Z"/>
      <circle class="cls-13" cx="2556.14" cy="132.83" r="4"/>
      <circle class="cls-13" cx="2571.87" cy="137.89" r="4"/>
      <circle class="cls-13" cx="2567.6" cy="124.34" r="6.15"/>
    </g>
    <path class="cls-9" d="m1452.92,3.68h-.01c-.26-1.23-.54-2.46-.83-3.68.3,1.22.58,2.45.84,3.68Z"/>
  </g>
  <g id="Layer_2" data-name="Layer 2">
    <g>
      <ellipse class="cls-21" cx="843.92" cy="392.75" rx="45.77" ry="70.04" transform="translate(311.24 1156.1) rotate(-80.05)"/>
      <ellipse class="cls-31" cx="849.34" cy="361.86" rx="51.97" ry="122.5" transform="translate(346.15 1135.89) rotate(-80.05)"/>
      <path class="cls-10" d="m845.31,361.09s-55.02-6.49-51.91-41.75c3.11-35.25,47.6-46.55,67.51-42.3s55.27,14.81,56.3,55.6c1.04,40.79-54.02,31.58-71.9,28.45Z"/>
      <circle class="cls-10" cx="776.65" cy="370.91" r="7.41"/>
      <circle class="cls-10" cx="914.61" cy="395.11" r="7.41"/>
      <circle class="cls-10" cx="843.59" cy="394.61" r="7.41"/>
      <circle class="cls-10" cx="753.71" cy="330.17" r="5.5"/>
      <circle class="cls-10" cx="950.26" cy="364.65" r="5.5"/>
      <path class="cls-18" d="m993.16,390.2c.86-2.36,2.63-4.28,4.91-5.34,2.72-1.28,5.94-1.05,8.77-.3s5.22,2.26,8.08,2.36,5.36-.91,7.81-2.07c2.69-1.28,5.3-2.66,8.3-3.03s5.88.5,8.54,1.85c2.46,1.25,4.96,2.81,7.08,4.58,1.8,1.5,3.78,3.91,2.49,6.37-1.17,2.21-3.97,2.26-6.13,2.39-2.55.15-5.19.43-7.37,1.88s-3.08,3.85-4.61,5.83-3.55,3.18-5.87,3.8c-5.44,1.48-11.12-.16-16.44-1.37-3.01-.68-6.03-1.25-9.13-1.36s-6.37.16-9.56.2-7.23.09-9.96-1.77c-1.31-.89-2-2.24-2.08-3.81-.04-.78.07-1.56.26-2.31.08-.31.17-.62.28-.93.06-.17.4-.91.3-.84.34-.24,1.44-.04,1.88-.05.76,0,1.52-.01,2.28-.07,1.35-.09,2.71-.29,3.98-.76,1.2-.44,2.3-1.13,3.13-2.11.52-.61.89-1.34,1.32-2.01.14-.22.29-.46.45-.66.17-.23.36-.43.56-.62.35-.28.44-.34.25-.17.64.09,1.56-.1,2.05-.55.41-.37.4-.76-.23-.85-1.37-.19-2.78.18-3.92.95-1.25.85-1.85,2.12-2.68,3.33-1.83,2.69-5.06,1.96-7.9,2.13-1.28.08-2.77.34-3.66,1.35s-1.13,2.56-1.24,3.8c-.25,3.02,1.37,5.16,4.14,6.19,6.74,2.5,14.24.36,21.19,1.13s13.14,3.47,19.97,3.12c5.52-.28,11.07-2.28,14.14-7.1.78-1.23,1.47-2.59,2.56-3.59,1.2-1.1,2.76-1.24,4.31-1.34,2.79-.18,5.55-.33,8.04-1.75,2.14-1.22,3.63-3.46,2.7-5.96-1-2.68-3.78-4.37-6.04-5.85-2.64-1.73-5.42-3.38-8.52-4.13s-6.44-.48-9.53.44c-1.79.53-3.49,1.27-5.17,2.09s-3.31,1.76-5.12,2.11c-2,.39-3.82-.38-5.64-1.09s-3.55-1.24-5.42-1.53c-6.29-.96-14.05,1.39-16.43,7.87-.28.77,2.56.43,2.88-.43h0Z"/>
      <path class="cls-18" d="m1051.35,408.41c3.45-4.25,9.67.39,13.22,2.07,4.84,2.29,10.14,2.42,15.39,2.84,2.6.21,5.2.51,7.68,1.35s4.57,2.63,7.06,3.57c2.77,1.05,5.51.11,8.35.37,2.43.23,4.27,1.97,5.67,3.83.67.89,1.25,1.83,1.8,2.8.66,1.15,1.52,2.43,1.68,3.78.25,2.11-1.7,3.15-3.56,2.84-2.32-.38-4.25-2.38-6.03-3.77-1.93-1.51-4.05-2.63-6.41-3.3-4.82-1.37-9.92-1-14.86-.86-2.57.07-5.15.09-7.7-.22-1.27-.15-2.58-.37-3.78-.82-1.47-.55-2.55-1.57-3.68-2.62-4.18-3.89-9.54-4.74-14.97-5.65-1.34-.23-2.69-.46-4.01-.78-1.24-.29-3.37-.53-3.29-2.21.1-2.22,2.56-3.91,4.61-2.96.65.3,1.48.18,2.06-.23.39-.27.87-.99.21-1.3-2.22-1.03-4.77-.73-6.84.53-1.73,1.05-3.81,3.61-2.71,5.76.56,1.1,1.82,1.5,2.93,1.82,1.49.43,3.02.72,4.55.98,2.79.49,5.62.84,8.35,1.65,2.96.88,5.1,2.39,7.36,4.44s5.07,2.87,8.15,3.24c5.88.7,11.8-.29,17.69.23,2.86.25,5.69.95,8.16,2.46s4.37,3.73,7.02,4.87c3.81,1.64,11.15-.32,9.46-5.69-.41-1.3-1.21-2.55-1.89-3.72s-1.42-2.3-2.3-3.33c-1.77-2.06-4.06-3.47-6.81-3.65-1.53-.1-3.03.15-4.55.2-1.87.06-3.32-.56-4.9-1.51-2.68-1.61-5.31-2.79-8.4-3.35-6.7-1.22-13.74-.35-19.98-3.52-2.98-1.51-5.88-3.39-9.3-3.65-2.82-.22-5.94.57-7.78,2.85-1.12,1.38,1.66,1.53,2.37.65h0Z"/>
      <path class="cls-18" d="m1062.08,389.96c1.13-2.99,3.24-5.62,6.06-7.17,3.34-1.84,6.78-1.3,9.86.73,2.4,1.58,4.49,3.59,7.04,4.96,2.88,1.55,6.07,1.63,9.2.85,3.66-.91,6.95-2.86,10.51-4.06s7.64-1.94,11.55-2.01c1.99-.04,3.93.17,5.74,1.04,1.66.8,3.16,1.98,4.63,3.08,2.74,2.05,5.39,4.22,8.21,6.16,2.64,1.82,5.44,3.48,8.48,4.54,1.55.54,3.15.9,4.77,1.13,1.85.26,3.84.39,5.36,1.59,1.38,1.08,2,2.8,1.15,4.42-.97,1.85-2.8,2.19-4.73,2.06-3.95-.27-7.9-1.06-11.82-1.57-1.81-.24-3.63-.37-5.43.01s-3.22,1.19-4.68,2.13c-1.57,1.01-3.08,1.92-4.95,2.23-1.77.29-3.58.14-5.33-.19-7.3-1.37-13.18-6.39-20.15-8.68-7.34-2.41-15.08-1.35-22.63-1.05-3.57.14-7.55.33-10.99-.81-2.63-.87-5.71-3.05-4.54-6.21.31-.84.85-1.59,1.37-2.31.22-.3.45-.6.7-.88.14-.16.75-.72.65-.71.56-.04,1.62-.18,1.92-.75s-.24-.72-.74-.69c-1.73.12-3.19.78-4.38,2.07s-2.43,2.99-2.66,4.7c-.41,3.12,2.6,5.13,5.17,6.02,3.64,1.26,7.82,1.17,11.62,1.05,4.3-.14,8.6-.59,12.91-.52s8.67.93,12.73,2.76c3.76,1.7,7.26,3.9,11.05,5.53,3.52,1.51,7.39,2.5,11.25,2.24,1.89-.13,3.77-.54,5.51-1.29s3.29-2.05,5.03-2.91c2.09-1.03,4.68-.33,6.88-.03s4.46.61,6.69.92c3.73.51,8.09.97,11.12-1.8,1.11-1.02,1.92-2.42,1.73-3.98s-1.47-2.8-2.84-3.51c-1.86-.97-4.03-1.02-6.05-1.36-1.84-.31-3.63-.9-5.33-1.66-3.45-1.53-6.54-3.75-9.53-6.02s-5.89-4.86-9.2-6.66c-3.63-1.97-8.03-1.66-11.99-1.18-4.31.52-8.53,1.68-12.52,3.4-3.61,1.55-7.53,3.83-11.54,2.36-3.12-1.14-5.49-3.65-8.22-5.45-3.09-2.04-6.44-2.75-10.09-1.92s-6.68,2.76-8.93,5.51c-1.07,1.3-1.89,2.78-2.49,4.35-.29.77,2.55.44,2.88-.43h0Z"/>
      <path class="cls-18" d="m977.58,398.35c-.06,1.85.15,3.75,1.42,5.19,1.19,1.34,2.92,1.88,4.66,1.44l-2.43-4.18c-.35.27-.69.55-1.04.82-1.8,1.43-.2,4.21,1.77,4.27,2.08.06,4.16.09,6.24.08,2.3,0,3.64-3.62,1.26-4.66-2.07-.9-4.18-.72-5.85.91-1.43,1.4-.46,4.5,1.77,4.27,9.69-1.02,19.44-.38,28.89,1.97l1.33-4.82-3.69-.6c-1.41-.23-3.38.64-3.16,2.41.32,2.66,2.29,3.41,4.67,3.74,2.5.35,5.01.49,7.53.32,2.28-.15,4.57-.45,6.68-1.36,1.96-.84,3.5-2.22,4.81-3.88,1.17-1.49,2.22-3.15,3.72-4.35,1.64-1.3,3.57-1.85,5.6-2.16s4.36-.51,6.18-1.68c2.14-1.37,2.78-3.95,1.26-6.04-2.5-3.45-6.83-5.6-10.66-7.2-2.12-.89-4.31-1.59-6.63-1.66-2.05-.06-4.09.46-5.98,1.23-3.29,1.36-6.63,3.88-10.28,4.07-2.28.12-4.46-.61-6.61-1.27s-4.36-1.28-6.64-1.41c-5-.29-8.53,2.53-11.25,6.42-1.1,1.58-2.04,3.39-3.4,4.77-.67.68-1.6.78-2.52.96-1.16.23-2.19.33-3.3-.13l-.66,4.91c4.7-.36,9.2-1.11,12.53-4.75,2.53-2.76,4.28-6.84,8.21-7.82,1.87-.46,3.82-.22,5.64.34.92.28,1.78.65,2.63,1.12.2.11.9.69,1.13.7-.05,0,.22-1.3.44-1.08,0,0-.83.03-.98,0-.63-.08-1.26-.24-1.89-.38-1.33-.29-2.66-.6-4.01-.81-2.47-.37-5.07-.46-7.44.46-4.3,1.65-6.25,6.17-10.16,8.43-.93.54-2.01.82-2.93,1.36-1.37.8-1.61,2.7-.84,3.98,1.35,2.25,4.34,1.94,6.53,1.49,4.4-.92,8.21-3.9,11.21-7.12.07-.08.52-.51.51-.56l.02-.04c.09-.17-.05-.16-.44.01.03-.06,1.23.32,1.4.36,1.26.31,2.55.5,3.84.6,2.49.19,5.07-.09,7.48-.75,2.65-.73,4.99-2.09,7.4-3.37s4.96-2.24,7.63-2.84,5.23-.7,7.73.14,4.46,2.55,6.4,4.15l.51-3.93c-1.8.82-4.16.18-6.07.25-2.46.09-4.56.87-6.47,2.42-1.56,1.26-2.76,2.89-4.13,4.34-.85.9-1.73,1.77-2.65,2.6-.66.6-1.35,1.31-2.21,1.61-1.03.36-2.28.15-3.34.07-1.27-.1-2.53-.21-3.79-.34-2.3-.24-4.6-.54-6.89-.91-5.01-.81-9.98-1.91-14.87-3.26l.6,4.57c4.43-2.06,9.31-2.76,14.16-2.49l-1.26-4.66c-2.1.98-4.28,1.72-6.53,2.28s-2.48,4.37,0,4.82,4.91-.52,7.34-1.3,4.89-1.57,7.34-2.36l-2.82-3.67c-.52,1.23-1.39,3.3-2.69,3.89l1.26-.34c-1.01.11-2.41-.56-3.42-.85v4.82c5.09-1.83,9.92-4.27,14.86-6.44,2.34-1.03,4.72-1.97,7.16-2.72,1.97-.61,4.57-1.54,6.56-.54l-.9-3.42c-1.98,4-6.92,5.09-10.68,6.77-1.01.45-2.01.95-2.94,1.56s-1.77,1.49-2.77,2.02c-1.9,1.01-4.25-.47-5.89-1.39l.51,3.93c.99-.93,3.03-.97,4.31-1.28,1.94-.47,3.85-1.05,5.72-1.72,3.75-1.35,7.35-3.07,10.75-5.14,2.74-1.67.23-6-2.52-4.32-3.42,2.08-7.02,3.81-10.81,5.08-1.89.63-3.81,1.16-5.76,1.59s-3.73.87-5.22,2.26c-1.17,1.09-.87,3.16.51,3.93,2.63,1.48,5.55,2.83,8.64,2.26,1.52-.28,2.75-1.12,3.95-2.06,1.03-.81,2.12-1.48,3.3-2.04,4.86-2.33,10.63-3.63,13.23-8.91.57-1.15.38-2.78-.9-3.42-5.24-2.63-11.56.21-16.52,2.3-5.33,2.24-10.47,4.94-15.91,6.9-2.25.81-2.49,4.1,0,4.82,2.27.65,4.8,1.83,6.89.12,1.59-1.3,2.81-3.24,3.61-5.11.4-.95.49-1.91-.2-2.78-.6-.75-1.66-1.21-2.63-.9-2.14.69-4.28,1.38-6.42,2.06-1.07.34-2.14.69-3.21,1.03-.71.23-1.63.7-2.39.56v4.82c2.67-.66,5.23-1.62,7.72-2.78s1-4.53-1.26-4.66c-5.76-.33-11.44.74-16.68,3.17-2.02.94-1.34,4.03.6,4.57,7.94,2.2,16.07,3.69,24.27,4.47,1.89.18,3.85.46,5.75.25,2.11-.23,3.67-1.2,5.25-2.56s2.95-2.74,4.29-4.24c.99-1.11,1.94-2.37,3.14-3.26,1.53-1.14,3.26-1.04,5.09-.96,2.29.1,4.39-.01,6.49-.97,1.39-.63,1.67-2.96.51-3.93-3.57-2.95-7.14-5.56-11.87-6.1s-9.47.91-13.71,2.79c-2.06.92-3.96,2.16-6.01,3.09-1.8.82-3.81,1.32-5.79,1.45-2.11.14-4.09-.12-6.12-.65-1.22-.32-2.5-.45-3.66.14-.99.51-1.67,1.37-2.42,2.16-1.47,1.52-3.07,2.88-4.92,3.92-.89.5-1.8.89-2.79,1.16-.4.11-.81.22-1.23.28-.21.03-.56,0-.78.06-.87.26.15-.79.51.93v1.33l.06-.24-1.75,1.75c2.59-.95,4.92-2.29,6.98-4.13,1.75-1.55,2.99-3.88,5-5.1,2.22-1.35,5.03-.88,7.43-.37,2.66.56,6.08,1.86,8.6.23,2.74-1.77,2.47-5.24.07-7.13-1.97-1.55-4.53-2.6-6.97-3.09-5.21-1.05-10.15.42-13.58,4.55-1.61,1.93-2.91,4.3-4.93,5.85-2.16,1.66-5.09,1.84-7.7,2.04-2.92.22-3.26,3.85-.66,4.91,1.98.81,4.13.5,6.17.09,1.92-.39,3.58-1.09,4.88-2.61,2.1-2.43,3.42-5.51,5.78-7.71,2.65-2.48,6.29-1.59,9.41-.65,3.93,1.19,7.8,2.34,11.9,1.23,3.33-.9,6.17-2.94,9.39-4.1,1.51-.55,3.03-.87,4.64-.64,1.85.26,3.66,1.04,5.34,1.83s3.33,1.69,4.8,2.81c.64.49,1.17,1.16,1.82,1.62.03.02.28.33.31.32,0,0,.21-.81.18-.9-.07-.2.32-.13-.15.02-.17.06-.34.14-.51.2-1.81.61-3.76.65-5.62,1.06s-3.71,1.22-5.26,2.34c-1.78,1.29-3.07,2.88-4.38,4.62-1.02,1.36-2.1,2.76-3.71,3.45-2.02.86-4.4.94-6.56.97-1.19.01-2.37-.04-3.55-.15-.49-.05-.97-.1-1.45-.17-.23-.04-.66-.22-.85-.15-.26.1-.14-.39.24.33l.34,1.26-.03-.26-3.16,2.41,3.69.6c1.33.22,2.69-.35,3.08-1.75.35-1.28-.43-2.75-1.75-3.08-9.86-2.46-20.11-3.22-30.22-2.15l1.77,4.27c.12-.11.08,0-.21-.13l1.26-4.66c-2.08,0-4.16-.02-6.24-.08l1.77,4.27c.35-.27.69-.55,1.04-.82,2.07-1.64-.2-4.73-2.43-4.18.53-.13.21.2.3-.19.1-.43-.06-1.17-.05-1.62.11-3.22-4.89-3.21-5,0h0Z"/>
      <path class="cls-18" d="m1081.84,391.78c1.34.86,2.86,1.52,4.42,1.84.76.16,1.54.26,2.32.3.54.02,1.63-.15,1.91-.07l-1.1-.64.22.19-.64-1.1c.56,1.34.08,3.77-.4,5.1l.64-1.1-.19.2,1.1-.64-.24.04h1.33c-4.02-.69-7.83-.79-11.9-.5-3.94.27-7.88.5-11.83.19-.87-.07-1.74-.15-2.61-.28-.47-.07-.93-.15-1.39-.24-.62-.12-1.05-.36-.42.22.11.48.15.49.13.04.05.05.07,0,.06-.14.07-.32.22-.6.36-.89.37-.74.86-1.43,1.38-2.07,1.11-1.36,2.33-2.63,3.53-3.92.37-.39.85-1.11,1.38-1.31.62-.24,1.81.06,2.48-.01,1.24-.14,2.3-.84,2.46-2.17.14-1.19-.56-2.45-1.79-2.74-.77-.18-1.44-.02-2.16-.09l1.26.34.05.04.73,1.77v-.26c-.82.83-1.66,1.67-2.49,2.5,1.55-.16,3.2-.27,4.69.28s2.57,1.92,3.82,2.86c1.33,1,2.92,1.6,4.2,2.66s2.35,2.47,3.38,3.8l.51-3.93c-.44.21-1.45-.07-1.9-.13-1.05-.14-2.1-.2-3.17-.22-2.04-.03-4.08,0-6.12,0-4.2,0-8.41.02-12.61.03l2.41,3.16c-.23.35-.22.41.01.18.17-.14.33-.28.5-.43.22-.19.45-.38.67-.57.61-.52,1.23-1.05,1.84-1.57.97-.81,2.16-2.05,3.36-2.5,1.02-.38,2.56.28,3.51.67,1.33.55,2.58,1.35,3.66,2.29l1.77-4.27c-4.03-.11-8.06-.3-12.09-.58-1.35-.09-2.5,1.22-2.5,2.5,0,1.43,1.15,2.4,2.5,2.5,4.03.28,8.05.48,12.09.58,2.08.05,3.41-2.83,1.77-4.27-2.99-2.6-7.93-5.5-12.04-4.24-2.04.62-3.8,2.3-5.4,3.64-.79.66-1.57,1.33-2.35,1.99-.92.78-1.87,1.49-2.13,2.74-.33,1.57.7,3.17,2.41,3.16,4.53,0,9.06-.02,13.6-.03,2.18,0,4.37-.09,6.55.04s4.06.61,6.17-.38c1.62-.76,1.39-2.78.51-3.93-1.27-1.63-2.56-3.2-4.22-4.46-1.44-1.09-3.17-1.74-4.52-2.93-1.51-1.33-2.94-2.55-4.88-3.21s-4.03-.67-6.02-.46c-1.39.15-2.44,1.03-2.5,2.5-.04,1.07.49,2.07,1.4,2.63.47.29,1,.44,1.54.48.19.01,1.4.05.83-.09l.66-4.91c-1.15.13-2.28-.09-3.43.12-1.36.25-2.4,1.03-3.34,2.01-1.69,1.75-3.39,3.56-4.87,5.49s-2.84,4.25-2.47,6.71c.45,3,3.2,3.53,5.75,3.89,5.35.76,10.65.51,16.02.15,2.62-.17,5.3-.34,7.91.01,1.13.15,2.36.66,3.5.32,1.63-.48,2.09-2.14,2.34-3.62.44-2.56,1.12-7.26-2.25-8.1-1.14-.29-2.37.09-3.53-.07-1.32-.18-2.52-.7-3.64-1.41-2.72-1.74-5.23,2.59-2.52,4.32h0Z"/>
      <path class="cls-18" d="m1120.55,383.05c-5.06-.73-10.04.36-14.94,1.57s-9.15,3.29-13.61,5.1c-1.25.51-2.13,1.66-1.75,3.08.33,1.19,1.82,2.26,3.08,1.75,4.16-1.69,8.32-3.68,12.66-4.86,4.16-1.13,8.9-2.44,13.23-1.82,1.33.19,2.69-.33,3.08-1.75.32-1.17-.4-2.88-1.75-3.08h0Z"/>
      <path class="cls-18" d="m1092.45,400.52c6,.06,10.9,4.32,16.12,6.72,2.65,1.22,5.5,2.37,8.39,2.89,3.25.58,6.19-.52,9.28-1.39l-1.93-4.57c-1.34.69-2.72,1.16-4.19,1.48-1.32.29-2.09,1.82-1.75,3.08.38,1.39,1.74,2,3.08,1.75,1.61-.31,3.19-.72,4.73-1.28s3.24-1.11,4.14-2.56c1.56-2.52,1.35-6.27,1.15-9.1s-.45-6.4-2.29-8.87c-.89-1.19-2.02-1.89-3.38-2.44-.67-.27-1.91-.57-2.21-1l-3.42,3.42c1.68.81,3.31,1.72,4.86,2.75.69.46,1.37.94,2.02,1.45.16.13.34.32.52.42.37.2.34.62.25-.17-.11-.95-.1-.25-.2-.01-.11.27-.15.6-.23.88-.49,1.83-1.08,3.63-1.76,5.39-.39,1-.9,3.28-2.02,3.69-1.17.43-2.89,0-4.1-.15-1.9-.22-3.8-.49-5.66-.94-3.37-.81-6.37-2.4-9.39-4.06-3.48-1.91-7.01-3.84-10.9-4.75l.6,4.57c3.99-2.24,8.84-2.1,13.22-2.99,4.72-.95,9.3-2.77,14.19-2.39,1.22.09,2.32-1.02,2.46-2.17.16-1.31-.6-2.28-1.79-2.74-3.06-1.2-6.32-.76-9.46-.22-2.78.48-5.64.49-8.4,1.06s-6.6,2.53-5.62,5.87c.38,1.28,1.39,2.07,2.49,2.72,1.36.8,2.62,1.73,3.95,2.55,2.48,1.53,5.29,2.4,8.11,3.03s5.97,1.02,8.96.46,5.8-2.07,6.57-5.1c.39-1.51.13-3.14-.43-4.57s-1.29-3.09-2.6-3.95c-2.96-1.95-6.2.22-9.12.97-1.64.42-3.37.37-5.03.7s-3.42,1.05-5.19,1.22c-2.67.26-3.56,4.13-.66,4.91,3.26.88,6.64,1.78,10.04,1.55,1.75-.12,3.43-.48,5.04-1.18,1.27-.56,2.41-1.42,3.74-1.83l-3.08-1.75c.23,1.13.33,2.25.3,3.4-.01.53-.04,1.07-.12,1.6-.05.3-.1.6-.17.89-.14.49-.15.59-.03.28l.9-.9-.18.13,1.26-.34c-.31,0-.63-.09-.93-.18.1.03-.92-.38-.82-.38l-.02-.06c-.05-.15-.03-.07.06.27-.12.11-.42.68-.45.68h-1.33l.31.07-1.1-.64c.17.15.24.41.34.61.06.13.13.25.19.38.14.32.15.25.01-.23l1.24-2.16c.36-.27.49-.08-.08-.1-.4-.02-.8.02-1.19.02-.72-.01-1.43-.08-2.14-.17-1.34-.17-2.5,1.27-2.5,2.5,0,1.49,1.15,2.33,2.5,2.5,1.69.21,4.22.57,5.77-.3,2.11-1.19,1.37-3.28.52-4.96-.94-1.85-2.71-3.1-4.79-2.03-1.53.79-2.39,2.42-2.27,4.13s1.35,3.29,2.89,4.09,3.74,1.47,5.24.49c1.63-1.07,1.71-3.54,1.85-5.28.15-1.89-.05-3.78-.43-5.63-.27-1.3-1.85-2.12-3.08-1.75-2.61.79-4.64,2.64-7.45,2.83-2.99.2-5.86-.6-8.71-1.37l-.66,4.91c2.25-.22,4.32-.98,6.52-1.4,2.08-.4,4.18-.34,6.21-1.07.9-.33,1.78-.73,2.7-.99.31-.09.61-.12.92-.18.16-.05.31-.05.44.02-.46-.41-.54-.41-.24.01.24,1.11,1.82,2.58.54,3.62s-3.46,1.07-5,1.02c-1.98-.07-3.94-.52-5.85-1.04s-3.69-1.21-5.37-2.29c-.84-.54-1.65-1.13-2.49-1.67-.36-.23-.73-.44-1.1-.66-.78-.46-.29-.43-.24-.02v1.33c-.03.17-.26.18.29-.13.31-.17.45-.23.78-.34.59-.21,1.24-.33,1.86-.42,1.47-.2,2.96-.22,4.43-.41,3.33-.44,6.74-1.58,10.01-.3l.66-4.91c-5.34-.41-10.37,1.53-15.52,2.57s-9.95.98-14.42,3.49c-1.83,1.03-1.5,4.07.6,4.57,3.9.92,7.31,2.95,10.79,4.85,3.8,2.07,7.67,3.74,11.96,4.47,2.16.37,4.37.67,6.56.83,2,.15,4.1-.16,5.67-1.5,1.65-1.4,2.38-3.77,3.15-5.72s1.47-4.14,2.01-6.26c.34-1.35.53-2.64-.27-3.86-.68-1.04-1.95-1.82-2.93-2.54-2.04-1.52-4.21-2.81-6.5-3.91-1.01-.49-2.2-.44-3.03.39-.75.75-1.01,2.12-.39,3.03,1.26,1.85,2.97,2.31,4.89,3.17s2,3.38,2.18,5.18c.24,2.46.48,5.08-.17,7.49-.04.16-.31.64-.07.39s0-.1-.08-.08c-.62.18-1.22.49-1.83.7-1.33.45-2.69.79-4.07,1.05l1.33,4.82c1.88-.41,3.68-1.1,5.39-1.98,2.53-1.31.78-5.33-1.93-4.57-1.47.42-2.94.87-4.42,1.24-1.21.31-2.26.18-3.46-.14-2.77-.73-5.44-1.78-7.98-3.11-5.31-2.8-10.37-6.33-16.6-6.4-3.22-.03-3.22,4.97,0,5h0Z"/>
      <path class="cls-18" d="m1130.21,395.67c3.63,2.68,7.68,4.73,11.94,6.19,2.03.69,4.11,1.24,6.22,1.63.55.1,1.11.17,1.66.29.07.01.66.2.68.17.05-.05-.26-.13-.22-.25-.01.04.84-1.72.9-1.66.08.08-.3,0-.43,0-.59.01-1.2.07-1.76.24-2.19.66-2.57,4.38,0,4.82,1.29.22,2.49.23,3.75-.15l-1.93-4.57c-1.3.62-3.52-.12-4.84-.34-2-.33-4-.68-6.01-.99-4-.63-8.67-1.54-11.9,1.59-1.83,1.77.06,4.78,2.43,4.18,1.21-.3,2.42-.65,3.64-.89,1.14-.22,2.19.21,3.33.12,2.69-.21,5.41-2.32,4.46-5.29-.72-2.24-3.14-3.46-5.24-4.04-1.32-.36-3.77-.42-4.61-1.64-1.4-2.03-4.55-1.3-4.66,1.26-.16,3.71,3.79,6.81,7.13,7.41,1.33.24,2.69-.36,3.08-1.75.33-1.21-.41-2.83-1.75-3.08-.78-.14-1.53-.37-2.18-.85-.48-.35-1.31-1.12-1.28-1.74l-4.66,1.26c1.09,1.59,2.56,2.53,4.37,3.14,1.36.45,2.86.53,4.18,1.1.25.11.57.44.83.48.31.06.25-1.48.51-1.37.35.14-1.03.1-.7.11-.53-.02-1.06-.2-1.59-.23-2.06-.12-4.22.66-6.2,1.16l2.43,4.18c1.08-1.04,2.82-.8,4.18-.68,1.93.18,3.84.53,5.75.85s3.82.66,5.74.95c2.16.32,4.05.37,6.06-.6,2.56-1.23.76-5.39-1.93-4.57-.37.11-.7.22-1.1.15v4.82c.45-.13,1.01-.06,1.56-.13.84-.11,1.63-.43,2.25-1.03,1.14-1.09,1.31-2.81.72-4.21-1.25-2.95-4.79-2.87-7.46-3.5-5.39-1.27-10.41-3.58-14.87-6.87-1.09-.8-2.79-.18-3.42.9-.74,1.27-.19,2.62.9,3.42h0Z"/>
      <path class="cls-18" d="m1046.43,414.06c.48-.15.94-.34,1.35-.63.17-.12.34-.24.5-.37.09-.08.31-.22.07-.08h-.17c.13,0,.25,0,.38.01.42.01-.31-.05.11.01.53.08,1.05.19,1.58.22,1.04.07,2.01-.21,2.95-.62.38-.17.74-.36,1.1-.56.15-.08.29-.16.44-.24.05-.03.61-.3.37-.2-.2.08.23-.07.28-.09.35-.1-.49-.05.32-.05.43,0,.68.04,1.07.11.9.15,1.81.33,2.69.58.17.05.34.1.51.16.16.06.17.06.03-.01l.22.11c0-.15-.66-1.29-.51-1.46-.07.08-.11.53-.14.67-.05.18-.1.35-.15.52-.03.08-.21.57-.09.29-.17.38-.37.76-.62,1.1l.9-.9-.13.1,1.26-.34c.39.1.46.11.2.04-.1-.03-.2-.06-.29-.09-.24-.08-.48-.17-.72-.25-.48-.16-.96-.31-1.45-.43-1.03-.26-2.08-.44-3.14-.59-2.26-.32-4.54-.57-6.81-.85-1.3-.16-2.56,1.26-2.5,2.5.07,1.49,1.1,2.33,2.5,2.5,2.73.33,5.28.52,7.87,1.09.64.14,1.28.3,1.91.51.74.24,1.48.58,2.28.6,1.97.03,2.87-1.87,3.48-3.43.55-1.39.91-3.05.18-4.43s-2.39-1.96-3.82-2.32-3.04-.73-4.55-.76-2.73.5-3.97,1.19c-.29.16-.58.32-.88.47-.26.13-.01,0,.04-.01-.15.05-.31.1-.46.14.52-.12-.62-.06-.2,0-.37-.04-.75-.12-1.12-.17-.84-.11-1.68-.12-2.5.17-.45.16-.84.37-1.22.65-.1.07-.2.15-.3.22s-.51.23-.16.13c-1.29.4-2.11,1.75-1.75,3.08s1.78,2.15,3.08,1.75h0Z"/>
      <path class="cls-18" d="m1061.94,414.22c1.9.92,4,1.39,6.05,1.88.98.23,1.97.44,2.97.59.6.09,1.21.17,1.82.23.23.02.46.04.7.06.15,0,.31.02.46.03.53.05.32-.03-.63-.26l-1.15-1.49c0-.36,0-.38.02-.06.01.15.02.3.01.45,0,.23-.02.45-.04.68.06-.58-.09.34-.11.45-.07.26-.14.51-.23.76-.03.1-.32.83-.12.35-.1.24-.22.48-.33.72s-.23.47-.35.71c-.07.13-.14.27-.21.4-.16.28-.14.27.06-.03l1.1-.64c.86.05,1.05.02.6-.07l-.2-.06c-.14-.04-.56-.24-.21-.07-.41-.2-.82-.41-1.23-.62-.81-.41-1.63-.83-2.43-1.26-1.61-.86-3.19-1.77-4.71-2.79l.51,3.93c-.27.24-.66.42-1.02.45.54-.04-.41-.11-.04-.03.33.07.67.13,1,.22.67.17,1.32.37,1.98.57,1.34.4,2.68.81,4.03,1.21,1.25.38,2.78-.45,3.08-1.75s-.41-2.67-1.75-3.08c-1.64-.49-3.27-.99-4.91-1.48-2-.59-4.17-1.2-5.9.34-1.27,1.13-.75,3.08.51,3.93,1.83,1.23,3.76,2.3,5.71,3.32,2.14,1.11,5.75,3.61,7.74,1.03.76-.98,1.25-2.31,1.7-3.46s.72-2.39.75-3.63c.02-.72-.06-1.47-.34-2.13-.49-1.16-1.53-1.52-2.68-1.61-.54-.04-1.08-.06-1.62-.12-.15-.02-.69-.1-.26-.03-.31-.05-.61-.1-.92-.15-1.26-.23-2.51-.54-3.75-.86-.59-.15-1.18-.31-1.77-.47-.29-.08-.57-.17-.85-.26-.11-.04-.21-.07-.31-.11-.68-.24.43.21-.22-.1-1.18-.57-2.76-.36-3.42.9-.59,1.12-.36,2.81.9,3.42h0Z"/>
      <path class="cls-18" d="m1075.58,417.33c2.84.51,5.7.79,8.53,1.24,1.36.21,2.73.43,4.05.82.7.21.76.35,1.36.61.47.34.3-.02-.51-1.11-.02.32-.02.37,0,.17-.04.27-.11.56-.22.8.06-.16.06-.16-.02-.02-.09.15-.08.14.04-.03.18-.15.37-.27.59-.33l-.28-.02c-.7-.17-1.51-.19-2.22-.27-1.41-.15-2.82-.24-4.23-.1-.77.07-1.53.25-2.29.34-.62.07-1.31-.01-1.96-.02-.79,0-1.57.11-2.34.24-.33.06-.66.12-.98.19l-.63.12c-.37.06-.42.08-.14.05l1.26.34-.15-.07,1.15,1.49c-.04.65-.03.82.05.49.05-.16.05-.17,0-.01.02-.06.23-.34.07-.15.03-.03.54-.48.27-.29.21-.15.29-.05.05-.04.8-.05,2.17.14,3.16.26,2.32.28,4.64.64,6.99.58,1.35-.04,2.5-1.12,2.5-2.5s-1.14-2.54-2.5-2.5c-2.07.05-4.11-.22-6.16-.47s-4.44-.79-6.34.23-3.51,3.4-2.97,5.54c.42,1.65,1.89,2.25,3.44,1.99.92-.15,1.83-.44,2.76-.48s1.85.09,2.79-.02c1.14-.13,2.13-.36,3.26-.37.93-.01,1.85.06,2.77.16s1.97.34,2.94.3c2.4-.1,3.84-2.16,4.2-4.36.21-1.29.18-2.61-.8-3.61-.79-.81-1.86-1.31-2.91-1.71-2.01-.76-4.26-1-6.37-1.29-2.32-.32-4.59-.58-6.89-1-1.33-.24-2.7.36-3.08,1.75-.33,1.21.41,2.83,1.75,3.08h0Z"/>
      <path class="cls-18" d="m1092.45,422.28c2.46.73,5.02.71,7.55.84,1.02.06,2.11.1,3.09.44.76.26,1.28.84,1.79,1.51,1.35,1.76,1.65,4.02,2.89,5.82,1.04,1.5,3.09,1.7,4.37.36,1.12-1.17,1.27-2.95.46-4.33-.51-.86-1.51-1.34-2.49-1.19-1.06.16-1.69.83-2.08,1.79-.05.12-.23.48-.27.46.36-.33.78-.38,1.26-.16-.18-.11-.36-.23-.53-.36-.78-.56-1.53-1.17-2.3-1.75-1.38-1.05-2.75-2.15-4.26-3.02-3.21-1.85-6.84-2.55-10.49-2.89-1.35-.12-2.5,1.24-2.5,2.5,0,1.46,1.15,2.37,2.5,2.5,1.87.17,3.73.5,5.53,1.11s3.46,1.68,5.01,2.84c.81.6,1.6,1.22,2.41,1.83.85.65,1.68,1.43,2.69,1.82,1.28.51,2.66.3,3.76-.52s1.53-1.84,2.01-3.02l-4.57.6c-.22-.57-.18-1.1.14-1.58l1.1-.64-.16.05,1.93.25-.1-.06.9.9c-1.07-1.41-1.35-3.35-2.26-4.87-1-1.67-2.38-3.43-4.18-4.27-3.71-1.75-8.01-.62-11.86-1.76-3.09-.92-4.41,3.91-1.33,4.82h0Z"/>
      <path class="cls-18" d="m992.59,393.17c3.22,0,3.22-5,0-5s-3.22,5,0,5h0Z"/>
      <path class="cls-18" d="m992.3,393.5c3.22,0,3.22-5,0-5s-3.22,5,0,5h0Z"/>
      <path class="cls-18" d="m992.46,393.26c3.22,0,3.22-5,0-5s-3.22,5,0,5h0Z"/>
      <path class="cls-18" d="m992.05,392.98l.25.05c.33.1.66.12,1,.04.33-.02.64-.11.93-.3.29-.16.53-.37.7-.64.22-.24.37-.52.45-.85l.09-.66c0-.45-.12-.87-.34-1.26l-.39-.51c-.31-.31-.68-.52-1.1-.64l-.25-.05c-.33-.1-.66-.12-1-.04-.33.02-.64.11-.93.3-.29.16-.53.37-.7.64-.22.24-.37.52-.45.85l-.09.66c0,.45.12.87.34,1.26l.39.51c.31.31.68.52,1.1.64h0Z"/>
      <path class="cls-5" d="m983.58,400.29c2.12-.2,4.15-.79,5.98-1.9s3.37-2.77,4.83-4.4c1.37-1.53,2.79-3.11,4.66-4.03,2.15-1.06,4.64-.72,6.93-.38,1.57.23,2.25-2.18.66-2.41-2.26-.33-4.57-.66-6.83-.12-2.1.5-3.89,1.81-5.42,3.29s-2.88,3.3-4.53,4.74c-1.76,1.54-3.96,2.49-6.28,2.71-1.59.15-1.6,2.65,0,2.5h0Z"/>
      <path class="cls-5" d="m1008.78,406.54c4.55,1.15,10.63,2.51,14.84-.3s6.82-7.21,10.04-10.88c1.06-1.2-.7-2.98-1.77-1.77-2.92,3.32-5.37,7.17-8.84,9.97-3.73,3-9.38,1.63-13.61.56-1.56-.39-2.23,2.02-.66,2.41h0Z"/>
      <path class="cls-5" d="m1043.01,388.5c1.04.52,1.83,1.09,2.63,1.86.21.2.41.42.61.63.15.16,0-.03.13.16.08.11.15.22.22.33s.13.23.18.35c-.07-.19.03.16.04.18l.03.12c-.02-.13-.02-.12-.01.03-.03.24.1-.08-.03.15.12-.21-.05.1-.06.11-.13.23.13-.1-.07.08-.03.03-.29.21-.08.08-.09.06-.19.12-.28.17s-.2.1-.3.15c.23-.11-.11.04-.13.04-.21.08-.43.14-.65.2-1.27.37-2.53.72-3.8,1.09-.63.18-1.08.89-.87,1.54s.86,1.07,1.54.87c1.41-.4,2.84-.76,4.23-1.22,1.29-.42,2.57-1.16,2.92-2.57.38-1.53-.56-2.98-1.59-4.02s-2.13-1.86-3.39-2.49c-.58-.29-1.38-.17-1.71.45-.3.57-.18,1.4.45,1.71h0Z"/>
      <path class="cls-5" d="m1073.62,382.95c-4.24.24-7.65,3.3-10.42,6.26-1.41,1.51-2.41,3.6-1.45,5.63.77,1.63,2.58,2.4,4.19,2.93s2.19-1.91.66-2.41c-.9-.29-2.21-.7-2.63-1.64-.6-1.32.9-2.67,1.73-3.47,2.19-2.13,4.68-4.61,7.92-4.8,1.6-.09,1.61-2.59,0-2.5h0Z"/>
      <path class="cls-5" d="m1076.93,397.25c7.23-2.93,14.32,1.24,21.29,2.96,1.56.39,2.23-2.02.66-2.41-7.44-1.84-14.89-6.09-22.62-2.96-1.47.6-.83,3.02.66,2.41h0Z"/>
      <path class="cls-5" d="m1085.26,392.39c1.8.02,3.55.09,5.25.76,1.54.6,2.94,1.52,4.39,2.29,2.9,1.56,6.16,2.56,9.32,1.18,1.47-.64.2-2.8-1.26-2.16-2.87,1.25-6.06-.76-8.48-2.12-1.34-.75-2.72-1.48-4.2-1.92-1.62-.48-3.33-.52-5.02-.54s-1.61,2.48,0,2.5h0Z"/>
      <path class="cls-5" d="m1118.58,387.54c3.38-.67,6.3,1.87,8.57,4.01s4.71,4.5,7.88,5.42c1.55.45,2.21-1.96.66-2.41-3.34-.97-5.6-3.81-8.13-6.02-2.69-2.34-5.97-4.14-9.64-3.41-1.58.31-.91,2.72.66,2.41h0Z"/>
      <path class="cls-5" d="m1108.84,406.28c6.09,3.9,14.28,3.91,20.38.04,1.35-.86.1-3.02-1.26-2.16-5.39,3.42-12.48,3.4-17.86-.04-1.36-.87-2.61,1.29-1.26,2.16h0Z"/>
      <path class="cls-5" d="m1056.52,411.25c5.59.84,10.44,3.95,15.69,5.87s11.08,2.98,16.8,3.11c1.61.03,1.61-2.47,0-2.5-5.66-.12-11.26-1.18-16.56-3.18-5.09-1.91-9.8-4.89-15.25-5.71-1.57-.24-2.25,2.17-.66,2.41h0Z"/>
      <path class="cls-5" d="m1074.7,423.67c5.04.54,10.06.87,15.13.87,2.47,0,4.97,0,7.41.45s4.78,1.46,7.07,2.52c1.45.67,2.72-1.48,1.26-2.16-2.26-1.05-4.53-2.1-6.97-2.63-2.56-.56-5.2-.66-7.82-.68-5.4-.02-10.71-.29-16.08-.87-1.6-.17-1.59,2.33,0,2.5h0Z"/>
      <path class="cls-22" d="m836.9,281.66c-3.64.29-7.22,2.3-10.33,4.11-2.92,1.7-5.7,3.67-8.29,5.85-4.98,4.18-9.01,9.32-11.42,15.38-.5,1.26.55,2.75,1.75,3.08,1.42.39,2.58-.49,3.08-1.75,2.03-5.1,5.69-9.39,9.82-12.92,2.18-1.86,4.54-3.5,7-4.98,1.38-.82,2.79-1.59,4.24-2.28,1.27-.6,2.74-1.39,4.16-1.5,1.35-.11,2.5-1.07,2.5-2.5,0-1.27-1.15-2.61-2.5-2.5h0Z"/>
      <path class="cls-22" d="m835.05,292.08c-6.35,4.1-12.14,9.26-14.81,16.52-.45,1.23.51,2.79,1.75,3.08,1.41.32,2.59-.43,3.08-1.75.07-.2.15-.39.22-.59.17-.43-.24.51.09-.22.16-.34.32-.68.49-1.02.36-.71.77-1.4,1.2-2.07.23-.35.47-.7.71-1.04.03-.04.4-.53.26-.35-.12.16.28-.35.27-.34.51-.62,1.04-1.22,1.59-1.79,2.43-2.53,4.75-4.22,7.67-6.11,1.1-.71,1.65-2.25.9-3.42-.71-1.1-2.25-1.66-3.42-.9h0Z"/>
    </g>
    <g>
      <path class="cls-3" d="m1714.63,79.11c-4.68.34-10.2,1.51-16.26,3.26,4.82-4.1,13.72-13.44-9.61-10.13-22.43,3.19-61.95,29.71-79.77,42.37.12.14.22.31.29.51.56,1.58,6.13,11.51,7.56,14.03,5.31-.84,11.14-1.83,17.1-2.98,23.73-1.78,55.42-5.73,70.59-14.4,18.66-10.67,9.68-13.2,3.16-13.78,17.34-10.5,27.32-20.38,6.94-18.88Z"/>
      <path class="cls-28" d="m1694.28,87.79c-3.7.27-8.06,1.19-12.86,2.58,3.81-3.25,10.85-10.63-7.6-8.01-17.74,2.52-48.99,23.5-63.08,33.5.09.11.17.25.23.41.44,1.25,4.85,9.1,5.98,11.09,4.2-.66,8.81-1.45,13.52-2.36,18.76-1.41,43.83-4.53,55.82-11.39,14.76-8.44,7.65-10.44,2.5-10.9,13.71-8.3,21.6-16.12,5.49-14.93Z"/>
      <path class="cls-27" d="m1596.65,98.96l11.67,12.9,17.24-2.3c1.36-.18,2.34,1.28,1.66,2.47l-8.66,15.09,7.52,15.69c.59,1.24-.49,2.62-1.83,2.34l-17.02-3.58-12.6,12c-.99.95-2.64.34-2.79-1.02l-1.86-17.3-15.3-8.27c-1.21-.65-1.14-2.41.11-2.97l15.88-7.11,3.14-17.11c.25-1.35,1.94-1.83,2.86-.81Z"/>
    </g>
    <g>
      <path class="cls-3" d="m704.91,150.32c-2.42-.02-5.31.35-8.5,1,2.65-1.91,7.62-6.35-4.52-5.62-11.68.7-33.12,12.7-42.82,18.47.06.08.1.17.13.28.22.84,2.67,6.18,3.3,7.54,2.77-.21,5.81-.48,8.92-.82,12.29.07,28.76-.63,36.93-4.46,10.05-4.71,5.53-6.39,2.2-6.96,9.36-4.68,14.91-9.35,4.36-9.43Z"/>
      <path class="cls-28" d="m694.08,153.93c-1.91-.01-4.2.28-6.72.79,2.1-1.51,6.03-5.02-3.58-4.44-9.24.56-26.19,10.05-33.86,14.61.04.06.08.13.1.22.18.66,2.11,4.88,2.61,5.96,2.19-.16,4.59-.38,7.06-.65,9.72.06,22.74-.5,29.2-3.53,7.95-3.73,4.38-5.05,1.74-5.5,7.4-3.7,11.79-7.39,3.45-7.45Z"/>
      <path class="cls-27" d="m643.37,155.6l5.47,7.13,8.97-.46c.71-.04,1.15.75.75,1.34l-5.09,7.4,3.21,8.39c.25.66-.36,1.33-1.04,1.13l-8.61-2.55-6.98,5.65c-.55.45-1.37.07-1.39-.64l-.24-8.98-7.53-4.9c-.59-.39-.49-1.29.18-1.52l8.47-3,2.33-8.67c.18-.68,1.07-.86,1.5-.3Z"/>
    </g>
    <g>
      <path class="cls-3" d="m2226.26,318.28c-2.15-1.28-4.91-2.47-8.1-3.56,3.36-.32,10.11-1.66-1.09-7.37-10.78-5.49-36.17-6.03-47.83-5.96,0,.1,0,.2-.03.31-.24.86-.85,6.9-1,8.45,2.57,1.26,5.43,2.62,8.38,3.94,10.91,6.5,25.96,14.5,35.24,15.36,11.42,1.06,8.28-2.8,5.61-5.05,10.79.73,18.18-.52,8.82-6.12Z"/>
      <path class="cls-28" d="m2214.71,315.83c-1.7-1.02-3.89-1.95-6.41-2.82,2.66-.25,8-1.32-.86-5.83-8.52-4.34-28.6-4.77-37.83-4.72,0,.08,0,.16-.02.25-.19.68-.67,5.46-.79,6.68,2.04,1,4.29,2.07,6.63,3.12,8.63,5.14,20.53,11.46,27.87,12.15,9.03.84,6.55-2.21,4.43-3.99,8.53.58,14.38-.41,6.98-4.84Z"/>
      <path class="cls-27" d="m2168.65,290.76l1.14,9.21,8.24,4.28c.65.34.63,1.27-.03,1.58l-8.41,3.93-1.53,9.16c-.12.72-1.02.99-1.52.46l-6.34-6.78-9.18,1.38c-.72.11-1.26-.66-.9-1.3l4.49-8.12-4.15-8.31c-.33-.66.24-1.4.96-1.26l9.12,1.76,6.62-6.51c.52-.51,1.41-.21,1.5.52Z"/>
    </g>
  </g>
</svg>