<svg xmlns="http://www.w3.org/2000/svg" viewBox="0 0 1024 768"><defs><style>.cls-1{fill:#131f31;}.cls-2{fill:#066e31;}.cls-3{fill:#063;}.cls-4{fill:#017b3b;}.cls-5{fill:#348835;}.cls-6{fill:#f9b233;}.cls-7{fill:#b83d1c;}.cls-8{fill:#683c11;}.cls-9{fill:#964c15;}.cls-10{fill:#f3a925;}</style></defs><g id="Layer_8" data-name="Layer 8"><rect class="cls-1" x="-0.23" width="1024" height="767.96"/></g><g id="Layer_4" data-name="Layer 4"><path class="cls-2" d="M48.19,617.51c122.15-8.4,244.22,4.87,365.74,16.11,60.43,5.59,121,10.69,181.64,12.37A1207.89,1207.89,0,0,0,793.1,635.5c67.73-9.27,134.27-25.46,202-34.69L978.48,603c48-6.43,96.53-9.1,144.64-2.7l-16.61-2.23c2,.28,4.07.57,6.1.87a47.32,47.32,0,0,0,24.93,1.12,46.51,46.51,0,0,0,23.23-7.42c13-7.58,25.33-22.45,28.73-37.35,3.64-16,2.85-34-6.3-48.16-8.21-12.73-21.67-26.38-37.36-28.72-27.86-4.16-55.62-7-83.81-6.86a626.86,626.86,0,0,0-69.28,4.63c-51.86,6.16-103,16-154.27,25.64-26.11,4.89-52.28,9.52-78.6,13.1l16.61-2.23c-94.22,12.62-189.53,9.84-284.07,2.63-94.77-7.23-189.21-18.76-284.18-23.46-53.31-2.64-106.77-3-160,.61C31.5,493.66,16.11,498.7,4,510.81-6.84,521.65-15,539.44-14.31,555c.73,16.16,6,32.93,18.31,44.19C15.74,610,31.72,618.64,48.19,617.51Z"/><rect class="cls-3" x="500.77" y="290.9" width="25.63" height="394.24"/><rect class="cls-3" x="536.97" y="433.93" width="7.17" height="77.06" transform="translate(416.19 -234.61) rotate(38.87)"/><rect class="cls-3" x="474.27" y="355.49" width="7.17" height="77.06" transform="translate(-128.8 518.79) rotate(-51.13)"/><path class="cls-4" d="M459.72,379.08s-20,17.22-52.8-7.12-23.62-45.12-23.62-45.12,18.62,9.57,41.13,8.75,35.29,20.33,35.29,20.33S464.45,366,459.72,379.08Z"/><path class="cls-5" d="M459.35,378.93c-4.09-4.25-10-6.29-15.36-8.31-6.34-2.37-12.79-4.4-19.15-6.7-11.63-4.21-23.36-9.54-31.86-18.81a39,39,0,0,1-9.33-16.77.25.25,0,0,0-.48.14c2.78,11.07,10.83,19.88,20.25,25.94,11,7.07,23.67,10.74,35.9,15,3.69,1.3,7.38,2.65,11,4.22a26.52,26.52,0,0,1,8.69,5.6.25.25,0,0,0,.36-.35Z"/><path class="cls-5" d="M411.88,334.9c-2.52,2.45-2.57,6.32-2.15,9.57.26,2,.65,3.94.73,5.94s0,4.94-1.79,6.27c-.26.19,0,.63.25.43,2.63-2,2.19-6.62,1.79-9.47-.57-4-1.77-9.19,1.52-12.39.23-.22-.12-.57-.35-.35Z"/><path class="cls-5" d="M439,338.16c-3.3,3.71-7.48,6.78-9.07,11.69a23.75,23.75,0,0,0-.9,7.78,28.39,28.39,0,0,0,.86,8.32c.1.3.58.17.48-.14a27.27,27.27,0,0,1-.84-8,24.31,24.31,0,0,1,.88-7.87c1.56-4.81,5.71-7.83,8.95-11.47.21-.24-.14-.59-.36-.35Z"/><path class="cls-5" d="M429.75,366a9,9,0,0,0-6,5.6,12.53,12.53,0,0,0-.75,4.7c0,1.78.53,3.53.69,5.31,0,.31.53.32.5,0-.14-1.52-.52-3-.65-4.53a12.34,12.34,0,0,1,.44-4.6,8.6,8.6,0,0,1,5.88-6,.25.25,0,0,0-.13-.48Z"/><path class="cls-5" d="M394,360.35a7.8,7.8,0,0,1,7-3.21c1.33.1,2.63.35,4,.39s2.44-.18,3.67-.18a.25.25,0,0,0,0-.5c-.6,0-1.22.13-1.82.16a17.35,17.35,0,0,1-2.28,0,45.53,45.53,0,0,0-4.66-.4,8.34,8.34,0,0,0-6.29,3.49c-.19.26.24.51.43.25Z"/><path class="cls-4" d="M558.36,449.23s20,17.22,52.8-7.12S634.78,397,634.78,397s-18.61,9.57-41.12,8.75-35.3,20.33-35.3,20.33S553.64,436.1,558.36,449.23Z"/><path class="cls-5" d="M559.09,449.43c4.55-4.72,11.4-6.84,17.41-9,6.42-2.32,12.93-4.37,19.32-6.77,11.23-4.23,22.44-9.74,30.44-18.93a39.23,39.23,0,0,0,8.66-16.09c.07-.32-.41-.45-.49-.14-2.91,11.64-11.67,20.65-21.71,26.7-11.27,6.8-24.07,10.31-36.36,14.75-6.08,2.2-13,4.36-17.62,9.14-.22.23.13.58.35.35Z"/><path class="cls-5" d="M609.42,426.83c-1.75-1.33-1.86-4.28-1.79-6.27s.47-4,.72-5.94c.42-3.25.38-7.12-2.14-9.57-.23-.22-.58.13-.35.35,3.28,3.2,2.09,8.4,1.52,12.39-.41,2.84-.84,7.48,1.79,9.47.25.2.5-.24.25-.43Z"/><path class="cls-5" d="M588.25,436.1a28.28,28.28,0,0,0,.86-8.1,24.53,24.53,0,0,0-.9-8c-1.59-4.91-5.77-8-9.08-11.69-.21-.24-.56.11-.35.35,3.24,3.64,7.39,6.66,9,11.47a23.77,23.77,0,0,1,.88,7.65,27.71,27.71,0,0,1-.85,8.18c-.1.31.39.44.49.14Z"/><path class="cls-5" d="M594.38,451.8c.16-1.74.64-3.44.68-5.18a12.42,12.42,0,0,0-.75-4.83,9,9,0,0,0-6-5.6c-.31-.08-.45.4-.14.48a8.6,8.6,0,0,1,5.88,6,12.49,12.49,0,0,1,.46,4.47c-.11,1.56-.52,3.09-.66,4.66,0,.32.47.31.5,0Z"/><path class="cls-5" d="M609.43,427.5c1.17,0,2.34.22,3.53.19,1.37,0,2.72-.3,4.09-.4a7.82,7.82,0,0,1,7,3.21c.18.26.62,0,.43-.25a8.36,8.36,0,0,0-6.3-3.49,40.18,40.18,0,0,0-4.51.4,21.68,21.68,0,0,1-2.28,0c-.65,0-1.31-.17-2-.17a.25.25,0,0,0,0,.5Z"/><ellipse class="cls-6" cx="513.58" cy="278.55" rx="24.88" ry="48.29"/><ellipse class="cls-6" cx="561.87" cy="224.93" rx="48.29" ry="24.88"/><ellipse class="cls-6" cx="465.28" cy="224.93" rx="48.29" ry="24.88"/><ellipse class="cls-6" cx="513.58" cy="171.52" rx="24.88" ry="48.29"/><ellipse class="cls-6" cx="552" cy="186.51" rx="48.29" ry="24.88" transform="translate(29.8 444.95) rotate(-45)"/><ellipse class="cls-6" cx="475.16" cy="263.35" rx="48.29" ry="24.88" transform="translate(-47.05 413.12) rotate(-45)"/><ellipse class="cls-6" cx="552" cy="263.35" rx="24.88" ry="48.29" transform="translate(-24.54 467.46) rotate(-45)"/><ellipse class="cls-6" cx="477.85" cy="186.51" rx="24.88" ry="48.29" transform="translate(8.08 392.52) rotate(-45)"/><circle class="cls-7" cx="513.58" cy="226.28" r="35.85"/><circle class="cls-8" cx="513.58" cy="226.28" r="29.5"/><path class="cls-9" d="M-83.09,658.15l230.45-6.34c75.4-2.07,151.13-6.26,226.56-3.93,74.28,2.3,147.88,13.27,221.8,20,36.54,3.33,73.22,5.62,109.93,5.29,37.93-.34,75.78-3.4,113.48-7.36,84.06-8.82,168-19.43,251.91-29.26a69.44,69.44,0,0,0,44.19-18.31c10.84-10.84,19-28.62,18.31-44.19-.72-16.16-6-32.93-18.31-44.19-11.38-10.46-28.1-20.19-44.19-18.31-75.67,8.86-151.31,18-227,26.54-36.93,4.18-73.95,7.88-111.09,9.39-37.57,1.53-75.12.32-112.59-2.53-74-5.63-147.52-16.94-221.67-21-75.19-4.11-150.76.1-226,2.16l-255.8,7c-16.3.44-32.56,6.66-44.2,18.3-10.84,10.84-19,28.63-18.3,44.2.72,16.16,6,32.92,18.3,44.19,12,11,27.43,18.77,44.2,18.31Z"/><path class="cls-9" d="M38,720.74c112.25,30.26,230.23,30.83,345.62,35,113.19,4.07,226.85,10.42,340,3,36.68-2.42,73.19-6.6,109.55-12,15.19-2.26,30.39-4.77,45.29-8.58,14.62-3.75,28.63-9.48,43.67-11.5l-16.62,2.23c14.64-1.75,29.41-2.08,44.06-3.74,19.09-2.16,38.19-4.79,57.05-8.5a505.06,505.06,0,0,0,83.09-24,70,70,0,0,0,37.36-28.72c7.84-13.4,11.16-33.15,6.3-48.16s-14.27-29.72-28.73-37.36c-14-7.41-32.69-12.23-48.16-6.3a507.48,507.48,0,0,1-114.08,29.13L959,598.92c-31.34,4.09-63.53,3.21-93.93,12.75-25.86,8.11-52.12,12.78-79,16.42l16.62-2.23c-84.94,11.37-170.8,12.3-256.34,10.31-85.78-2-171.59-5.43-257.32-8.91-47.12-1.91-94.26-4.64-141-10.87l16.61,2.24A741,741,0,0,1,71.19,600.2C55.48,596,37.1,598.27,23,606.5,10.06,614.09-2.3,629-5.69,643.85c-3.65,16-2.86,34,6.3,48.16C9.41,705.67,22,716.42,38,720.74Z"/><path class="cls-9" d="M19.25,783.06C133.62,815.14,250.16,837.54,368,852.25A2266.7,2266.7,0,0,0,708.34,869c15-.39,30-.73,45-1.81,19.57-1.41,39.82-3.47,58.63-9.41a186.59,186.59,0,0,0,48.71-23.57c10.75-7.31,21.22-15.11,33.2-20.33l-14.93,6.3a65.53,65.53,0,0,1,16.13-4.48l-16.61,2.23a75.27,75.27,0,0,1,16.84.24l-16.62-2.23c12.7,1.73,25.12,5.17,37.73,7.41,17.74,3.16,35.69,5.56,53.65,7.12a422.27,422.27,0,0,0,78.54-.62l16.61-2.24a47.07,47.07,0,0,0,21.26-11.18,63.3,63.3,0,0,0,22.4-32.47c3.67-11.88,5.22-24.58,6.25-36.88,1.06-12.61-1.17-24.75-2.86-37.27a69.85,69.85,0,0,0-28.72-37.36c-13.4-7.84-33.14-11.16-48.16-6.3s-29.71,14.27-37.35,28.73l-6.3,14.93a62.84,62.84,0,0,0,0,33.22l.25,1.87-2.23-16.61a99.27,99.27,0,0,1,0,22.53L992,734.2a102.55,102.55,0,0,1-3.64,16.52l60.27-45.88a425.15,425.15,0,0,1-98.09-1.54l16.62,2.23c-15.16-2.07-30-5.35-45-8.39-11.84-2.4-24.12-4.58-36.22-4.64-8.56,0-17.25,1.48-25.64,2.87a61.77,61.77,0,0,0-8.91,2.13c-16.17,5.2-30.81,13-44.7,22.48-10.63,7.29-21.08,14.75-33,19.9l14.93-6.3a145,145,0,0,1-35.91,9.23l16.61-2.23c-26.58,3.44-53.74,3.37-80.5,3.84q-41.4.72-82.82-.07-83.31-1.59-166.35-9.29-46.57-4.34-92.95-10.56l16.62,2.23a2276.63,2276.63,0,0,1-243-46.28Q86.26,672,52.48,662.52c-15.57-4.37-34.23-1.85-48.16,6.3-13,7.59-25.33,22.45-28.72,37.35-3.65,16-2.86,34,6.3,48.16,8.85,13.74,21.33,24.23,37.35,28.73Z"/><path class="cls-10" d="M491,552.75a329.31,329.31,0,0,1-49,20.42,417,417,0,0,1-51.62,13.13c-17.47,3.32-35.1,5.67-52.8,7.33-18,1.69-36,2.69-54.06,3.26s-36.06.73-54.09.73h-6.64c-3.21,0-3.22,5,0,5,18.1,0,36.19-.05,54.28-.53s36.42-1.36,54.58-2.91c18-1.54,36-3.75,53.8-6.9a430.38,430.38,0,0,0,52.07-12.43,344,344,0,0,0,50.13-19.79c2-1,3.95-2,5.91-3,2.85-1.48.33-5.79-2.53-4.32Z"/><path class="cls-10" d="M328.61,592.93A85.56,85.56,0,0,0,306,574c-7.48-4.32-15.79-7.07-23-11.8a26.52,26.52,0,0,1-9.11-9.42c-1.53-2.83-5.85-.31-4.31,2.52,4.17,7.69,11.85,12.24,19.49,15.91,4,1.9,8,3.63,11.87,5.68A79.31,79.31,0,0,1,313,584.75a84.42,84.42,0,0,1,12,11.72,2.5,2.5,0,1,0,3.53-3.54Z"/><path class="cls-10" d="M400.1,591.73c1.2,4.54,2.44,9.15,2.6,13.87a25.68,25.68,0,0,1-2.8,12.25c-1.86,3.85-4.07,7.56-5.34,11.67a18.67,18.67,0,0,0,.34,13.09,2.52,2.52,0,0,0,3.42.9,2.57,2.57,0,0,0,.9-3.42c-1.54-3.59-.48-7.82.88-11.28,1.54-3.92,3.84-7.51,5.45-11.41,3.69-8.88,1.74-18-.63-27-.83-3.11-5.65-1.79-4.82,1.32Z"/><path class="cls-10" d="M508.4,558.14a173.12,173.12,0,0,0-8.48,21.49q-1.79,5.58-3.16,11.27c-.87,3.6-1.53,7.25-2.42,10.85a33,33,0,0,1-4,10,40,40,0,0,1-6.18,7.31A192.69,192.69,0,0,1,468,632.36a125.07,125.07,0,0,1-20.78,13.37,2.52,2.52,0,0,0-.9,3.42,2.55,2.55,0,0,0,3.42.9,119.1,119.1,0,0,0,19-12c5.84-4.39,11.71-8.9,17.15-13.78,5.24-4.69,9.67-10.09,12-16.79a94.67,94.67,0,0,0,2.75-11.13q1.23-5.72,2.87-11.35a164,164,0,0,1,9.21-24.32,2.56,2.56,0,0,0-.9-3.42,2.52,2.52,0,0,0-3.42.89Z"/><path class="cls-10" d="M499.43,602.43c10.9,7,22.44,14.32,29.91,25.14a41.53,41.53,0,0,1,5,9.59,2.56,2.56,0,0,0,3.08,1.74,2.52,2.52,0,0,0,1.74-3.07c-4.84-13.48-15.71-23.12-27.17-31.09-3.29-2.29-6.66-4.47-10-6.62-2.72-1.74-5.24,2.59-2.53,4.31Z"/><path class="cls-10" d="M523.67,561.9c6.42,10.35,16.92,16.6,27.87,21.25,11.21,4.76,23.05,8.22,33.66,14.31,12.18,7,20.81,18.4,32.37,26.21,6.56,4.43,14,7,21.66,8.62,8.41,1.82,16.95,3.19,25.47,4.35a405.61,405.61,0,0,0,52.11,3.79c2.12,0,4.24,0,6.36,0,3.22,0,3.22-5,0-5a402.67,402.67,0,0,1-51.25-2.86q-12.54-1.5-25-3.83c-7.74-1.44-15.65-3-22.63-6.8-12.38-6.73-21-18.5-32.58-26.31-10.08-6.77-21.82-10.51-33-14.92-10.44-4.1-21.33-9-28.45-18a35.71,35.71,0,0,1-2.27-3.3c-1.69-2.73-6-.22-4.32,2.53Z"/><path class="cls-10" d="M611.79,613.26l49.38,1.13c8,.19,16.2.91,24.09-.64,6.58-1.3,12.71-4.16,19-6.47,6.63-2.45,13.7-4.46,20.65-2.08a2.5,2.5,0,0,0,1.33-4.82c-13.41-4.59-26.25,4.2-38.76,7.7-7.45,2.09-15.14,1.57-22.78,1.39l-24.94-.57-27.94-.64c-3.22-.08-3.22,4.92,0,5Z"/><path class="cls-10" d="M583.21,602c1.34,7.64,2.79,15.9-.28,23.33a16.07,16.07,0,0,1-5.52,7.16c-2.37,1.65-5,2.87-7.34,4.59-2.85,2.1-5,4.71-5.16,8.36-.19,3.22,4.81,3.21,5,0a4.5,4.5,0,0,1,1.06-2.53,13.13,13.13,0,0,1,2.94-2.42c2.6-1.67,5.38-3,7.77-5,5.74-4.75,8-12.58,8.06-19.78a82.7,82.7,0,0,0-1.71-15,2.52,2.52,0,0,0-3.07-1.75,2.56,2.56,0,0,0-1.75,3.08Z"/><path class="cls-10" d="M548.37,557l50.55,15.17c8.34,2.5,16.67,5,25,7.5a247.83,247.83,0,0,0,24.56,6.19,119,119,0,0,0,25.13,2.09,220.86,220.86,0,0,0,24.88-2.48c16.23-2.32,32.63-5.26,49.08-3.5,16,1.73,31.33,7.81,46,14.14l5.55,2.41a2.59,2.59,0,0,0,3.42-.9,2.52,2.52,0,0,0-.89-3.42c-15-6.52-30.19-13.16-46.36-16.1-16.61-3-33.18-1.11-49.72,1.31-16.37,2.4-32.8,4.87-49.34,2.67-16.91-2.25-33.26-7.9-49.54-12.78L556,554l-6.26-1.87c-3.08-.93-4.4,3.89-1.33,4.82Z"/><path class="cls-10" d="M764.86,585.2c-3.62,10.07-1.65,21.2,3.17,30.52,5,9.63,13.2,17.06,22.05,23.12,5.13,3.5,10.54,6.58,16,9.58,2.82,1.56,5.34-2.76,2.52-4.32-17.09-9.44-36.11-21.17-40.05-41.93a29.72,29.72,0,0,1,1.16-15.64,2.52,2.52,0,0,0-1.74-3.08,2.56,2.56,0,0,0-3.08,1.75Z"/><path class="cls-10" d="M245,598.68c-4.57,3.82-8.07,8.67-11.71,13.34-3.46,4.45-7.15,9.06-12.16,11.83-6.46,3.57-13.88,2.23-20.92,2.53s-13.29,3-19.49,6.3-12.44,7-19.61,6.49a2.5,2.5,0,0,0,0,5c6.79.46,13.08-2.4,19-5.48,5.72-3,11.53-6.54,18.1-7.17,7.91-.76,15.89.92,23.42-2.34,5.54-2.4,9.81-6.84,13.53-11.46,4.29-5.32,8.14-11.09,13.43-15.51a2.52,2.52,0,0,0,0-3.53,2.55,2.55,0,0,0-3.54,0Z"/><path class="cls-10" d="M307.34,578A115.09,115.09,0,0,0,349,556a2.53,2.53,0,0,0,0-3.54,2.56,2.56,0,0,0-3.54,0A109.2,109.2,0,0,1,306,573.22c-3.08.89-1.77,5.71,1.33,4.82Z"/><path class="cls-10" d="M395.31,622.63l-15.44,0-8,0a66.49,66.49,0,0,0-7.06.09,11.49,11.49,0,0,0-6.28,2.35,13.1,13.1,0,0,0-3.32,4.41c-1.62,3.26-2.61,6.66-5.44,9.13a13.15,13.15,0,0,1-10.73,3,2.57,2.57,0,0,0-3.07,1.75,2.52,2.52,0,0,0,1.74,3.08,18.29,18.29,0,0,0,19.85-10.05c1.32-2.79,2.31-7.08,5.54-8.27,2-.74,4.41-.5,6.53-.49l7.73,0,17.93.06c3.22,0,3.23-5,0-5Z"/><path class="cls-10" d="M405.24,604.43a153.84,153.84,0,0,0,24.16,30.91c2.29,2.26,5.83-1.27,3.53-3.54a148.68,148.68,0,0,1-23.37-29.89c-1.64-2.76-6-.25-4.32,2.52Z"/><path class="cls-10" d="M584.52,623.24a62.63,62.63,0,0,1-33.08-15c-2.4-2.13-6,1.39-3.53,3.53a67,67,0,0,0,35.28,16.3,2.58,2.58,0,0,0,3.07-1.74c.32-1.17-.4-2.9-1.74-3.08Z"/><path class="cls-10" d="M775.89,621.93a76.89,76.89,0,0,1,42.37,3.14,74.29,74.29,0,0,1,11,5.13c2.8,1.6,5.33-2.72,2.53-4.31a81.33,81.33,0,0,0-57.23-8.78c-3.14.67-1.81,5.5,1.33,4.82Z"/><path class="cls-10" d="M453.19,565.12a58.31,58.31,0,0,0-23.12-9.62,80.6,80.6,0,0,0-11.71-1,59.16,59.16,0,0,1-10-.85c-3.5-.72-6.59-2.12-8.83-5a2.5,2.5,0,0,0-3.53,0,2.55,2.55,0,0,0,0,3.53c4.53,5.8,12.25,6.85,19.13,7.18,3.64.17,7.28.15,10.9.56a53.17,53.17,0,0,1,12.12,2.91,53.78,53.78,0,0,1,12.55,6.61,2.52,2.52,0,0,0,3.42-.9,2.56,2.56,0,0,0-.89-3.42Z"/><path class="cls-10" d="M553.22,553.44c-4-1.84-8.37-2.43-12.71-2.85a73.86,73.86,0,0,0-13.3-.07,2.56,2.56,0,0,0-2.5,2.5,2.52,2.52,0,0,0,2.5,2.5,74.65,74.65,0,0,1,12.33,0c3.7.31,7.76.69,11.16,2.26a2.56,2.56,0,0,0,3.42-.9,2.52,2.52,0,0,0-.9-3.42Z"/><path class="cls-10" d="M500.77,535.57h25.63a0,0,0,0,1,0,0v17a8.07,8.07,0,0,1-8.07,8.07h-9.54a8,8,0,0,1-8-8V535.57A0,0,0,0,1,500.77,535.57Z"/><polygon class="cls-10" points="500.77 535.6 500.77 532.87 526.39 535.6 500.77 535.6"/><path class="cls-10" d="M521.94,559.13c1.43,2,2.81,4,4.13,6.13a2.64,2.64,0,0,0,1.49,1.15,2.5,2.5,0,0,0,2.82-3.68c-1.32-2.08-2.69-4.12-4.13-6.13a2.72,2.72,0,0,0-1.49-1.15,2.5,2.5,0,0,0-3.08,1.75,2.46,2.46,0,0,0,.26,1.93Z"/><path class="cls-10" d="M493.23,557.32c.46-.22.92-.44,1.39-.64l.8-.35.22-.09c.95-.38,1.91-.74,2.88-1.06a48.49,48.49,0,0,1,5.93-1.6,2.53,2.53,0,0,0,1.75-3.08,2.57,2.57,0,0,0-3.08-1.75A54.13,54.13,0,0,0,490.7,553a2.51,2.51,0,0,0-.89,3.42,2.56,2.56,0,0,0,3.42.89Z"/><path class="cls-10" d="M525.4,555.9c3.22,0,3.22-5,0-5s-3.22,5,0,5Z"/><path class="cls-10" d="M587.83,600l-2.41-5.76a1.85,1.85,0,0,0-.45-.85,1.8,1.8,0,0,0-.7-.64,2.53,2.53,0,0,0-1.92-.26,2.59,2.59,0,0,0-1.5,1.15,2.43,2.43,0,0,0-.25,1.93l2.41,5.75a2.87,2.87,0,0,0,1.15,1.5,2.5,2.5,0,0,0,3.42-.9,2.37,2.37,0,0,0,.25-1.92Z"/><path class="cls-10" d="M612,608.26H608a2.61,2.61,0,0,0-1.77.73,2.57,2.57,0,0,0-.73,1.77,2.53,2.53,0,0,0,.73,1.77,2.59,2.59,0,0,0,1.77.73H612a2.61,2.61,0,0,0,1.77-.73,2.57,2.57,0,0,0,.73-1.77,2.53,2.53,0,0,0-.73-1.77,2.59,2.59,0,0,0-1.77-.73Z"/><path class="cls-10" d="M410.4,604.12a19.82,19.82,0,0,0-1.76-3.43,18.8,18.8,0,0,0-2.45-3,2.59,2.59,0,0,0-1.77-.73,2.49,2.49,0,0,0-2.5,2.5,2.59,2.59,0,0,0,.73,1.77,15.62,15.62,0,0,1,1.49,1.66l-.4-.51a15.81,15.81,0,0,1,2,3.46l-.25-.6.06.17a2.8,2.8,0,0,0,1.15,1.49,2.55,2.55,0,0,0,1.93.25,2.49,2.49,0,0,0,1.49-1.15,2.41,2.41,0,0,0,.26-1.92Z"/><path class="cls-10" d="M405.17,591.38a22.18,22.18,0,0,0-1.93-4.2,2.62,2.62,0,0,0-1.5-1.15,2,2,0,0,0-1,0,1.93,1.93,0,0,0-.93.3,2.5,2.5,0,0,0-1.15,1.5,2.58,2.58,0,0,0,.25,1.92,19,19,0,0,1,1.23,2.42l-.25-.59q.24.59.45,1.17a2.65,2.65,0,0,0,1.15,1.5,1.93,1.93,0,0,0,.93.3,2,2,0,0,0,1,0,2.55,2.55,0,0,0,1.5-1.15,2.49,2.49,0,0,0,.25-1.92Z"/><path class="cls-10" d="M449.34,568.34a15.82,15.82,0,0,1,3.31,2l-.5-.39a17.28,17.28,0,0,1,2,1.88,2.5,2.5,0,1,0,3.54-3.53,17.59,17.59,0,0,0-5.87-4.24,1.77,1.77,0,0,0-.93-.3,1.89,1.89,0,0,0-1,0,2.5,2.5,0,0,0-1.74,3.08,2.34,2.34,0,0,0,1.15,1.49Z"/><path class="cls-10" d="M394.84,627.46l2.4-.24a1.9,1.9,0,0,0,1-.22,2.3,2.3,0,0,0,1.32-1.32,1.88,1.88,0,0,0,.21-1l-.09-.67A2.41,2.41,0,0,0,399,623l-.5-.39a2.44,2.44,0,0,0-1.27-.34l-2.4.24a1.88,1.88,0,0,0-1,.22,1.83,1.83,0,0,0-.8.51,1.85,1.85,0,0,0-.52.81,1.88,1.88,0,0,0-.22,1l.09.67a2.52,2.52,0,0,0,.65,1.1l.5.39a2.43,2.43,0,0,0,1.26.34Z"/></g></svg>