<?xml version="1.0" encoding="UTF-8"?>
<svg id="Layer_3" data-name="Layer 3" xmlns="http://www.w3.org/2000/svg" viewBox="0 0 1024 768">
  <defs>
    <style>
      .cls-1 {
        fill: #4da7de;
      }

      .cls-2 {
        fill: #fbfbfc;
      }

      .cls-3 {
        fill: #f9b233;
      }

      .cls-4 {
        fill: #95c11f;
      }

      .cls-5 {
        fill: #348835;
      }

      .cls-6 {
        fill: #fff;
        stroke: #353639;
        stroke-miterlimit: 10;
        stroke-width: 2px;
      }

      .cls-7 {
        fill: #063;
      }
    </style>
  </defs>
  <ellipse class="cls-2" cx="518.38" cy="256.79" rx="19.79" ry="38.4"/>
  <ellipse class="cls-2" cx="556.78" cy="214.15" rx="38.4" ry="19.79"/>
  <ellipse class="cls-2" cx="479.97" cy="214.15" rx="38.4" ry="19.79"/>
  <ellipse class="cls-2" cx="518.38" cy="171.68" rx="19.79" ry="38.4"/>
  <ellipse class="cls-2" cx="548.93" cy="183.6" rx="38.4" ry="19.79" transform="translate(30.96 441.93) rotate(-45)"/>
  <ellipse class="cls-2" cx="487.82" cy="244.7" rx="38.4" ry="19.79" transform="translate(-30.15 416.61) rotate(-45)"/>
  <ellipse class="cls-2" cx="548.93" cy="244.7" rx="19.79" ry="38.4" transform="translate(-12.25 459.82) rotate(-45)"/>
  <ellipse class="cls-2" cx="489.96" cy="183.6" rx="19.79" ry="38.4" transform="translate(13.69 400.23) rotate(-45)"/>
  <circle class="cls-3" cx="518.38" cy="215.22" r="23.46"/>
  <path class="cls-7" d="m579.36,163.67c.37,3.11-.1,6.72-1.33,10.56-.81,2.54-1.95,5.18-3.39,7.86,27.31,6.94,45.3,18.78,45.3,32.22s-17.92,25.23-45.15,32.18c-10.94,2.79-23.39,4.79-36.77,5.8-2.76.21-5.56.38-8.4.49-2.84.12-5.71.2-8.62.23-.87,0-1.75,0-2.62,0-3.81,0-7.56-.08-11.25-.23-2.84-.12-5.64-.28-8.4-.49-13.39-1.01-25.83-3.01-36.78-5.8-27.22-6.94-45.14-18.77-45.14-32.18s18.82-25.82,47.19-32.69c-1.41-2.67-2.51-5.29-3.28-7.81-1.17-3.84-1.58-7.43-1.14-10.52-51.46,8.62-87.39,28.21-87.39,51.01s34.93,41.85,85.24,50.64c9.96,1.75,20.52,3.08,31.54,3.94,3.53.27,7.12.5,10.75.68,6.11.3,12.34.45,18.66.45,1.08,0,2.16,0,3.24-.02,5.21-.05,10.36-.19,15.41-.43,3.63-.18,7.21-.4,10.74-.69,11.01-.85,21.58-2.17,31.54-3.92,50.32-8.81,85.25-28.17,85.25-50.65s-34.91-41.84-85.2-50.64Z"/>
  <path class="cls-5" d="m578.04,174.24c-.81,2.54-1.95,5.18-3.39,7.86,27.31,6.94,45.3,18.78,45.3,32.22s-17.92,25.23-45.15,32.18c-10.94,2.79-23.39,4.79-36.77,5.8-2.76.21-5.56.38-8.4.49-2.84.12-5.71.2-8.62.23-.87,0-1.75,0-2.62,0-3.81,0-7.56-.08-11.25-.23-2.84-.12-5.64-.28-8.4-.49-13.39-1.01-25.83-3.01-36.78-5.8-27.22-6.94-45.14-18.77-45.14-32.18s18.82-25.82,47.19-32.69c-1.41-2.67-2.51-5.29-3.28-7.81-39.51,7.91-66.44,23.7-66.44,41.89s25.67,33.22,63.63,41.3c12.2,2.6,25.67,4.44,39.98,5.34.3.03.6.05.91.06,6.38.39,12.92.59,19.58.59.89,0,1.79,0,2.68-.02.18,0,.35,0,.53,0,5.55-.06,11.02-.24,16.37-.57.31,0,.61-.03.91-.06,14.3-.9,27.77-2.73,39.97-5.34,37.97-8.08,63.64-23.55,63.64-41.3s-26.03-33.44-64.44-41.47Z"/>
  <g>
    <path class="cls-1" d="m541.83,215.49c0,.34,0,.68-.02,1.01-.31,7.48-4.03,14.06-9.65,18.18-3.87,2.85-8.63,4.53-13.79,4.53s-10.38-1.85-14.34-4.96c-.59-.46-1.16-.95-1.7-1.46-4.56-4.33-7.41-10.48-7.41-17.31,0-2.78.47-5.45,1.34-7.92,2.66-7.6,9.04-13.42,16.93-15.22,1.27-.29,2.59-.48,3.93-.55.41-.02.83-.03,1.25-.03,2.2,0,4.32.31,6.34.88,4.27,1.21,8.06,3.61,10.97,6.83l-2.41.54-.5,1.42-1.6,1.52h-1l-1.8.51-.6.91-2,.71-1.9.71-1.2,1.82v1.32c0,.3.8,1.21.8,1.21l.86.71h0s.7,1.24.7,1.24c0,0,.35.73.5.81.15.08.87.15,1,.18.12.02.83-.56.83-.56l.32-1.14s.28-.88.38-.91c.1-.02,1.27.18,1.35.3.07.13,1.12.53,1.22.58.1.05,2.44-.1,2.44-.1,0,0,1.23-.36,1.36-.2.13.15,2.15.46,2.22.48.08.02,2,.25,2.08.24.07-.01,2.15-.26,2.15-.26,0,0,.41.37.72.66.15,1.09.23,2.2.23,3.34Z"/>
    <path class="cls-4" d="m512.38,198.5c.2.4.5,2.12.5,3.24s-.6,2.22-.9,2.53c-.3.31-2,1.45-2,1.45,0,0-2.7.27-2.75.07-.05-.2-2.35.1-2.65.4s-1.2,1.41-1.2,1.41v3.44l1.1,2.53,2.2.81,3,1.11,1.4,2.93-.6,5.06-3.8,5.66-.8,1.32-1.5,2.93-.35.88c-.59-.46-1.16-.95-1.7-1.46.19-.58.35-1.11.35-1.23,0-.3-.3-1.92-.4-2.43s-.4-1.92-.4-1.92c0,0-.7-1.82-.8-2.33-.1-.51-.4-1.72-.4-1.72,0,0-1.6-1.72-1.9-2.02-.3-.3-.7-1.92-.8-2.33-.1-.4,0-1.82,0-2.22s.9-1.11.9-1.11l2.7-1.32v-1.82c0-.3-.2-2.02-.3-2.33-.1-.3-.5-1.72-.5-1.72l-1.1-1.11-.9-.3-1.7.81-.83-.13c2.66-7.6,9.04-13.42,16.93-15.22l.18.43s-.5,1.08-1.1,3.2c-.6,2.12-.1,2.12.1,2.53Z"/>
    <path class="cls-4" d="m541.6,212.15c-.31-.29-.72-.66-.72-.66,0,0-2.08.25-2.15.26-.08.01-2-.21-2.08-.24-.08-.02-2.1-.33-2.22-.48-.12-.15-1.36.2-1.36.2,0,0-2.34.15-2.44.1-.1-.05-1.15-.45-1.22-.58-.08-.13-1.25-.33-1.35-.3-.1.03-.38.91-.38.91l-.32,1.14s-.7.58-.83.56c-.12-.02-.85-.1-1-.18-.15-.08-.5-.81-.5-.81l-.7-1.24h0s-.86-.71-.86-.71c0,0-.8-.91-.8-1.21v-1.32l1.2-1.82,1.9-.71,2-.71.6-.91,1.8-.51h1l1.6-1.52.5-1.42,2.41-.54c1.82,2.01,3.29,4.33,4.35,6.87.61,1.49,1.09,3.06,1.39,4.69h0c.07.37.13.74.18,1.11Z"/>
    <path class="cls-4" d="m541.81,216.5c-.31,7.48-4.03,14.06-9.65,18.18-.11-.5-.19-.9-.19-.9,0,0-.1-1.31-.1-1.62s.2-1.41.2-1.82.4-1.62.5-1.92-.1-1.21-.1-1.21l-.5-1.72s-.6-.91-.9-1.31-1.7-.71-1.7-.71h-3.1s-1.1-1.32-1.4-1.92c-.3-.61-.4-1.62-.5-1.92-.1-.3,0-1.42,0-1.72s1-1.41,1-1.41l1.7-.51h2.5l1.7.51h1.8l1.4-.51.9-.51h2.3l1.5,1.01h2.64Z"/>
    <path class="cls-4" d="m524.92,200.12c-.1.35,0,.66,0,.66h1.5l.5-.41.35-.76-.5-.4-.7-.76.3-.61.2-.71-.5-.45h-.75l-.2.51.05.71.1.83-.39.48s.14.56.04.91Z"/>
    <path class="cls-4" d="m523.68,197.9s.15.45,0,.61,0,.71,0,.71h.45l.21-.66v-.66h-.66Z"/>
    <path class="cls-4" d="m524.71,192.64c-.38.3-.74.65-.74.65,0,0-.84.66-1.29.96-.45.3-1.3-.15-1.45-.05-.15.1-2,0-2.35,0s-.5-1.31-.5-1.31l-.9-.25-.35-.84c.41-.02.83-.03,1.25-.03,2.2,0,4.32.31,6.34.88Z"/>
  </g>
  <g>
    <path class="cls-6" d="m468.99,98.47c1.64,1.68,2.87,3.75,3.67,6.2.81,2.46,1.05,4.84.72,7.14-.33,2.31-1.08,4.3-2.24,5.98-2.34,3.45-5.19,5.73-8.55,6.84l-7.08,2.33,2.11,6.4c.29.87.47,1.53.56,1.98.09.45.07,1.01-.04,1.68-.19,1.19-1.5,2.19-3.92,2.99-2.65.87-4.42.68-5.34-.57-.44-.57-.87-1.51-1.31-2.83l-10.35-31.45c-.29-.87-.47-1.53-.56-1.98-.09-.45-.07-1.01.04-1.68.19-1.19,1.5-2.19,3.92-2.98l12.13-3.99c3.32-1.09,6.95-.95,10.88.44,1.93.66,3.72,1.83,5.36,3.51Zm-6.71,13.77c.82-1.19.96-2.62.41-4.28-.55-1.66-1.51-2.74-2.88-3.23-1.38-.49-2.65-.54-3.82-.16l-7.08,2.33,3.3,10.03,7.14-2.35c1.13-.37,2.11-1.15,2.93-2.35Z"/>
    <path class="cls-6" d="m475.28,91.32c-.15-.9-.24-1.58-.25-2.04-.02-.46.06-1.01.24-1.64.37-1.15,1.81-1.94,4.32-2.36,2.39-.4,3.97-.12,4.74.84.41.54.69,1.03.83,1.5.14.46.28,1.14.43,2.04l4.56,27.25c.24,1.41.5,2.29.8,2.62.3.33.85.43,1.65.3.8-.13,1.35-.2,1.63-.18.28.01.65.12,1.08.33.87.38,1.5,1.71,1.88,3.98.41,2.47.27,4.05-.42,4.73-.9.88-3.31,1.4-7.24,1.58-3.09.11-5.22-.56-6.39-2.02-1.42-1.74-2.48-4.71-3.19-8.9l-4.69-28.01Z"/>
    <path class="cls-6" d="m517.89,100.07c.19-2.23,1.74-3.38,4.64-3.44,1.55-.03,2.71.06,3.47.28.76.22,1.3.63,1.61,1.22.31.59.5,1.11.57,1.57.07.46.12,1.14.13,2.06l.45,20.88c.02.92,0,1.6-.04,2.06-.05.46-.21.99-.47,1.59-.54,1.05-1.88,1.59-4.05,1.64s-3.62-.19-4.37-.71c-.75-.52-1.19-1.3-1.33-2.33-1.43,2.14-3.86,3.25-7.3,3.32-3.44.07-6.67-1.43-9.67-4.51-3.01-3.08-4.56-6.7-4.65-10.85-.09-4.16,1.31-7.83,4.21-11.01,2.9-3.18,6.11-4.82,9.65-4.89,1.35-.03,2.59.18,3.71.64,1.12.45,1.91.88,2.36,1.29.45.41.81.81,1.1,1.2Zm-10.59,12.64c.03,1.31.57,2.49,1.63,3.52,1.06,1.03,2.32,1.53,3.79,1.5,1.47-.03,2.68-.59,3.63-1.69.95-1.09,1.41-2.29,1.39-3.58-.03-1.29-.52-2.48-1.48-3.58-.96-1.09-2.22-1.62-3.79-1.59-1.57.03-2.83.62-3.78,1.75-.95,1.13-1.41,2.36-1.38,3.67Z"/>
    <path class="cls-6" d="m551.98,99.83c3.92.66,6.94,2.71,9.04,6.15,2.1,3.44,2.79,7.32,2.07,11.63l-1.74,10.36c-.15.9-.29,1.57-.43,2.02-.13.44-.39.91-.75,1.42-.73.97-2.35,1.24-4.86.82-2.79-.47-4.27-1.46-4.46-2.99-.12-.71-.07-1.73.15-3.06l1.74-10.36c.27-1.61.02-2.94-.75-4-.77-1.06-1.93-1.72-3.48-1.98-1.55-.26-2.88,0-4,.78-1.12.78-1.81,1.94-2.06,3.46l-1.75,10.42c-.15.9-.29,1.57-.43,2.02-.13.44-.41.91-.81,1.41-.69.97-2.29,1.25-4.8.83-2.47-.42-3.89-1.2-4.26-2.35-.18-.63-.25-1.18-.24-1.64.02-.46.1-1.14.25-2.04l3.5-20.83c.14-.86.29-1.51.42-1.96.13-.44.4-.91.81-1.41.71-.89,2.31-1.12,4.78-.71,2.39.4,3.79,1.1,4.19,2.09.28.73.34,1.57.18,2.51.2-.25.62-.58,1.26-1,.63-.42,1.23-.74,1.8-.97,1.49-.68,3.03-.88,4.64-.61Z"/>
    <path class="cls-6" d="m584.95,119.81l-3.59-1.48-2.67,7.79c-.35,1.02-.44,1.8-.28,2.37.16.56.69.99,1.57,1.3s1.55.56,2,.78.89.57,1.31,1.05c.7.79.7,2.19,0,4.23-.81,2.37-1.84,3.64-3.07,3.8-.66.07-1.21.06-1.66-.03-.45-.09-1.09-.28-1.92-.56-3.91-1.34-6.58-3.24-8.01-5.71-1.43-2.46-1.42-5.8.03-10.02l2.87-8.35c-.75-.13-1.54-.34-2.37-.62-.83-.28-1.41-.84-1.73-1.67-.33-.83-.22-2.01.3-3.55.53-1.54,1.01-2.63,1.43-3.26.43-.63.86-1.04,1.3-1.22.77-.28,1.61-.27,2.51.04l1.78.86,1.99-5.81c.3-.87.54-1.49.74-1.89.2-.39.53-.78,1-1.17.81-.77,2.42-.75,4.83.08,2.56.88,3.84,2.1,3.86,3.66-.02.67-.25,1.66-.7,2.98l-1.9,5.53c1.71.42,2.98.77,3.83,1.06.85.29,1.48.54,1.89.74.41.2.85.55,1.31,1.05.81.83.8,2.44-.02,4.85-.81,2.37-1.82,3.65-3.01,3.82-.65.07-1.21.06-1.66-.03-.45-.09-1.11-.29-1.98-.58Z"/>
  </g>
  <g>
    <path class="cls-6" d="m435.06,278.69c5.11,2.93,8.49,7.31,10.13,13.16,1.65,5.85.9,11.51-2.23,16.98-3.13,5.47-7.6,9.1-13.39,10.9-5.79,1.79-11.31,1.19-16.56-1.82-5.25-3-8.62-7.46-10.12-13.36-1.5-5.9-.75-11.48,2.26-16.72,1.64-2.86,3.7-5.25,6.16-7.16,2.47-1.91,5.05-3.22,7.75-3.92,2.69-.7,5.44-.9,8.24-.58,2.8.32,5.39,1.16,7.77,2.52Zm-20.6,14.12c-1.76,3.07-2.2,6.13-1.31,9.19.89,3.05,2.56,5.28,5.01,6.68,2.45,1.4,5.19,1.74,8.23,1,3.03-.74,5.45-2.68,7.25-5.82,1.8-3.14,2.25-6.23,1.35-9.26-.9-3.03-2.57-5.25-5.02-6.66-2.45-1.4-5.21-1.71-8.27-.92-3.06.79-5.48,2.72-7.24,5.79Z"/>
    <path class="cls-6" d="m473.82,294.67c.46-.46,1.08-.69,1.87-.7.79,0,1.79.18,2.98.56,1.2.37,2.12.79,2.77,1.24.65.45,1.03,1.01,1.14,1.67.11.66.12,1.22.04,1.67-.08.46-.26,1.12-.53,1.99l-10.62,34c-.27.87-.51,1.52-.7,1.94-.19.42-.52.85-.99,1.28-.89.85-2.65.86-5.29.03-2.64-.82-3.82-2.21-3.54-4.17-2.16,1.32-4.67,1.54-7.52.65-3.42-1.07-6.07-3.53-7.94-7.39-1.88-3.86-2.2-7.77-.96-11.74,1.24-3.97,3.74-7.01,7.51-9.13,3.76-2.12,7.34-2.65,10.72-1.59,2.81.88,4.7,2.51,5.66,4.89l3.74-11.96c.27-.87.51-1.52.7-1.94.19-.42.52-.86.97-1.32Zm-18.92,28.06c.67,1.33,1.7,2.22,3.11,2.66,1.4.44,2.73.29,3.98-.44,1.25-.73,2.07-1.72,2.45-2.95.39-1.23.3-2.52-.26-3.86-.56-1.34-1.6-2.25-3.12-2.72-1.52-.47-2.9-.33-4.13.43-1.24.76-2.05,1.77-2.44,3.02s-.25,2.55.41,3.88Z"/>
    <path class="cls-6" d="m510.8,314.37c2.21,1.3,3.23,2.68,3.06,4.14-.08.71-.32,1.36-.71,1.96-.39.6-.59.91-.59.95l-19.56,32.93c-.4.71-.74,1.26-1,1.63-.26.37-.65.71-1.17,1.01-.52.3-1.13.41-1.84.33-.71-.08-1.72-.5-3.04-1.25-2.21-1.3-3.24-2.66-3.07-4.08.11-.95,2.53-5.25,7.27-12.91l-9.49-21.22c-.64-1.4-.92-2.41-.85-3.04.15-1.26,1.36-2.4,3.64-3.42,1.43-.63,2.53-.91,3.28-.82.75.09,1.34.32,1.78.69.44.37.74.74.92,1.1.18.36,1.05,2.32,2.62,5.89,1.57,3.57,3.07,6.89,4.52,9.98.27-.61,1.62-2.92,4.05-6.95,2.43-4.02,3.73-6.16,3.9-6.42.17-.26.44-.57.8-.93.59-.61,1.35-.86,2.28-.76.93.11,1.99.51,3.19,1.21Z"/>
    <path class="cls-6" d="m516.67,342.63c-.78-.44-1.19-1.18-1.24-2.21-.05-1.03.63-2.64,2.04-4.82.4-.7,1.09-1.07,2.07-1.12s2.32.38,4.03,1.27c1.72.89,3.25,1.31,4.6,1.24,2.42-.12,3.61-.65,3.57-1.61-.04-.75-1.4-1.25-4.07-1.48-2.52-.24-5.05-1.05-7.58-2.44-1.19-.66-2.2-1.74-3.02-3.23-.83-1.49-1.29-3.29-1.4-5.4-.3-6.28,3.86-9.62,12.48-10.04,2.82-.14,5.75.4,8.8,1.61,1.42.57,2.16,1.33,2.2,2.28s-.33,2.15-1.14,3.58c-.81,1.43-1.67,2.17-2.58,2.22-.48.02-1.38-.23-2.7-.77-1.32-.53-2.74-.76-4.25-.69-2.34.11-3.5.61-3.45,1.48.06,1.19,1.44,1.9,4.16,2.13,2.64.15,5.21.78,7.74,1.9,1.18.5,2.19,1.42,3.03,2.75.84,1.33,1.31,3.03,1.41,5.1.1,2.07-.2,3.84-.91,5.33-.7,1.49-1.74,2.62-3.09,3.4-2.48,1.35-5.64,2.12-9.48,2.31-3.83.19-7.57-.75-11.22-2.8Z"/>
    <path class="cls-6" d="m548.8,340.45c-.84-.32-1.36-.98-1.57-1.99-.21-1.01.22-2.7,1.28-5.07.29-.75.92-1.22,1.87-1.42.96-.2,2.35.02,4.18.64,1.83.62,3.41.79,4.74.52,2.38-.49,3.47-1.2,3.28-2.13-.15-.74-1.57-1.02-4.25-.83-2.53.15-5.15-.26-7.87-1.25-1.27-.47-2.44-1.38-3.48-2.73-1.05-1.35-1.78-3.06-2.21-5.12-1.26-6.16,2.34-10.1,10.79-11.83,2.77-.57,5.75-.49,8.94.24,1.49.34,2.33.98,2.52,1.92s0,2.17-.58,3.71c-.58,1.54-1.32,2.4-2.21,2.58-.47.1-1.39-.02-2.78-.34-1.39-.33-2.82-.34-4.3-.03-2.3.47-3.36,1.14-3.18,1.99.24,1.17,1.72,1.66,4.44,1.47,2.63-.25,5.27-.02,7.94.69,1.24.31,2.38,1.07,3.42,2.25,1.04,1.19,1.76,2.8,2.17,4.82.42,2.03.39,3.83-.08,5.41-.47,1.58-1.31,2.86-2.53,3.84-2.25,1.72-5.25,2.96-9.01,3.73-3.76.77-7.6.42-11.51-1.05Z"/>
    <path class="cls-6" d="m602.56,306.98c.89,2.28.98,4.19.27,5.72-.71,1.53-1.75,2.57-3.12,3.1l-13.18,5.12c.4,1.04,1.35,1.67,2.85,1.9,1.5.23,2.86.11,4.08-.37,2.15-.84,3.75-1.71,4.8-2.63l.53-.46c.73-.75,1.39-1.25,1.99-1.48,1.19-.46,2.53-.02,4.03,1.31.87.81,1.44,1.57,1.72,2.28,1.28,3.3-2.03,6.48-9.92,9.55-2.74,1.07-5.37,1.54-7.86,1.42-2.5-.12-4.65-.72-6.44-1.82-3.5-2.1-5.97-5-7.42-8.71-1.81-4.67-1.76-8.99.18-12.97,1.93-3.97,5.16-6.84,9.69-8.6,5.15-2,9.64-1.65,13.46,1.04,2.01,1.44,3.46,3.3,4.34,5.58Zm-11.1,6.2c1.41-.55,1.88-1.41,1.42-2.6-.33-.85-.92-1.41-1.77-1.68-.85-.27-1.88-.17-3.08.3-1.21.47-2.21,1.42-3.01,2.87-.8,1.44-.99,2.72-.56,3.83l7.01-2.72Z"/>
    <path class="cls-6" d="m623.88,280.67c2.54-.34,4.2.12,4.96,1.38.37.61.59,1.27.65,1.98.06.71.1,1.08.12,1.11l4.84,37.99c.12.81.19,1.44.21,1.9.02.45-.08.96-.3,1.51s-.64,1.02-1.25,1.39-1.67.67-3.17.88c-2.54.34-4.19-.1-4.93-1.33-.5-.82-1.24-5.7-2.22-14.65l-20.54-10.89c-1.36-.71-2.21-1.33-2.54-1.88-.66-1.09-.41-2.73.77-4.94.74-1.38,1.43-2.27,2.08-2.66s1.25-.58,1.83-.55c.57.02,1.04.12,1.4.3.36.18,2.26,1.19,5.69,3.03,3.43,1.85,6.67,3.54,9.7,5.09-.16-.65-.52-3.3-1.08-7.97-.56-4.67-.85-7.15-.88-7.46-.03-.31,0-.72.06-1.22.09-.85.53-1.51,1.33-2,.8-.49,1.89-.82,3.26-1.01Z"/>
  </g>
</svg>