<?xml version="1.0" encoding="UTF-8"?>
<svg id="Layer_1" data-name="Layer 1" xmlns="http://www.w3.org/2000/svg" viewBox="0 0 1024 768">
  <defs>
    <style>
      .cls-1 {
        fill: #017b3b;
      }

      .cls-2 {
        fill: #063;
      }
    </style>
  </defs>
  <polygon class="cls-2" points="229.64 651.36 224.11 690.38 235.18 690.38 229.64 651.36"/>
  <polygon class="cls-1" points="240.71 657.29 235.18 696.31 246.24 696.31 240.71 657.29"/>
  <polygon class="cls-2" points="235.18 656.51 229.64 695.53 240.71 695.53 235.18 656.51"/>
  <polygon class="cls-2" points="279.96 638.03 274.43 677.05 285.49 677.05 279.96 638.03"/>
  <polygon class="cls-2" points="308.56 600.78 303.02 639.8 314.09 639.8 308.56 600.78"/>
  <polygon class="cls-2" points="16.39 645.33 10.86 670.93 21.92 670.93 16.39 645.33"/>
  <polygon class="cls-1" points="21.92 651.76 16.39 677.35 27.46 677.35 21.92 651.76"/>
  <polygon class="cls-2" points="221.84 654.97 216.31 693.99 227.37 693.99 221.84 654.97"/>
  <polygon class="cls-2" points="593.52 711.74 587.98 750.76 599.05 750.76 593.52 711.74"/>
  <polygon class="cls-2" points="472.64 698.16 467.11 737.18 478.17 737.18 472.64 698.16"/>
  <polygon class="cls-2" points="604.58 717.67 599.05 756.69 610.11 756.69 604.58 717.67"/>
  <polygon class="cls-1" points="599.05 716.89 593.52 755.91 604.58 755.91 599.05 716.89"/>
  <polygon class="cls-2" points="733.33 677.05 727.8 716.07 738.87 716.07 733.33 677.05"/>
  <polygon class="cls-2" points="658.31 647.26 652.78 686.28 663.85 686.28 658.31 647.26"/>
  <polygon class="cls-1" points="707.44 688.18 701.9 727.2 712.97 727.2 707.44 688.18"/>
  <polygon class="cls-1" points="733.33 618.53 727.8 657.54 738.87 657.54 733.33 618.53"/>
  <polygon class="cls-1" points="580.18 614.92 574.65 653.93 585.71 653.93 580.18 614.92"/>
  <polygon class="cls-2" points="719.89 705.26 714.36 744.28 725.43 744.28 719.89 705.26"/>
  <polygon class="cls-2" points="545.91 672.72 540.38 711.74 551.45 711.74 545.91 672.72"/>
  <polygon class="cls-1" points="915.77 698.16 910.24 737.18 921.3 737.18 915.77 698.16"/>
  <polygon class="cls-2" points="967.5 705.26 961.97 744.28 973.03 744.28 967.5 705.26"/>
  <polygon class="cls-2" points="940.81 744.28 935.28 783.3 946.34 783.3 940.81 744.28"/>
  <polygon class="cls-2" points="820.75 717.67 815.22 756.69 826.28 756.69 820.75 717.67"/>
  <polygon class="cls-1" points="585.71 715.35 580.18 754.37 591.24 754.37 585.71 715.35"/>
  <polygon class="cls-1" points="493.7 654.97 488.17 693.99 499.23 693.99 493.7 654.97"/>
  <polygon class="cls-1" points="376.47 695.84 370.94 734.86 382 734.86 376.47 695.84"/>
  <polygon class="cls-2" points="367.49 711.74 361.96 750.76 373.02 750.76 367.49 711.74"/>
  <polygon class="cls-2" points="134.67 692.23 129.13 731.25 140.2 731.25 134.67 692.23"/>
  <polygon class="cls-1" points="89.45 662.71 83.92 701.73 94.99 701.73 89.45 662.71"/>
  <polygon class="cls-1" points="203.39 707.69 197.86 746.7 208.92 746.7 203.39 707.69"/>
  <polygon class="cls-1" points="148.56 638.62 143.02 677.64 154.09 677.64 148.56 638.62"/>
  <polygon class="cls-2" points="389.44 685.75 383.91 724.77 394.98 724.77 389.44 685.75"/>
  <polygon class="cls-2" points="1022.37 634.42 1016.84 673.44 1027.9 673.44 1022.37 634.42"/>
  <polygon class="cls-2" points="1027.9 639.57 1022.37 678.59 1033.43 678.59 1027.9 639.57"/>
  <polygon class="cls-1" points="1014.57 638.03 1009.03 677.05 1020.1 677.05 1014.57 638.03"/>
  <polygon class="cls-1" points="811.87 639.59 806.33 678.61 817.4 678.61 811.87 639.59"/>
  <polygon class="cls-1" points="873.95 614.92 868.42 653.93 879.48 653.93 873.95 614.92"/>
  <polygon class="cls-2" points="822.93 645.52 817.4 684.54 828.46 684.54 822.93 645.52"/>
  <polygon class="cls-2" points="948.16 638.03 942.63 677.05 953.69 677.05 948.16 638.03"/>
  <polygon class="cls-2" points="817.4 644.74 811.87 683.76 822.93 683.76 817.4 644.74"/>
  <polygon class="cls-2" points="910.24 587.26 904.7 626.28 915.77 626.28 910.24 587.26"/>
  <polygon class="cls-2" points="804.06 643.2 798.53 682.22 809.59 682.22 804.06 643.2"/>
  <polygon class="cls-1" points="164 600.78 158.47 626.38 169.53 626.38 164 600.78"/>
  <polygon class="cls-2" points="68.87 604.18 63.34 643.2 74.4 643.2 68.87 604.18"/>
  <polygon class="cls-1" points="185.2 626.01 179.66 665.03 190.73 665.03 185.2 626.01"/>
  <polygon class="cls-1" points="367.49 647.26 361.96 686.28 373.02 686.28 367.49 647.26"/>
  <polygon class="cls-1" points="240.71 594.07 235.18 633.09 246.24 633.09 240.71 594.07"/>
</svg>