<?xml version="1.0" encoding="UTF-8"?><svg id="a" xmlns="http://www.w3.org/2000/svg" viewBox="0 0 1024 768"><defs><style>.b,.c,.d,.e{fill:none;}.b,.e{stroke:#f7941d;stroke-linejoin:round;}.f{fill:#fff200;}.g{fill:#ed1c24;}.h{fill:#7e8283;}.i{fill:#a7a9ac;}.j{fill:#dcdbdb;}.k{fill:#121212;}.l{fill:#22552b;}.m{fill:#2a3760;}.n{fill:#39b54a;}.c{stroke:#ed1c24;}.c,.d{stroke-miterlimit:10;}.d{stroke:#39b54a;}.e{stroke-width:.5px;}.o{fill:#f1c390;opacity:.39;}</style></defs><rect class="h" x="-92.26" y="-41.91" width="1223.67" height="847.15"/><rect class="k" x="0" y="48.99" width="1024" height="665.68" rx="11.4" ry="11.4"/><path class="j" d="M0,606.93H1024v96.33c0,6.29-5.11,11.4-11.4,11.4H11.4C5.11,714.67,0,709.56,0,703.27v-96.33H0Z"/><rect class="m" x="36.26" y="92.76" width="951.48" height="479.95"/><polygon class="i" points="280.58 946.09 512 946.09 512 714.67 407.34 714.67 280.58 946.09"/><polygon class="i" points="743.42 946.09 512 946.09 512 714.67 616.66 714.67 743.42 946.09"/><rect class="e" x="49.41" y="115.01" width="2.33" height="166.8"/><rect class="e" x="131.64" y="208.43" width="2.33" height="166.8" transform="translate(-159.02 424.64) rotate(-90)"/><rect class="n" x="64.15" y="228.98" width="15.13" height="51.21"/><rect class="n" x="86.45" y="213.52" width="15.13" height="66.67"/><rect class="n" x="108.76" y="172.05" width="15.13" height="108.14"/><rect class="n" x="131.06" y="147.09" width="15.13" height="132.87"/><rect class="f" x="153.37" y="181.03" width="15.13" height="98.93"/><rect class="f" x="175.67" y="206.58" width="15.13" height="73.37"/><rect class="g" x="197.98" y="254.59" width="15.13" height="25.37"/><rect class="l" x="125.24" y="256.9" width="15.13" height="166.8" rx="1.08" ry="1.08" transform="translate(473.11 207.49) rotate(90)"/><rect class="n" x="59.34" y="322.8" width="15.13" height="34.99" rx="1.08" ry="1.08" transform="translate(407.21 273.4) rotate(90)"/><rect class="l" x="125.24" y="280.88" width="15.13" height="166.8" rx="1.08" ry="1.08" transform="translate(497.09 231.47) rotate(90)"/><rect class="n" x="73.34" y="332.79" width="15.13" height="62.99" rx="1.08" ry="1.08" transform="translate(445.18 283.38) rotate(90)"/><rect class="l" x="125.24" y="304.86" width="15.13" height="166.8" rx="1.08" ry="1.08" transform="translate(521.07 255.45) rotate(90)"/><rect class="n" x="83.84" y="346.27" width="15.13" height="83.99" rx="1.08" ry="1.08" transform="translate(479.66 296.86) rotate(90)"/><rect class="l" x="124.86" y="328.84" width="15.13" height="166.8" rx="1.08" ry="1.08" transform="translate(544.67 279.81) rotate(90)"/><rect class="n" x="90.1" y="363.25" width="15.13" height="97.99" rx="1.08" ry="1.08" transform="translate(509.9 314.58) rotate(90)"/><rect class="l" x="125.04" y="352.82" width="15.13" height="166.8" rx="1.08" ry="1.08" transform="translate(568.83 303.61) rotate(90)"/><rect class="n" x="104.09" y="373.23" width="15.13" height="125.98" rx="1.08" ry="1.08" transform="translate(547.88 324.56) rotate(90)"/><rect class="l" x="125.51" y="376.8" width="15.13" height="166.8" rx="1.08" ry="1.08" transform="translate(593.28 327.12) rotate(90)"/><rect class="n" x="111.09" y="390.21" width="15.13" height="139.98" rx="1.08" ry="1.08" transform="translate(578.86 341.54) rotate(90)"/><rect class="l" x="125.37" y="400.78" width="15.13" height="166.8" rx="1.08" ry="1.08" transform="translate(617.11 351.24) rotate(90)"/><rect class="n" x="114.59" y="410.69" width="15.13" height="146.98" rx="1.08" ry="1.08" transform="translate(606.34 362.02) rotate(90)"/><rect class="l" x="124.86" y="424.76" width="15.13" height="166.8" rx="1.08" ry="1.08" transform="translate(640.59 375.73) rotate(90)"/><rect class="n" x="117.6" y="431.17" width="15.13" height="153.98" rx="1.08" ry="1.08" transform="translate(633.32 383) rotate(90)"/><rect class="l" x="125.29" y="448.74" width="15.13" height="166.8" rx="1.08" ry="1.08" transform="translate(664.99 399.28) rotate(90)"/><rect class="n" x="125.04" y="448.74" width="15.13" height="166.8" rx="1.08" ry="1.08" transform="translate(664.75 399.53) rotate(90)"/><rect class="b" x="802.04" y="134.69" width="78.36" height="237.15"/><rect class="b" x="894.4" y="134.69" width="78.36" height="237.15"/><rect class="n" x="812.7" y="157.19" width="57.05" height="7.4" rx=".5" ry=".5" transform="translate(-2.81 306.34) rotate(-20.6)"/><rect class="n" x="812.7" y="178.19" width="57.05" height="7.4" rx=".5" ry=".5" transform="translate(-10.2 307.68) rotate(-20.6)"/><rect class="n" x="812.7" y="199.19" width="57.05" height="7.4" rx=".5" ry=".5" transform="translate(-17.59 309.02) rotate(-20.6)"/><rect class="n" x="812.7" y="220.19" width="57.05" height="7.4" rx=".5" ry=".5" transform="translate(-24.98 310.37) rotate(-20.6)"/><rect class="f" x="812.7" y="241.18" width="57.05" height="7.4" rx=".5" ry=".5" transform="translate(-32.37 311.71) rotate(-20.6)"/><rect class="f" x="812.7" y="262.18" width="57.05" height="7.4" rx=".5" ry=".5" transform="translate(-39.76 313.05) rotate(-20.6)"/><rect class="f" x="812.7" y="283.18" width="57.05" height="7.4" rx=".5" ry=".5" transform="translate(-47.14 314.4) rotate(-20.6)"/><rect class="f" x="812.7" y="304.17" width="57.05" height="7.4" rx=".5" ry=".5" transform="translate(-54.53 315.74) rotate(-20.6)"/><rect class="g" x="812.7" y="325.17" width="57.05" height="7.4" rx=".5" ry=".5" transform="translate(-61.92 317.08) rotate(-20.6)"/><rect class="g" x="812.7" y="346.17" width="57.05" height="7.4" rx=".5" ry=".5" transform="translate(-69.31 318.43) rotate(-20.6)"/><rect class="g" x="904.36" y="332.17" width="25.99" height="19.01"/><rect class="g" x="938.1" y="332.17" width="25.99" height="19.01"/><rect class="g" x="904.36" y="306.17" width="25.99" height="19.01"/><rect class="f" x="938.1" y="306.17" width="25.99" height="19.01"/><rect class="n" x="904.1" y="280.68" width="25.99" height="19.01"/><rect class="f" x="937.85" y="280.68" width="25.99" height="19.01"/><rect class="n" x="904.1" y="254.67" width="25.99" height="19.01"/><rect class="g" x="937.85" y="254.67" width="25.99" height="19.01"/><rect class="f" x="904.23" y="228.67" width="25.99" height="19.01"/><rect class="g" x="937.98" y="228.67" width="25.99" height="19.01"/><rect class="f" x="904.23" y="202.67" width="25.99" height="19.01"/><rect class="n" x="937.98" y="202.67" width="25.99" height="19.01"/><rect class="n" x="903.97" y="177.18" width="25.99" height="19.01"/><rect class="g" x="937.72" y="177.18" width="25.99" height="19.01"/><rect class="g" x="904.1" y="151.68" width="25.99" height="19.01"/><rect class="f" x="937.85" y="151.68" width="25.99" height="19.01"/><circle class="g" cx="887.86" cy="468.45" r="12.99"/><circle class="d" cx="887.86" cy="468.45" r="51.59"/><circle class="d" cx="887.86" cy="468.45" r="79.71"/><rect class="o" x="245.2" y="365.87" width="533.82" height="5.12"/><rect class="o" x="199.22" y="333.27" width="400.21" height="5.12" transform="translate(735.16 -63.49) rotate(90)"/><rect class="o" x="78.84" y="333.19" width="400.21" height="5.12" transform="translate(614.7 56.81) rotate(90)"/><rect class="o" x="159.11" y="333.19" width="400.21" height="5.12" transform="translate(694.97 -23.45) rotate(90)"/><rect class="o" x="118.99" y="333.19" width="400.21" height="5.12" transform="translate(654.85 16.66) rotate(90)"/><rect class="o" x="279.49" y="333.27" width="400.21" height="5.12" transform="translate(815.42 -143.76) rotate(90)"/><rect class="o" x="239.37" y="333.27" width="400.21" height="5.12" transform="translate(775.31 -103.64) rotate(90)"/><rect class="o" x="319.61" y="333.12" width="400.21" height="5.12" transform="translate(855.39 -184.03) rotate(90)"/><rect class="o" x="399.87" y="333.12" width="400.21" height="5.12" transform="translate(935.65 -264.29) rotate(90)"/><rect class="o" x="359.75" y="333.12" width="400.21" height="5.12" transform="translate(895.53 -224.18) rotate(90)"/><rect class="o" x="245.09" y="486.25" width="533.82" height="5.12"/><rect class="o" x="245.09" y="405.99" width="533.82" height="5.12"/><rect class="o" x="245.09" y="446.1" width="533.82" height="5.12"/><rect class="o" x="245.2" y="285.6" width="533.82" height="5.12"/><rect class="o" x="245.2" y="325.72" width="533.82" height="5.12"/><rect class="o" x="244.99" y="245.49" width="533.82" height="5.12"/><rect class="o" x="244.99" y="165.22" width="533.82" height="5.12"/><rect class="o" x="244.99" y="205.34" width="533.82" height="5.12"/><rect class="o" x="439.99" y="332.99" width="400.21" height="5.12" transform="translate(975.64 -304.54) rotate(90)"/><rect class="o" x="480.1" y="332.83" width="400.21" height="5.12" transform="translate(1015.6 -344.82) rotate(90)"/><rect class="o" x="560.37" y="332.83" width="400.21" height="5.12" transform="translate(1095.86 -425.08) rotate(90)"/><rect class="o" x="520.25" y="332.83" width="400.21" height="5.12" transform="translate(1055.74 -384.96) rotate(90)"/><rect class="b" x="245.2" y="135.57" width="533.82" height="400.36" rx="3.01" ry="3.01"/><polyline class="c" points="278.95 488.81 399.33 288.17 479.59 368.43 519.71 207.9 599.97 248.05 640.09 167.79 720.35 488.81"/><circle class="n" cx="278.95" cy="488.81" r="13.36"/><circle class="n" cx="720.34" cy="488.09" r="13.36"/></svg>