<?xml version="1.0" encoding="UTF-8"?>
<svg id="Layer_3" data-name="Layer 3" xmlns="http://www.w3.org/2000/svg" viewBox="0 0 1547.34 1168.15">
  <defs>
    <style>
      .cls-1 {
        fill: #4da7de;
      }

      .cls-2 {
        fill: #fbfbfc;
      }

      .cls-3 {
        fill: #f9b233;
      }

      .cls-4 {
        fill: #95c11f;
      }

      .cls-5 {
        fill: #fff;
        font-family: FredokaOne-Regular, 'Fredoka One';
        font-size: 59.66px;
      }

      .cls-6 {
        fill: #348835;
      }

      .cls-7 {
        fill: #063;
      }
    </style>
  </defs>
  <ellipse class="cls-2" cx="763.45" cy="423.88" rx="19.79" ry="38.4"/>
  <ellipse class="cls-2" cx="801.85" cy="381.25" rx="38.4" ry="19.79"/>
  <ellipse class="cls-2" cx="725.04" cy="381.25" rx="38.4" ry="19.79"/>
  <ellipse class="cls-2" cx="763.45" cy="338.78" rx="19.79" ry="38.4"/>
  <ellipse class="cls-2" cx="794" cy="350.69" rx="38.4" ry="19.79" transform="translate(-15.42 664.16) rotate(-45)"/>
  <ellipse class="cls-2" cx="732.89" cy="411.8" rx="38.4" ry="19.79" transform="translate(-76.53 638.85) rotate(-45)"/>
  <ellipse class="cls-2" cx="794" cy="411.8" rx="19.79" ry="38.4" transform="translate(-58.63 682.06) rotate(-45)"/>
  <ellipse class="cls-2" cx="735.04" cy="350.69" rx="19.79" ry="38.4" transform="translate(-32.69 622.47) rotate(-45)"/>
  <circle class="cls-3" cx="763.45" cy="382.32" r="23.46"/>
  <path class="cls-7" d="m824.44,330.77c.37,3.11-.1,6.72-1.33,10.56-.81,2.54-1.95,5.18-3.39,7.86,27.31,6.94,45.3,18.78,45.3,32.22s-17.92,25.23-45.15,32.18c-10.94,2.79-23.39,4.79-36.77,5.8-2.76.21-5.56.38-8.4.49-2.84.12-5.71.2-8.62.23-.87,0-1.75,0-2.62,0-3.81,0-7.56-.08-11.25-.23-2.84-.12-5.64-.28-8.4-.49-13.39-1.01-25.83-3.01-36.78-5.8-27.22-6.94-45.14-18.77-45.14-32.18s18.82-25.82,47.19-32.69c-1.41-2.67-2.51-5.29-3.28-7.81-1.17-3.84-1.58-7.43-1.14-10.52-51.46,8.62-87.39,28.21-87.39,51.01s34.93,41.85,85.24,50.64c9.96,1.75,20.52,3.08,31.54,3.94,3.53.27,7.12.5,10.75.68,6.11.3,12.34.45,18.66.45,1.08,0,2.16,0,3.24-.02,5.21-.05,10.36-.19,15.41-.43,3.63-.18,7.21-.4,10.74-.69,11.01-.85,21.58-2.17,31.54-3.92,50.32-8.81,85.25-28.17,85.25-50.65s-34.91-41.84-85.2-50.64Z"/>
  <path class="cls-6" d="m823.11,341.33c-.81,2.54-1.95,5.18-3.39,7.86,27.31,6.94,45.3,18.78,45.3,32.22s-17.92,25.23-45.15,32.18c-10.94,2.79-23.39,4.79-36.77,5.8-2.76.21-5.56.38-8.4.49-2.84.12-5.71.2-8.62.23-.87,0-1.75,0-2.62,0-3.81,0-7.56-.08-11.25-.23-2.84-.12-5.64-.28-8.4-.49-13.39-1.01-25.83-3.01-36.78-5.8-27.22-6.94-45.14-18.77-45.14-32.18s18.82-25.82,47.19-32.69c-1.41-2.67-2.51-5.29-3.28-7.81-39.51,7.91-66.44,23.7-66.44,41.89s25.67,33.22,63.63,41.3c12.2,2.6,25.67,4.44,39.98,5.34.3.03.6.05.91.06,6.38.39,12.92.59,19.58.59.89,0,1.79,0,2.68-.02.18,0,.35,0,.53,0,5.55-.06,11.02-.24,16.37-.57.31,0,.61-.03.91-.06,14.3-.9,27.77-2.73,39.97-5.34,37.97-8.08,63.64-23.55,63.64-41.3s-26.03-33.44-64.44-41.47Z"/>
  <g>
    <path class="cls-1" d="m786.9,382.59c0,.34,0,.68-.02,1.01-.31,7.48-4.03,14.06-9.65,18.18-3.87,2.85-8.63,4.53-13.79,4.53s-10.38-1.85-14.34-4.96c-.59-.46-1.16-.95-1.7-1.46-4.56-4.33-7.41-10.48-7.41-17.31,0-2.78.47-5.45,1.34-7.92,2.66-7.6,9.04-13.42,16.93-15.22,1.27-.29,2.59-.48,3.93-.55.41-.02.83-.03,1.25-.03,2.2,0,4.32.31,6.34.88,4.27,1.21,8.06,3.61,10.97,6.83l-2.41.54-.5,1.42-1.6,1.52h-1l-1.8.51-.6.91-2,.71-1.9.71-1.2,1.82v1.32c0,.3.8,1.21.8,1.21l.86.71h0s.7,1.24.7,1.24c0,0,.35.73.5.81.15.08.87.15,1,.18.12.02.83-.56.83-.56l.32-1.14s.28-.88.38-.91c.1-.02,1.27.18,1.35.3.07.13,1.12.53,1.22.58.1.05,2.44-.1,2.44-.1,0,0,1.23-.36,1.36-.2.13.15,2.15.46,2.22.48.08.02,2,.25,2.08.24.07-.01,2.15-.26,2.15-.26,0,0,.41.37.72.66.15,1.09.23,2.2.23,3.34Z"/>
    <path class="cls-4" d="m757.45,365.6c.2.4.5,2.12.5,3.24s-.6,2.22-.9,2.53c-.3.31-2,1.45-2,1.45,0,0-2.7.27-2.75.07-.05-.2-2.35.1-2.65.4s-1.2,1.41-1.2,1.41v3.44l1.1,2.53,2.2.81,3,1.11,1.4,2.93-.6,5.06-3.8,5.66-.8,1.32-1.5,2.93-.35.88c-.59-.46-1.16-.95-1.7-1.46.19-.58.35-1.11.35-1.23,0-.3-.3-1.92-.4-2.43s-.4-1.92-.4-1.92c0,0-.7-1.82-.8-2.33-.1-.51-.4-1.72-.4-1.72,0,0-1.6-1.72-1.9-2.02-.3-.3-.7-1.92-.8-2.33-.1-.4,0-1.82,0-2.22s.9-1.11.9-1.11l2.7-1.32v-1.82c0-.3-.2-2.02-.3-2.33-.1-.3-.5-1.72-.5-1.72l-1.1-1.11-.9-.3-1.7.81-.83-.13c2.66-7.6,9.04-13.42,16.93-15.22l.18.43s-.5,1.08-1.1,3.2c-.6,2.12-.1,2.12.1,2.53Z"/>
    <path class="cls-4" d="m786.67,379.25c-.31-.29-.72-.66-.72-.66,0,0-2.08.25-2.15.26-.08.01-2-.21-2.08-.24-.08-.02-2.1-.33-2.22-.48-.12-.15-1.36.2-1.36.2,0,0-2.34.15-2.44.1-.1-.05-1.15-.45-1.22-.58-.08-.13-1.25-.33-1.35-.3-.1.03-.38.91-.38.91l-.32,1.14s-.7.58-.83.56c-.12-.02-.85-.1-1-.18-.15-.08-.5-.81-.5-.81l-.7-1.24h0s-.86-.71-.86-.71c0,0-.8-.91-.8-1.21v-1.32l1.2-1.82,1.9-.71,2-.71.6-.91,1.8-.51h1l1.6-1.52.5-1.42,2.41-.54c1.82,2.01,3.29,4.33,4.35,6.87.61,1.49,1.09,3.06,1.39,4.69h0c.07.37.13.74.18,1.11Z"/>
    <path class="cls-4" d="m786.88,383.6c-.31,7.48-4.03,14.06-9.65,18.18-.11-.5-.19-.9-.19-.9,0,0-.1-1.31-.1-1.62s.2-1.41.2-1.82.4-1.62.5-1.92-.1-1.21-.1-1.21l-.5-1.72s-.6-.91-.9-1.31-1.7-.71-1.7-.71h-3.1s-1.1-1.32-1.4-1.92c-.3-.61-.4-1.62-.5-1.92-.1-.3,0-1.42,0-1.72s1-1.41,1-1.41l1.7-.51h2.5l1.7.51h1.8l1.4-.51.9-.51h2.3l1.5,1.01h2.64Z"/>
    <path class="cls-4" d="m770,367.22c-.1.35,0,.66,0,.66h1.5l.5-.41.35-.76-.5-.4-.7-.76.3-.61.2-.71-.5-.45h-.75l-.2.51.05.71.1.83-.39.48s.14.56.04.91Z"/>
    <path class="cls-4" d="m768.75,364.99s.15.45,0,.61,0,.71,0,.71h.45l.21-.66v-.66h-.66Z"/>
    <path class="cls-4" d="m769.79,359.74c-.38.3-.74.65-.74.65,0,0-.84.66-1.29.96-.45.3-1.3-.15-1.45-.05-.15.1-2,0-2.35,0s-.5-1.31-.5-1.31l-.9-.25-.35-.84c.41-.02.83-.03,1.25-.03,2.2,0,4.32.31,6.34.88Z"/>
  </g>
  <text class="cls-5" transform="translate(692.04 309.56) rotate(-18.22)"><tspan x="0" y="0">P</tspan></text>
  <text class="cls-5" transform="translate(724.77 299.24) rotate(-9.51)"><tspan x="0" y="0">l</tspan></text>
  <text class="cls-5" transform="translate(740.78 295.75) rotate(-1.22)"><tspan x="0" y="0">a</tspan></text>
  <text class="cls-5" transform="translate(772.25 294.65) rotate(9.53)"><tspan x="0" y="0">n</tspan></text>
  <text class="cls-5" transform="translate(803.72 299.97) rotate(18.93)"><tspan x="0" y="0">t</tspan></text>
  <text class="cls-5" transform="translate(826.66 308.04) rotate(25.31)"><tspan x="0" y="0"> </tspan></text>
  <text class="cls-5" transform="translate(638.24 472.81) rotate(29.8)"><tspan x="0" y="0">O</tspan></text>
  <text class="cls-5" transform="translate(683.2 497.28) rotate(17.34)"><tspan x="0" y="0">d</tspan></text>
  <text class="cls-5" transform="translate(720.88 508.7) rotate(6.62)"><tspan x="0" y="0">y</tspan></text>
  <text class="cls-5" transform="translate(759.25 512.66) rotate(-2.77)"><tspan x="0" y="0">s</tspan></text>
  <text class="cls-5" transform="translate(791.86 510.82) rotate(-11.58)"><tspan x="0" y="0">s</tspan></text>
  <text class="cls-5" transform="translate(824.21 504.08) rotate(-21.23)"><tspan x="0" y="0">e</tspan></text>
  <text class="cls-5" transform="translate(858.12 490.77) rotate(-31.35)"><tspan x="0" y="0">y</tspan></text>
  <text class="cls-5" transform="translate(890.98 469.69) rotate(-39.06)"><tspan x="0" y="0"> </tspan></text>
</svg>