<?xml version="1.0" encoding="UTF-8"?>
<svg id="Layer_1" data-name="Layer 1" xmlns="http://www.w3.org/2000/svg" viewBox="0 0 768 1024">
  <defs>
    <style>
      .cls-1 {
        fill: #fff;
      }

      .cls-2 {
        fill: #063;
        stroke: #017b3b;
        stroke-miterlimit: 10;
        stroke-width: 2px;
      }
    </style>
  </defs>
  <circle class="cls-2" cx="371.51" cy="296.3" r="119.51"/>
  <g>
    <path class="cls-1" d="m335.39,248.28c.86,1.75,1.3,3.7,1.3,5.85s-.43,4.09-1.3,5.82c-.87,1.73-1.98,3.11-3.34,4.14-2.76,2.11-5.62,3.17-8.58,3.17h-6.23v5.6c0,.76-.02,1.33-.07,1.71-.05.38-.21.82-.47,1.31-.47.89-1.76,1.34-3.89,1.34-2.33,0-3.69-.61-4.09-1.83-.2-.56-.3-1.42-.3-2.58v-27.51c0-.76.03-1.33.08-1.71.05-.38.21-.82.47-1.31.47-.89,1.76-1.34,3.89-1.34h10.67c2.93,0,5.77,1.06,8.53,3.17,1.36,1.02,2.48,2.41,3.34,4.16Zm-8.93,9.12c.96-.73,1.45-1.82,1.45-3.27s-.48-2.55-1.45-3.3-1.96-1.12-2.99-1.12h-6.23v8.77h6.29c1,0,1.98-.36,2.94-1.09Z"/>
    <path class="cls-1" d="m339.93,243.23c0-.76.03-1.33.08-1.71.05-.38.19-.82.42-1.31.47-.89,1.76-1.34,3.89-1.34s3.29.45,3.79,1.34c.27.5.42.94.47,1.34.05.4.08.97.08,1.73v22.95c0,1.19.1,1.94.3,2.25.2.31.64.47,1.32.47s1.14.02,1.37.07c.23.05.52.19.85.42.67.43,1,1.6,1,3.52,0,2.08-.33,3.35-1,3.82-.87.59-2.93.69-6.18.3-2.56-.33-4.22-1.17-4.99-2.53-.93-1.62-1.4-4.2-1.4-7.73v-23.59Z"/>
    <path class="cls-1" d="m373.3,253.93c.2-1.85,1.51-2.78,3.94-2.78,1.3,0,2.26.1,2.89.3.63.2,1.07.54,1.32,1.04s.4.93.45,1.31c.05.38.08.95.08,1.71v17.35c0,.76-.02,1.33-.08,1.71-.05.38-.19.82-.42,1.31-.47.86-1.6,1.29-3.42,1.29s-3.03-.22-3.64-.67c-.62-.45-.97-1.1-1.07-1.96-1.23,1.75-3.29,2.63-6.16,2.63s-5.55-1.3-8-3.92c-2.46-2.61-3.69-5.64-3.69-9.09s1.24-6.48,3.72-9.07c2.48-2.59,5.2-3.89,8.16-3.89,1.13,0,2.16.2,3.09.59.93.4,1.58.77,1.95,1.12.37.35.66.69.9,1.02Zm-9.08,10.31c0,1.09.43,2.07,1.3,2.95.86.88,1.91,1.31,3.14,1.31s2.25-.45,3.07-1.34c.81-.89,1.22-1.87,1.22-2.95s-.39-2.07-1.17-3c-.78-.92-1.83-1.39-3.14-1.39s-2.38.46-3.19,1.39c-.81.93-1.22,1.93-1.22,3.02Z"/>
    <path class="cls-1" d="m400.59,251.16c3.32,0,6.09,1.26,8.3,3.79,2.21,2.53,3.32,5.61,3.32,9.24v8.72c0,.76-.02,1.33-.08,1.71-.05.38-.19.8-.42,1.26-.47.89-1.76,1.34-3.89,1.34-2.36,0-3.73-.61-4.09-1.83-.2-.56-.3-1.4-.3-2.53v-8.72c0-1.35-.39-2.41-1.17-3.17-.78-.76-1.83-1.14-3.14-1.14s-2.38.4-3.19,1.19c-.81.79-1.22,1.83-1.22,3.12v8.77c0,.76-.03,1.33-.08,1.71-.05.38-.21.8-.47,1.26-.43.89-1.71,1.34-3.84,1.34s-3.37-.45-3.84-1.34c-.23-.5-.37-.93-.42-1.31-.05-.38-.08-.95-.08-1.71v-17.54c0-.73.03-1.28.08-1.66.05-.38.21-.8.47-1.26.47-.83,1.75-1.24,3.84-1.24s3.27.38,3.74,1.14c.33.56.5,1.24.5,2.03.13-.23.43-.56.9-.99.47-.43.91-.78,1.35-1.04,1.13-.76,2.38-1.14,3.74-1.14Z"/>
    <path class="cls-1" d="m430.96,259.93l-3.24-.2v6.84c0,.89.14,1.54.42,1.93s.81.59,1.6.59,1.38.02,1.8.07c.42.05.86.21,1.32.47.76.43,1.15,1.54,1.15,3.32,0,2.08-.47,3.35-1.4,3.82-.5.23-.94.37-1.32.42-.38.05-.94.07-1.67.07-3.46,0-6.09-.78-7.88-2.33-1.8-1.55-2.69-4.18-2.69-7.88v-7.34c-.63.1-1.31.15-2.04.15s-1.34-.28-1.82-.84c-.48-.56-.72-1.52-.72-2.87s.08-2.34.25-2.95c.17-.61.4-1.05.7-1.31.53-.43,1.2-.64,2-.64l1.65.2v-5.11c0-.76.03-1.32.08-1.68.05-.36.21-.76.47-1.19.43-.83,1.71-1.24,3.84-1.24,2.26,0,3.61.61,4.04,1.83.17.53.25,1.37.25,2.53v4.86c1.46-.13,2.57-.2,3.32-.2s1.31.02,1.7.07c.38.05.82.21,1.32.47.86.43,1.3,1.7,1.3,3.82s-.45,3.35-1.35,3.82c-.5.23-.94.37-1.32.42-.38.05-.96.07-1.72.07Z"/>
    <path class="cls-1" d="m288.86,299.98c4.92,0,9.19,1.77,12.82,5.3,3.62,3.54,5.44,7.92,5.44,13.16s-1.73,9.7-5.19,13.38c-3.46,3.68-7.71,5.53-12.77,5.53s-9.35-1.82-12.89-5.45c-3.54-3.63-5.31-7.96-5.31-12.99,0-2.74.5-5.31,1.5-7.71,1-2.4,2.33-4.4,3.99-6.02,1.66-1.62,3.57-2.89,5.74-3.82,2.16-.92,4.39-1.39,6.68-1.39Zm-9.08,18.69c0,2.94.96,5.33,2.87,7.16,1.91,1.83,4.05,2.75,6.41,2.75s4.49-.89,6.38-2.68c1.9-1.78,2.84-4.18,2.84-7.19s-.96-5.42-2.87-7.24c-1.91-1.82-4.05-2.73-6.41-2.73s-4.49.92-6.38,2.75c-1.9,1.83-2.84,4.22-2.84,7.16Z"/>
    <path class="cls-1" d="m327.99,299.75c.25-.48.69-.82,1.32-1.02.63-.2,1.47-.3,2.52-.3s1.89.1,2.52.3c.63.2,1.07.55,1.32,1.04s.4.93.45,1.31c.05.38.08.95.08,1.71v29.59c0,.76-.03,1.33-.08,1.71-.05.38-.21.8-.47,1.26-.5.89-1.9,1.34-4.21,1.34s-3.6-.81-3.87-2.43c-1.4,1.59-3.34,2.38-5.84,2.38-2.99,0-5.72-1.3-8.18-3.89-2.46-2.59-3.69-5.62-3.69-9.07s1.24-6.48,3.72-9.09c2.48-2.61,5.2-3.92,8.16-3.92,2.46,0,4.37.83,5.74,2.48v-10.41c0-.76.02-1.33.07-1.71.05-.38.2-.81.45-1.29Zm-8.11,26.94c.86.89,1.91,1.34,3.14,1.34s2.25-.45,3.07-1.34c.81-.89,1.22-1.88,1.22-2.95s-.39-2.07-1.17-3c-.78-.92-1.84-1.39-3.17-1.39s-2.39.45-3.19,1.36c-.8.91-1.2,1.91-1.2,3s.43,2.08,1.3,2.97Z"/>
    <path class="cls-1" d="m364.12,310.93c1.96.86,2.94,1.9,2.94,3.12,0,.59-.13,1.16-.4,1.68-.27.53-.4.81-.4.84l-13.07,29.04c-.27.63-.49,1.11-.67,1.44-.18.33-.47.64-.87.94-.4.3-.9.45-1.5.45s-1.48-.25-2.64-.74c-1.96-.86-2.94-1.88-2.94-3.07,0-.79,1.6-4.58,4.79-11.35l-9.93-16.6c-.67-1.09-1-1.9-1-2.43,0-1.06.9-2.11,2.69-3.17,1.13-.66,2.01-.99,2.64-.99s1.15.13,1.55.4c.4.26.69.54.87.82.18.28,1.1,1.82,2.74,4.61,1.65,2.79,3.22,5.39,4.71,7.81.17-.53,1.06-2.57,2.69-6.12,1.63-3.55,2.5-5.44,2.62-5.67.12-.23.31-.51.57-.84.43-.56,1.04-.84,1.82-.84s1.7.23,2.77.69Z"/>
    <path class="cls-1" d="m369.01,334.42c-.63-.4-.95-1.02-.95-1.88s.63-2.16,1.9-3.92c.37-.56.95-.84,1.77-.84s1.92.4,3.32,1.21c1.4.81,2.66,1.21,3.79,1.21,2.03,0,3.04-.4,3.04-1.19,0-.63-1.11-1.09-3.34-1.39-2.09-.3-4.17-1.07-6.23-2.33-.96-.59-1.76-1.53-2.4-2.8-.63-1.27-.95-2.78-.95-4.54,0-5.22,3.61-7.83,10.82-7.83,2.36,0,4.79.56,7.28,1.69,1.16.53,1.75,1.19,1.75,1.98s-.37,1.77-1.1,2.92c-.73,1.16-1.48,1.73-2.24,1.73-.4,0-1.14-.25-2.22-.74s-2.25-.74-3.52-.74c-1.96,0-2.94.36-2.94,1.09,0,.99,1.13,1.64,3.39,1.93,2.19.23,4.32.86,6.38,1.88.96.46,1.77,1.26,2.42,2.4.65,1.14.97,2.57.97,4.29s-.32,3.18-.97,4.39c-.65,1.21-1.55,2.11-2.72,2.7-2.13,1.02-4.8,1.54-8.01,1.54s-6.29-.92-9.25-2.78Z"/>
    <path class="cls-1" d="m393.4,334.42c-.63-.4-.95-1.02-.95-1.88s.63-2.16,1.9-3.92c.37-.56.95-.84,1.77-.84s1.92.4,3.32,1.21c1.4.81,2.66,1.21,3.79,1.21,2.03,0,3.04-.4,3.04-1.19,0-.63-1.11-1.09-3.34-1.39-2.09-.3-4.17-1.07-6.23-2.33-.96-.59-1.76-1.53-2.39-2.8-.63-1.27-.95-2.78-.95-4.54,0-5.22,3.61-7.83,10.82-7.83,2.36,0,4.79.56,7.28,1.69,1.16.53,1.75,1.19,1.75,1.98s-.37,1.77-1.1,2.92c-.73,1.16-1.48,1.73-2.24,1.73-.4,0-1.14-.25-2.22-.74s-2.25-.74-3.52-.74c-1.96,0-2.94.36-2.94,1.09,0,.99,1.13,1.64,3.39,1.93,2.19.23,4.32.86,6.38,1.88.96.46,1.77,1.26,2.42,2.4.65,1.14.97,2.57.97,4.29s-.32,3.18-.97,4.39c-.65,1.21-1.55,2.11-2.72,2.7-2.13,1.02-4.8,1.54-8.01,1.54s-6.29-.92-9.25-2.78Z"/>
    <path class="cls-1" d="m442.93,320.57c0,2.03-.51,3.54-1.52,4.51-1.02.97-2.14,1.46-3.37,1.46h-11.82c0,.93.55,1.7,1.65,2.33,1.1.63,2.19.94,3.29.94,1.93,0,3.44-.2,4.54-.59l.55-.2c.8-.36,1.46-.55,2-.55,1.06,0,1.98.74,2.74,2.23.43.89.65,1.65.65,2.28,0,2.94-3.54,4.41-10.62,4.41-2.46,0-4.65-.42-6.56-1.26-1.91-.84-3.4-1.96-4.46-3.35-2.1-2.68-3.14-5.67-3.14-8.97,0-4.16,1.35-7.49,4.07-9.99,2.71-2.49,6.09-3.74,10.15-3.74,4.62,0,8.01,1.62,10.18,4.86,1.13,1.72,1.7,3.59,1.7,5.63Zm-10.53,1.46c1.26,0,1.9-.53,1.9-1.59,0-.76-.29-1.37-.87-1.83-.58-.46-1.41-.69-2.49-.69s-2.15.44-3.22,1.31c-1.06.88-1.6,1.81-1.6,2.8h6.28Z"/>
    <path class="cls-1" d="m469.12,310.93c1.96.86,2.94,1.9,2.94,3.12,0,.59-.13,1.16-.4,1.68-.27.53-.4.81-.4.84l-13.07,29.04c-.27.63-.49,1.11-.67,1.44-.18.33-.47.64-.87.94-.4.3-.9.45-1.5.45s-1.48-.25-2.64-.74c-1.96-.86-2.94-1.88-2.94-3.07,0-.79,1.6-4.58,4.79-11.35l-9.93-16.6c-.67-1.09-1-1.9-1-2.43,0-1.06.9-2.11,2.69-3.17,1.13-.66,2.01-.99,2.64-.99s1.15.13,1.55.4c.4.26.69.54.87.82.18.28,1.1,1.82,2.74,4.61,1.65,2.79,3.22,5.39,4.71,7.81.17-.53,1.06-2.57,2.69-6.12,1.63-3.55,2.5-5.44,2.62-5.67.12-.23.31-.51.57-.84.43-.56,1.04-.84,1.82-.84s1.7.23,2.77.69Z"/>
  </g>
</svg>