<?xml version="1.0" encoding="UTF-8"?>
<svg id="Layer_1" data-name="Layer 1" xmlns="http://www.w3.org/2000/svg" viewBox="0 0 768 1024">
  <defs>
    <style>
      .cls-1 {
        fill: #fff;
      }

      .cls-2 {
        fill: #348835;
      }

      .cls-3 {
        fill: #017b3b;
        stroke: #063;
      }

      .cls-3, .cls-4 {
        stroke-miterlimit: 10;
        stroke-width: 2px;
      }

      .cls-4 {
        fill: #063;
        stroke: #017b3b;
      }
    </style>
  </defs>
  <g>
    <path class="cls-3" d="m385.5,422.34s-44.01,30.38-104.79-25.71c-60.78-56.09-37.84-95.97-37.84-95.97,0,0,35.43,23.29,80.93,26.49,45.51,3.2,66.69,48.54,66.69,48.54,0,0,7.35,21.22-4.99,46.64Z"/>
    <path class="cls-2" d="m384.6,422.16c-3.51-4.59-8.06-8.17-12.93-11.22-5.49-3.44-11.32-6.38-17.12-9.27-12.17-6.05-24.63-11.5-36.83-17.48-22.31-10.94-44.57-24.18-59.55-44.53-7.78-10.57-13.39-22.8-15.18-35.87-.04-.32-.53-.18-.48.13,3.23,23.62,18.5,43.55,36.89,57.85,20.65,16.07,45.07,25.97,68.48,37.19,6.73,3.23,13.44,6.55,19.93,10.25,6.12,3.49,12.04,7.54,16.36,13.19.19.25.63,0,.43-.25h0Z"/>
    <path class="cls-2" d="m298.87,323.24c-5.81,4.43-6.51,12.67-6.3,19.39.13,4.14.47,8.26.07,12.39-.36,3.81-1.41,9.37-5.05,11.46-.28.16-.03.59.25.43,2.95-1.69,4.23-5.69,4.86-8.83.76-3.81.71-7.74.53-11.6-.35-7.57-.91-17.62,5.88-22.8.25-.19,0-.63-.25-.43h0Z"/>
    <path class="cls-2" d="m352.64,335.69c-5.7,5.21-12.48,9.35-17.2,15.56-5.1,6.71-6.46,14.97-7.13,23.16-.41,4.98-.96,10.1.11,15.03.07.31.55.18.48-.13-.94-4.34-.56-8.78-.23-13.16s.7-8.49,1.68-12.63,2.48-7.73,4.82-11.07c2.22-3.17,5.07-5.82,8.02-8.29,3.26-2.72,6.67-5.26,9.8-8.12.24-.22-.12-.57-.35-.35h0Z"/>
    <path class="cls-2" d="m327.97,389.88c-5.81.85-10.67,4.98-13.2,10.18-1.3,2.68-2.01,5.6-2.3,8.55-.37,3.73.27,7.46.21,11.19,0,.32.5.32.5,0,.05-3.31-.49-6.63-.31-9.94.17-3.14.85-6.31,2.16-9.17,2.41-5.28,7.24-9.48,13.07-10.33.32-.05.18-.53-.13-.48h0Z"/>
    <path class="cls-2" d="m257.04,370.35c3.78-4.27,9.49-6.13,15.05-5.09,2.62.49,5.17,1.26,7.82,1.64,1.29.19,2.59.31,3.89.37,1.19.06,2.43-.08,3.61.05.32.03.32-.47,0-.5-1.26-.14-2.58,0-3.85-.06-1.65-.09-3.3-.28-4.93-.57-2.77-.5-5.47-1.43-8.28-1.69-5.1-.47-10.26,1.66-13.66,5.49-.21.24.14.59.35.35h0Z"/>
  </g>
  <g>
    <path class="cls-3" d="m379.77,426.05s-52.83,8.3-83.29-68.59c-30.47-76.89,7.5-102.88,7.5-102.88,0,0,21.83,36.35,61.45,58.96,39.62,22.61,39.06,72.65,39.06,72.65,0,0-2.57,22.31-24.72,39.86Z"/>
    <path class="cls-2" d="m379.03,425.45c-1.2-5.76-3.84-11.05-6.98-15.98-3.33-5.21-7.1-10.16-10.89-15.04-7.92-10.21-16.32-20.04-24.37-30.15-15.33-19.28-29.83-40.37-35.28-64.78-3.09-13.84-3.16-28.45,1.22-42.02.1-.31-.38-.44-.48-.13-7.68,23.8-1.7,49.47,9.64,71.04s28.86,41.21,44.54,60.83c4.63,5.79,9.21,11.66,13.39,17.79,3.89,5.69,7.32,11.78,8.73,18.58.07.31.55.18.48-.13h0Z"/>
    <path class="cls-2" d="m344.61,299.2c-7.43,1.53-11.61,9.14-14.37,15.5-1.6,3.69-3.09,7.42-5.23,10.85-1.95,3.13-5.23,7.43-9.24,7.72-.32.02-.32.52,0,.5,3.32-.24,6.14-3.14,8.05-5.63,2.39-3.1,4.08-6.69,5.6-10.28,3.01-7.08,6.83-16.44,15.31-18.19.31-.06.18-.55-.13-.48h0Z"/>
    <path class="cls-2" d="m387.74,333.71c-7.84,2.36-16.35,3.12-23.56,7.27s-11.49,10.74-15.46,17.57c-2.42,4.16-5,8.36-6.13,13.09-.07.31.41.45.48.13,1.01-4.24,3.21-8,5.36-11.74,1.92-3.34,3.89-6.66,6.22-9.74,2.48-3.27,5.39-6.16,8.88-8.35s7.29-3.46,11.19-4.48c4.36-1.15,8.81-1.97,13.13-3.27.31-.09.18-.58-.13-.48h0Z"/>
    <path class="cls-2" d="m342.02,371.86c-5.85-1.82-12.22-.02-16.83,3.86-2.23,1.87-4.05,4.2-5.53,6.7-1.82,3.08-2.81,6.57-4.41,9.75-.14.29.29.54.43.25,1.42-2.84,2.35-5.91,3.82-8.73,1.32-2.53,3.07-4.89,5.15-6.85,4.54-4.28,11.14-6.41,17.22-4.52.31.1.44-.39.13-.48h0Z"/>
    <path class="cls-2" d="m286.59,323.49c5.25-2.22,11.24-1.36,15.78,1.99,2.11,1.56,4.05,3.33,6.23,4.8,1.1.74,2.24,1.43,3.41,2.06,1.04.56,2.2.97,3.2,1.6.27.17.53-.26.25-.43-1.06-.66-2.29-1.1-3.4-1.7-1.29-.71-2.55-1.49-3.76-2.33-2.44-1.7-4.57-3.84-7.11-5.39-4.43-2.7-10.08-3.05-14.86-1.03-.3.13-.04.56.25.43h0Z"/>
  </g>
  <g>
    <path class="cls-3" d="m379.54,426.09s-52.36-10.85-53.77-93.55c-1.4-82.7,43.29-93.63,43.29-93.63,0,0,7.62,41.71,36.72,76.84,29.11,35.13,10.94,81.75,10.94,81.75,0,0-10.27,19.97-37.18,28.59Z"/>
    <path class="cls-2" d="m379.06,425.31c.96-6.17.24-12.39-1.11-18.44s-3.26-12.44-5.18-18.57c-3.94-12.58-8.44-24.97-12.42-37.54-7.58-23.95-13.42-49.5-8.78-74.64,2.33-12.63,7.25-24.83,15.29-34.92.2-.25-.15-.61-.35-.35-14.52,18.22-18.6,42.35-16.57,65.07,2.34,26.17,12.01,50.83,20.13,75.59,2.31,7.05,4.53,14.14,6.39,21.33s3.29,14.83,2.11,22.35c-.05.31.43.45.48.13h0Z"/>
    <path class="cls-2" d="m391.4,295c-7.45-1.16-13.96,4.3-18.79,9.26-2.71,2.79-5.32,5.66-8.37,8.09s-7.81,5.53-11.9,4.36c-.31-.09-.44.39-.13.48,3.36.96,7.19-.93,9.95-2.72,3.12-2.02,5.82-4.64,8.37-7.31,5.32-5.56,12.18-13.01,20.73-11.67.31.05.45-.43.13-.48h0Z"/>
    <path class="cls-2" d="m419.53,342.49c-8.62-.59-17.35-3.09-25.98-1.23-7.71,1.66-14.04,6.44-20.03,11.35-3.48,2.86-7.05,5.71-9.6,9.48-.18.27.25.52.43.25,2.24-3.32,5.3-5.91,8.37-8.44s6.13-5.04,9.47-7.19,6.68-3.81,10.41-4.72c4.2-1.02,8.47-1.04,12.75-.64,4.73.45,9.42,1.32,14.17,1.64.32.02.32-.48,0-.5h0Z"/>
    <path class="cls-2" d="m363.35,362.1c-4.77-3.73-11.28-4.36-16.93-2.42-2.81.97-5.39,2.52-7.71,4.37-2.81,2.25-4.98,5.18-7.62,7.62-.24.22.12.57.35.35,2.28-2.11,4.2-4.57,6.49-6.67s4.97-3.79,7.83-4.91c5.63-2.21,12.37-1.79,17.23,2,.25.2.61-.16.35-.35h0Z"/>
    <path class="cls-2" d="m328.46,297.27c5.62-.23,10.91,2.58,13.98,7.23,1.46,2.22,2.65,4.6,4.19,6.77.72,1.02,1.5,2.02,2.31,2.97s1.86,1.84,2.64,2.86c.19.25.63,0,.43-.25-.73-.94-1.67-1.75-2.45-2.65-1.07-1.22-2.06-2.52-2.97-3.86-1.6-2.37-2.81-5.01-4.56-7.28-3.18-4.13-8.36-6.51-13.57-6.3-.32.01-.32.51,0,.5h0Z"/>
  </g>
  <g>
    <path class="cls-3" d="m375.47,426.51s-43.22-31.49-10.39-107.4c32.84-75.91,78.06-67.44,78.06-67.44,0,0-10.27,41.14,1.76,85.14,12.02,44-23.76,78.99-23.76,78.99,0,0-17.6,13.95-45.67,10.71Z"/>
    <path class="cls-2" d="m375.37,425.56c3.31-5.04,5.19-10.8,6.46-16.66,1.36-6.27,2.2-12.67,2.99-19.03,1.7-13.68,2.72-27.43,4.39-41.12,3.02-24.76,8.41-50.19,23.02-70.93,7.28-10.33,16.7-19.21,27.99-24.99.29-.15.03-.58-.25-.43-20.31,10.39-33.88,30.16-41.46,51.19-9.1,25.25-10.43,52.3-13.32,78.74-.85,7.77-1.79,15.55-3.21,23.23-1.28,6.91-3.15,13.81-7.05,19.74-.18.27.26.52.43.25h0Z"/>
    <path class="cls-2" d="m440.32,311.96c-6.14-4.04-14.23-1.88-20.53.56-3.76,1.46-7.44,3.08-11.37,4.07-2.04.51-4.13.85-6.24.83s-4.65-.29-6.35-1.76c-.24-.21-.6.14-.35.35,2.56,2.22,6.7,2.12,9.86,1.69,4.01-.55,7.83-1.98,11.56-3.49,6.99-2.82,16.11-6.46,23.17-1.82.27.18.52-.26.25-.43h0Z"/>
    <path class="cls-2" d="m446.41,366.86c-6.81-3.66-12.98-8.71-20.42-11.11-8.48-2.74-17.18-.94-25.54,1.29-4.39,1.17-8.87,2.3-12.78,4.71-.27.17-.02.6.25.43,3.41-2.1,7.27-3.2,11.1-4.24,4.26-1.15,8.55-2.3,12.95-2.84s8.55-.38,12.71.77c3.7,1.02,7.13,2.81,10.42,4.76,3.7,2.2,7.27,4.62,11.06,6.66.28.15.54-.28.25-.43h0Z"/>
    <path class="cls-2" d="m387.09,361.5c-2.63-5.03-7.87-8.24-13.42-9.03-3.3-.47-6.67-.13-9.89.7-3.45.89-6.61,2.65-9.98,3.77-.3.1-.17.58.13.48,3.02-1,5.84-2.51,8.88-3.46s6.45-1.41,9.69-1.13c5.81.5,11.42,3.66,14.16,8.91.15.29.58.03.43-.25h0Z"/>
    <path class="cls-2" d="m382.11,288.1c5.1,2.09,8.75,6.7,9.68,12.1.46,2.65.54,5.34,1.03,7.98.25,1.36.58,2.7.97,4.03.35,1.18.89,2.33,1.17,3.52.07.31.56.18.48-.13-.3-1.26-.88-2.49-1.24-3.74-.43-1.48-.77-2.97-1.03-4.49-.51-3.01-.47-6.14-1.31-9.09-1.37-4.81-5-8.77-9.63-10.66-.3-.12-.43.36-.13.48h0Z"/>
  </g>
  <g>
    <path class="cls-3" d="m387.3,423.21s-33.04-42.05,19.2-106.18c52.23-64.13,93.45-43.68,93.45-43.68,0,0-21.06,36.8-21.45,82.41-.39,45.62-44.34,69.55-44.34,69.55,0,0-20.73,8.64-46.86-2.11Z"/>
    <path class="cls-2" d="m387.47,422.27c4.45-3.86,7.78-8.76,10.55-13.92,3.03-5.64,5.57-11.55,8.06-17.44,5.33-12.63,10.04-25.51,15.32-38.16,9.53-22.86,21.41-45.74,40.75-61.86,10.02-8.35,21.83-14.64,34.68-17.22.32-.06.18-.55-.13-.48-23.1,4.62-41.9,20.77-55.02,39.7-15.03,21.7-23.49,46.95-33.33,71.21-2.87,7.08-5.83,14.15-9.23,20.99-3.08,6.21-6.73,12.23-12.01,16.81-.24.21.11.56.35.35h0Z"/>
    <path class="cls-2" d="m480.84,330.6c-4.81-5.56-13.22-5.67-19.93-5.03-4.11.39-8.2.97-12.34.81-3.76-.15-9.27-.87-11.54-4.31-.18-.27-.61-.02-.43.25,1.87,2.85,5.93,3.88,9.11,4.31,3.93.53,7.93.22,11.86-.21,7.52-.82,17.37-1.89,22.93,4.53.21.24.56-.11.35-.35h0Z"/>
    <path class="cls-2" d="m471.78,385.08c-5.55-5.37-10.11-11.88-16.59-16.21-7-4.68-15.34-5.53-23.56-5.7-5-.1-10.14-.34-15,1.03-.31.09-.18.57.13.48,4.27-1.21,8.73-1.1,13.12-1.04s8.52.17,12.71.9,7.86,2,11.34,4.13c3.3,2.02,6.12,4.69,8.77,7.49,2.92,3.08,5.66,6.33,8.71,9.28.23.22.59-.13.35-.35h0Z"/>
    <path class="cls-2" d="m416.16,363.8c-1.18-5.65-5.47-10.2-10.7-12.44-2.88-1.23-6-1.8-9.11-1.9-3.69-.12-7.32.74-10.99.91-.32.01-.32.51,0,.5,3.31-.15,6.59-.91,9.91-.92,3.06-.02,6.15.43,9.03,1.49,5.53,2.04,10.15,6.63,11.38,12.5.07.31.55.18.48-.13h0Z"/>
    <path class="cls-2" d="m431.27,291.78c4.36,3.41,6.65,8.83,6.07,14.32-.28,2.65-.93,5.23-1.17,7.89-.13,1.43-.19,2.87-.17,4.31.02,1.2.23,2.42.17,3.61-.01.32.49.32.5,0,.06-1.27-.16-2.57-.17-3.85-.01-1.52.06-3.04.22-4.55.31-2.93,1.14-5.82,1.22-8.78.15-5.12-2.28-10.14-6.31-13.3-.25-.2-.61.16-.35.35h0Z"/>
  </g>
  <g>
    <path class="cls-3" d="m385.67,403.83s-10.49-52.44,65.07-86.07c75.56-33.64,103.1,3.22,103.1,3.22,0,0-35.41,23.32-56.35,63.85-20.94,40.53-70.96,42.04-70.96,42.04,0,0-22.4-1.65-40.86-23.04Z"/>
    <path class="cls-2" d="m386.23,403.07c5.78-1.45,11.01-4.36,15.86-7.76s9.73-7.43,14.4-11.37c10-8.44,19.57-17.36,29.47-25.91,18.6-16.07,39.09-31.37,63.23-37.73,13.61-3.58,28.07-4.23,41.7-.45.31.09.44-.4.13-.48-23.95-6.64-49.2.27-70.2,12.35-22.04,12.68-40.25,30.67-59.31,47.24-5.6,4.87-11.27,9.69-17.22,14.12-5.52,4.12-11.46,7.8-18.2,9.5-.31.08-.18.56.13.48h0Z"/>
    <path class="cls-2" d="m510.95,363.44c-1.81-7.23-9.36-11.1-15.72-13.58-3.87-1.51-7.79-2.85-11.41-4.91-3.2-1.82-7.65-4.91-8.11-8.9-.04-.32-.54-.32-.5,0,.38,3.31,3.38,6,5.95,7.82,3.08,2.18,6.62,3.7,10.13,5.04,7.28,2.76,17.04,6.13,19.18,14.67.08.31.56.18.48-.13h0Z"/>
    <path class="cls-2" d="m478.26,407.96c-2.66-7.69-3.78-16.09-8.15-23.09-4.27-6.84-11.13-11.08-18.1-14.77-4.31-2.28-8.68-4.73-13.51-5.67-.31-.06-.45.42-.13.48,4.34.84,8.25,2.93,12.13,4.96,3.41,1.78,6.81,3.62,9.97,5.83,3.37,2.36,6.35,5.16,8.66,8.57s3.68,7.05,4.84,10.84c1.33,4.31,2.33,8.72,3.81,12.98.1.3.59.17.48-.13h0Z"/>
    <path class="cls-2" d="m438.23,363.87c1.58-5.92-.48-12.21-4.55-16.65-1.97-2.15-4.37-3.88-6.93-5.25-3.15-1.69-6.68-2.53-9.93-4-.29-.13-.55.3-.25.43,2.9,1.3,6.01,2.1,8.88,3.46,2.58,1.22,5.02,2.87,7.06,4.86,4.46,4.36,6.88,10.86,5.24,17.01-.08.31.4.44.48.13h0Z"/>
    <path class="cls-2" d="m484.26,306.46c2.48,5.24,1.79,11.3-1.44,16.03-1.44,2.11-3.08,4.07-4.42,6.25-.7,1.13-1.34,2.3-1.92,3.49-.52,1.06-.88,2.24-1.46,3.26-.16.28.27.53.43.25.62-1.09,1-2.33,1.56-3.46.65-1.32,1.38-2.61,2.17-3.86,1.56-2.45,3.54-4.62,4.99-7.14,2.61-4.57,2.78-10.32.52-15.08-.14-.29-.57-.04-.43.25h0Z"/>
  </g>
  <ellipse class="cls-4" cx="379.27" cy="410.87" rx="54.41" ry="29.03"/>
  <g>
    <path class="cls-1" d="m349.09,302.67c.86,1.75,1.3,3.7,1.3,5.85s-.43,4.09-1.3,5.82c-.87,1.73-1.98,3.11-3.34,4.14-2.76,2.11-5.62,3.17-8.58,3.17h-6.23v5.6c0,.76-.02,1.33-.07,1.71-.05.38-.21.82-.47,1.31-.47.89-1.76,1.34-3.89,1.34-2.33,0-3.69-.61-4.09-1.83-.2-.56-.3-1.42-.3-2.58v-27.51c0-.76.03-1.33.08-1.71.05-.38.21-.82.47-1.31.47-.89,1.76-1.34,3.89-1.34h10.67c2.93,0,5.77,1.06,8.53,3.17,1.36,1.02,2.48,2.41,3.34,4.16Zm-8.93,9.12c.96-.73,1.45-1.82,1.45-3.27s-.48-2.55-1.45-3.3-1.96-1.12-2.99-1.12h-6.23v8.77h6.29c1,0,1.98-.36,2.94-1.09Z"/>
    <path class="cls-1" d="m353.62,297.61c0-.76.03-1.33.08-1.71.05-.38.19-.82.42-1.31.47-.89,1.76-1.34,3.89-1.34s3.29.45,3.79,1.34c.27.5.42.94.47,1.34.05.4.08.97.08,1.73v22.95c0,1.19.1,1.94.3,2.25.2.31.64.47,1.32.47s1.14.02,1.37.07c.23.05.52.19.85.42.67.43,1,1.6,1,3.52,0,2.08-.33,3.35-1,3.82-.87.59-2.93.69-6.18.3-2.56-.33-4.22-1.17-4.99-2.53-.93-1.62-1.4-4.2-1.4-7.73v-23.59Z"/>
    <path class="cls-1" d="m386.99,308.32c.2-1.85,1.51-2.78,3.94-2.78,1.3,0,2.26.1,2.89.3.63.2,1.07.54,1.32,1.04s.4.93.45,1.31c.05.38.08.95.08,1.71v17.35c0,.76-.02,1.33-.08,1.71-.05.38-.19.82-.42,1.31-.47.86-1.6,1.29-3.42,1.29s-3.03-.22-3.64-.67c-.62-.45-.97-1.1-1.07-1.96-1.23,1.75-3.29,2.63-6.16,2.63s-5.55-1.3-8-3.92c-2.46-2.61-3.69-5.64-3.69-9.09s1.24-6.48,3.72-9.07c2.48-2.59,5.2-3.89,8.16-3.89,1.13,0,2.16.2,3.09.59.93.4,1.58.77,1.95,1.12.37.35.66.69.9,1.02Zm-9.08,10.31c0,1.09.43,2.07,1.3,2.95.86.88,1.91,1.31,3.14,1.31s2.25-.45,3.07-1.34c.81-.89,1.22-1.87,1.22-2.95s-.39-2.07-1.17-3c-.78-.92-1.83-1.39-3.14-1.39s-2.38.46-3.19,1.39c-.81.93-1.22,1.93-1.22,3.02Z"/>
    <path class="cls-1" d="m414.28,305.54c3.32,0,6.09,1.26,8.3,3.79,2.21,2.53,3.32,5.61,3.32,9.24v8.72c0,.76-.02,1.33-.08,1.71-.05.38-.19.8-.42,1.26-.47.89-1.76,1.34-3.89,1.34-2.36,0-3.73-.61-4.09-1.83-.2-.56-.3-1.4-.3-2.53v-8.72c0-1.35-.39-2.41-1.17-3.17-.78-.76-1.83-1.14-3.14-1.14s-2.38.4-3.19,1.19c-.81.79-1.22,1.83-1.22,3.12v8.77c0,.76-.03,1.33-.08,1.71-.05.38-.21.8-.47,1.26-.43.89-1.71,1.34-3.84,1.34s-3.37-.45-3.84-1.34c-.23-.5-.37-.93-.42-1.31-.05-.38-.08-.95-.08-1.71v-17.54c0-.73.03-1.28.08-1.66.05-.38.21-.8.47-1.26.47-.83,1.75-1.24,3.84-1.24s3.27.38,3.74,1.14c.33.56.5,1.24.5,2.03.13-.23.43-.56.9-.99.47-.43.91-.78,1.35-1.04,1.13-.76,2.38-1.14,3.74-1.14Z"/>
    <path class="cls-1" d="m444.65,314.31l-3.24-.2v6.84c0,.89.14,1.54.42,1.93s.81.59,1.6.59,1.38.02,1.8.07c.42.05.86.21,1.32.47.76.43,1.15,1.54,1.15,3.32,0,2.08-.47,3.35-1.4,3.82-.5.23-.94.37-1.32.42-.38.05-.94.07-1.67.07-3.46,0-6.09-.78-7.88-2.33-1.8-1.55-2.69-4.18-2.69-7.88v-7.34c-.63.1-1.31.15-2.04.15s-1.34-.28-1.82-.84c-.48-.56-.72-1.52-.72-2.87s.08-2.34.25-2.95c.17-.61.4-1.05.7-1.31.53-.43,1.2-.64,2-.64l1.65.2v-5.11c0-.76.03-1.32.08-1.68.05-.36.21-.76.47-1.19.43-.83,1.71-1.24,3.84-1.24,2.26,0,3.61.61,4.04,1.83.17.53.25,1.37.25,2.53v4.86c1.46-.13,2.57-.2,3.32-.2s1.31.02,1.7.07c.38.05.82.21,1.32.47.86.43,1.3,1.7,1.3,3.82s-.45,3.35-1.35,3.82c-.5.23-.94.37-1.32.42-.38.05-.96.07-1.72.07Z"/>
    <path class="cls-1" d="m302.55,354.36c4.92,0,9.19,1.77,12.82,5.3,3.62,3.54,5.44,7.92,5.44,13.16s-1.73,9.7-5.19,13.38c-3.46,3.68-7.71,5.53-12.77,5.53s-9.35-1.82-12.89-5.45c-3.54-3.63-5.31-7.96-5.31-12.99,0-2.74.5-5.31,1.5-7.71,1-2.4,2.33-4.4,3.99-6.02,1.66-1.62,3.57-2.89,5.74-3.82,2.16-.92,4.39-1.39,6.68-1.39Zm-9.08,18.69c0,2.94.96,5.33,2.87,7.16,1.91,1.83,4.05,2.75,6.41,2.75s4.49-.89,6.38-2.68c1.9-1.78,2.84-4.18,2.84-7.19s-.96-5.42-2.87-7.24c-1.91-1.82-4.05-2.73-6.41-2.73s-4.49.92-6.38,2.75c-1.9,1.83-2.84,4.22-2.84,7.16Z"/>
    <path class="cls-1" d="m341.68,354.14c.25-.48.69-.82,1.32-1.02.63-.2,1.47-.3,2.52-.3s1.89.1,2.52.3c.63.2,1.07.55,1.32,1.04s.4.93.45,1.31c.05.38.08.95.08,1.71v29.59c0,.76-.03,1.33-.08,1.71-.05.38-.21.8-.47,1.26-.5.89-1.9,1.34-4.21,1.34s-3.6-.81-3.87-2.43c-1.4,1.59-3.34,2.38-5.84,2.38-2.99,0-5.72-1.3-8.18-3.89-2.46-2.59-3.69-5.62-3.69-9.07s1.24-6.48,3.72-9.09c2.48-2.61,5.2-3.92,8.16-3.92,2.46,0,4.37.83,5.74,2.48v-10.41c0-.76.02-1.33.07-1.71.05-.38.2-.81.45-1.29Zm-8.11,26.94c.86.89,1.91,1.34,3.14,1.34s2.25-.45,3.07-1.34c.81-.89,1.22-1.88,1.22-2.95s-.39-2.07-1.17-3c-.78-.92-1.84-1.39-3.17-1.39s-2.39.45-3.19,1.36c-.8.91-1.2,1.91-1.2,3s.43,2.08,1.3,2.97Z"/>
    <path class="cls-1" d="m377.81,365.31c1.96.86,2.94,1.9,2.94,3.12,0,.59-.13,1.16-.4,1.68-.27.53-.4.81-.4.84l-13.07,29.04c-.27.63-.49,1.11-.67,1.44-.18.33-.47.64-.87.94-.4.3-.9.45-1.5.45s-1.48-.25-2.64-.74c-1.96-.86-2.94-1.88-2.94-3.07,0-.79,1.6-4.58,4.79-11.35l-9.93-16.6c-.67-1.09-1-1.9-1-2.43,0-1.06.9-2.11,2.69-3.17,1.13-.66,2.01-.99,2.64-.99s1.15.13,1.55.4c.4.26.69.54.87.82.18.28,1.1,1.82,2.74,4.61,1.65,2.79,3.22,5.39,4.71,7.81.17-.53,1.06-2.57,2.69-6.12,1.63-3.55,2.5-5.44,2.62-5.67.12-.23.31-.51.57-.84.43-.56,1.04-.84,1.82-.84s1.7.23,2.77.69Z"/>
    <path class="cls-1" d="m382.7,388.81c-.63-.4-.95-1.02-.95-1.88s.63-2.16,1.9-3.92c.37-.56.95-.84,1.77-.84s1.92.4,3.32,1.21c1.4.81,2.66,1.21,3.79,1.21,2.03,0,3.04-.4,3.04-1.19,0-.63-1.11-1.09-3.34-1.39-2.09-.3-4.17-1.07-6.23-2.33-.96-.59-1.76-1.53-2.4-2.8-.63-1.27-.95-2.78-.95-4.54,0-5.22,3.61-7.83,10.82-7.83,2.36,0,4.79.56,7.28,1.69,1.16.53,1.75,1.19,1.75,1.98s-.37,1.77-1.1,2.92c-.73,1.16-1.48,1.73-2.24,1.73-.4,0-1.14-.25-2.22-.74s-2.25-.74-3.52-.74c-1.96,0-2.94.36-2.94,1.09,0,.99,1.13,1.64,3.39,1.93,2.19.23,4.32.86,6.38,1.88.96.46,1.77,1.26,2.42,2.4.65,1.14.97,2.57.97,4.29s-.32,3.18-.97,4.39c-.65,1.21-1.55,2.11-2.72,2.7-2.13,1.02-4.8,1.54-8.01,1.54s-6.29-.92-9.25-2.78Z"/>
    <path class="cls-1" d="m407.09,388.81c-.63-.4-.95-1.02-.95-1.88s.63-2.16,1.9-3.92c.37-.56.95-.84,1.77-.84s1.92.4,3.32,1.21c1.4.81,2.66,1.21,3.79,1.21,2.03,0,3.04-.4,3.04-1.19,0-.63-1.11-1.09-3.34-1.39-2.09-.3-4.17-1.07-6.23-2.33-.96-.59-1.76-1.53-2.39-2.8-.63-1.27-.95-2.78-.95-4.54,0-5.22,3.61-7.83,10.82-7.83,2.36,0,4.79.56,7.28,1.69,1.16.53,1.75,1.19,1.75,1.98s-.37,1.77-1.1,2.92c-.73,1.16-1.48,1.73-2.24,1.73-.4,0-1.14-.25-2.22-.74s-2.25-.74-3.52-.74c-1.96,0-2.94.36-2.94,1.09,0,.99,1.13,1.64,3.39,1.93,2.19.23,4.32.86,6.38,1.88.96.46,1.77,1.26,2.42,2.4.65,1.14.97,2.57.97,4.29s-.32,3.18-.97,4.39c-.65,1.21-1.55,2.11-2.72,2.7-2.13,1.02-4.8,1.54-8.01,1.54s-6.29-.92-9.25-2.78Z"/>
    <path class="cls-1" d="m456.62,374.95c0,2.03-.51,3.54-1.52,4.51-1.02.97-2.14,1.46-3.37,1.46h-11.82c0,.93.55,1.7,1.65,2.33,1.1.63,2.19.94,3.29.94,1.93,0,3.44-.2,4.54-.59l.55-.2c.8-.36,1.46-.55,2-.55,1.06,0,1.98.74,2.74,2.23.43.89.65,1.65.65,2.28,0,2.94-3.54,4.41-10.62,4.41-2.46,0-4.65-.42-6.56-1.26-1.91-.84-3.4-1.96-4.46-3.35-2.1-2.68-3.14-5.67-3.14-8.97,0-4.16,1.35-7.49,4.07-9.99,2.71-2.49,6.09-3.74,10.15-3.74,4.62,0,8.01,1.62,10.18,4.86,1.13,1.72,1.7,3.59,1.7,5.63Zm-10.53,1.46c1.26,0,1.9-.53,1.9-1.59,0-.76-.29-1.37-.87-1.83-.58-.46-1.41-.69-2.49-.69s-2.15.44-3.22,1.31c-1.06.88-1.6,1.81-1.6,2.8h6.28Z"/>
    <path class="cls-1" d="m482.81,365.31c1.96.86,2.94,1.9,2.94,3.12,0,.59-.13,1.16-.4,1.68-.27.53-.4.81-.4.84l-13.07,29.04c-.27.63-.49,1.11-.67,1.44-.18.33-.47.64-.87.94-.4.3-.9.45-1.5.45s-1.48-.25-2.64-.74c-1.96-.86-2.94-1.88-2.94-3.07,0-.79,1.6-4.58,4.79-11.35l-9.93-16.6c-.67-1.09-1-1.9-1-2.43,0-1.06.9-2.11,2.69-3.17,1.13-.66,2.01-.99,2.64-.99s1.15.13,1.55.4c.4.26.69.54.87.82.18.28,1.1,1.82,2.74,4.61,1.65,2.79,3.22,5.39,4.71,7.81.17-.53,1.06-2.57,2.69-6.12,1.63-3.55,2.5-5.44,2.62-5.67.12-.23.31-.51.57-.84.43-.56,1.04-.84,1.82-.84s1.7.23,2.77.69Z"/>
  </g>
  <text/>
</svg>