<?xml version="1.0" encoding="UTF-8"?>
<svg id="Layer_1" data-name="Layer 1" xmlns="http://www.w3.org/2000/svg" viewBox="0 0 432 203.21">
  <defs>
    <style>
      .cls-1 {
        letter-spacing: -.03em;
      }

      .cls-2 {
        letter-spacing: 0em;
      }

      .cls-3 {
        fill: #fff;
        font-family: FredokaOne-Regular, 'Fredoka One';
        font-size: 50px;
      }

      .cls-4 {
        fill: #348835;
      }

      .cls-5 {
        fill: #017b3b;
        stroke: #063;
      }

      .cls-5, .cls-6 {
        stroke-miterlimit: 10;
        stroke-width: 2px;
      }

      .cls-6 {
        fill: #063;
        stroke: #017b3b;
      }

      .cls-7 {
        letter-spacing: -.02em;
      }
    </style>
  </defs>
  <g>
    <path class="cls-5" d="m217.5,184.65s-44.01,30.38-104.79-25.71c-60.78-56.09-37.84-95.97-37.84-95.97,0,0,35.43,23.29,80.93,26.49,45.51,3.2,66.69,48.54,66.69,48.54,0,0,7.35,21.22-4.99,46.64Z"/>
    <path class="cls-4" d="m216.6,184.47c-3.51-4.59-8.06-8.17-12.93-11.22-5.49-3.44-11.32-6.38-17.12-9.27-12.17-6.05-24.63-11.5-36.83-17.48-22.31-10.94-44.57-24.18-59.55-44.53-7.78-10.57-13.39-22.8-15.18-35.87-.04-.32-.53-.18-.48.13,3.23,23.62,18.5,43.55,36.89,57.85,20.65,16.07,45.07,25.97,68.48,37.19,6.73,3.23,13.44,6.55,19.93,10.25,6.12,3.49,12.04,7.54,16.36,13.19.19.25.63,0,.43-.25h0Z"/>
    <path class="cls-4" d="m130.87,85.55c-5.81,4.43-6.51,12.67-6.3,19.39.13,4.14.47,8.26.07,12.39-.36,3.81-1.41,9.37-5.05,11.46-.28.16-.03.59.25.43,2.95-1.69,4.23-5.69,4.86-8.83.76-3.81.71-7.74.53-11.6-.35-7.57-.91-17.62,5.88-22.8.25-.19,0-.63-.25-.43h0Z"/>
    <path class="cls-4" d="m184.64,98c-5.7,5.21-12.48,9.35-17.2,15.56-5.1,6.71-6.46,14.97-7.13,23.16-.41,4.98-.96,10.1.11,15.03.07.31.55.18.48-.13-.94-4.34-.56-8.78-.23-13.16s.7-8.49,1.68-12.63,2.48-7.73,4.82-11.07c2.22-3.17,5.07-5.82,8.02-8.29,3.26-2.72,6.67-5.26,9.8-8.12.24-.22-.12-.57-.35-.35h0Z"/>
    <path class="cls-4" d="m159.97,152.19c-5.81.85-10.67,4.98-13.2,10.18-1.3,2.68-2.01,5.6-2.3,8.55-.37,3.73.27,7.46.21,11.19,0,.32.5.32.5,0,.05-3.31-.49-6.63-.31-9.94.17-3.14.85-6.31,2.16-9.17,2.41-5.28,7.24-9.48,13.07-10.33.32-.05.18-.53-.13-.48h0Z"/>
    <path class="cls-4" d="m89.04,132.66c3.78-4.27,9.49-6.13,15.05-5.09,2.62.49,5.17,1.26,7.82,1.64,1.29.19,2.59.31,3.89.37,1.19.06,2.43-.08,3.61.05.32.03.32-.47,0-.5-1.26-.14-2.58,0-3.85-.06-1.65-.09-3.3-.28-4.93-.57-2.77-.5-5.47-1.43-8.28-1.69-5.1-.47-10.26,1.66-13.66,5.49-.21.24.14.59.35.35h0Z"/>
  </g>
  <g>
    <path class="cls-5" d="m211.77,188.36s-52.83,8.3-83.29-68.59c-30.47-76.89,7.5-102.88,7.5-102.88,0,0,21.83,36.35,61.45,58.96,39.62,22.61,39.06,72.65,39.06,72.65,0,0-2.57,22.31-24.72,39.86Z"/>
    <path class="cls-4" d="m211.03,187.76c-1.2-5.76-3.84-11.05-6.98-15.98-3.33-5.21-7.1-10.16-10.89-15.04-7.92-10.21-16.32-20.04-24.37-30.15-15.33-19.28-29.83-40.37-35.28-64.78-3.09-13.84-3.16-28.45,1.22-42.02.1-.31-.38-.44-.48-.13-7.68,23.8-1.7,49.47,9.64,71.04s28.86,41.21,44.54,60.83c4.63,5.79,9.21,11.66,13.39,17.79,3.89,5.69,7.32,11.78,8.73,18.58.07.31.55.18.48-.13h0Z"/>
    <path class="cls-4" d="m176.61,61.51c-7.43,1.53-11.61,9.14-14.37,15.5-1.6,3.69-3.09,7.42-5.23,10.85-1.95,3.13-5.23,7.43-9.24,7.72-.32.02-.32.52,0,.5,3.32-.24,6.14-3.14,8.05-5.63,2.39-3.1,4.08-6.69,5.6-10.28,3.01-7.08,6.83-16.44,15.31-18.19.31-.06.18-.55-.13-.48h0Z"/>
    <path class="cls-4" d="m219.74,96.02c-7.84,2.36-16.35,3.12-23.56,7.27s-11.49,10.74-15.46,17.57c-2.42,4.16-5,8.36-6.13,13.09-.07.31.41.45.48.13,1.01-4.24,3.21-8,5.36-11.74,1.92-3.34,3.89-6.66,6.22-9.74,2.48-3.27,5.39-6.16,8.88-8.35s7.29-3.46,11.19-4.48c4.36-1.15,8.81-1.97,13.13-3.27.31-.09.18-.58-.13-.48h0Z"/>
    <path class="cls-4" d="m174.02,134.17c-5.85-1.82-12.22-.02-16.83,3.86-2.23,1.87-4.05,4.2-5.53,6.7-1.82,3.08-2.81,6.57-4.41,9.75-.14.29.29.54.43.25,1.42-2.84,2.35-5.91,3.82-8.73,1.32-2.53,3.07-4.89,5.15-6.85,4.54-4.28,11.14-6.41,17.22-4.52.31.1.44-.39.13-.48h0Z"/>
    <path class="cls-4" d="m118.59,85.8c5.25-2.22,11.24-1.36,15.78,1.99,2.11,1.56,4.05,3.33,6.23,4.8,1.1.74,2.24,1.43,3.41,2.06,1.04.56,2.2.97,3.2,1.6.27.17.53-.26.25-.43-1.06-.66-2.29-1.1-3.4-1.7-1.29-.71-2.55-1.49-3.76-2.33-2.44-1.7-4.57-3.84-7.11-5.39-4.43-2.7-10.08-3.05-14.86-1.03-.3.13-.04.56.25.43h0Z"/>
  </g>
  <g>
    <path class="cls-5" d="m211.54,188.4s-52.36-10.85-53.77-93.55C156.38,12.16,201.07,1.22,201.07,1.22c0,0,7.62,41.71,36.72,76.84,29.11,35.13,10.94,81.75,10.94,81.75,0,0-10.27,19.97-37.18,28.59Z"/>
    <path class="cls-4" d="m211.06,187.62c.96-6.17.24-12.39-1.11-18.44-1.39-6.27-3.26-12.44-5.18-18.57-3.94-12.58-8.44-24.97-12.42-37.54-7.58-23.95-13.42-49.5-8.78-74.64,2.33-12.63,7.25-24.83,15.29-34.92.2-.25-.15-.61-.35-.35-14.52,18.22-18.6,42.35-16.57,65.07,2.34,26.17,12.01,50.83,20.13,75.59,2.31,7.05,4.53,14.14,6.39,21.33s3.29,14.83,2.11,22.35c-.05.31.43.45.48.13h0Z"/>
    <path class="cls-4" d="m223.4,57.31c-7.45-1.16-13.96,4.3-18.79,9.26-2.71,2.79-5.32,5.66-8.37,8.09s-7.81,5.53-11.9,4.36c-.31-.09-.44.39-.13.48,3.36.96,7.19-.93,9.95-2.72,3.12-2.02,5.82-4.64,8.37-7.31,5.32-5.56,12.18-13.01,20.73-11.67.31.05.45-.43.13-.48h0Z"/>
    <path class="cls-4" d="m251.53,104.8c-8.62-.59-17.35-3.09-25.98-1.23-7.71,1.66-14.04,6.44-20.03,11.35-3.48,2.86-7.05,5.71-9.6,9.48-.18.27.25.52.43.25,2.24-3.32,5.3-5.91,8.37-8.44s6.13-5.04,9.47-7.19,6.68-3.81,10.41-4.72c4.2-1.02,8.47-1.04,12.75-.64,4.73.45,9.42,1.32,14.17,1.64.32.02.32-.48,0-.5h0Z"/>
    <path class="cls-4" d="m195.35,124.41c-4.77-3.73-11.28-4.36-16.93-2.42-2.81.97-5.39,2.52-7.71,4.37-2.81,2.25-4.98,5.18-7.62,7.62-.24.22.12.57.35.35,2.28-2.11,4.2-4.57,6.49-6.67s4.97-3.79,7.83-4.91c5.63-2.21,12.37-1.79,17.23,2,.25.2.61-.16.35-.35h0Z"/>
    <path class="cls-4" d="m160.46,59.58c5.62-.23,10.91,2.58,13.98,7.23,1.46,2.22,2.65,4.6,4.19,6.77.72,1.02,1.5,2.02,2.31,2.97s1.86,1.84,2.64,2.86c.19.25.63,0,.43-.25-.73-.94-1.67-1.75-2.45-2.65-1.07-1.22-2.06-2.52-2.97-3.86-1.6-2.37-2.81-5.01-4.56-7.28-3.18-4.13-8.36-6.51-13.57-6.3-.32.01-.32.51,0,.5h0Z"/>
  </g>
  <g>
    <path class="cls-5" d="m207.47,188.82s-43.22-31.49-10.39-107.4C229.92,5.51,275.14,13.99,275.14,13.99c0,0-10.27,41.14,1.76,85.14,12.02,44-23.76,78.99-23.76,78.99,0,0-17.6,13.95-45.67,10.71Z"/>
    <path class="cls-4" d="m207.37,187.87c3.31-5.04,5.19-10.8,6.46-16.66,1.36-6.27,2.2-12.67,2.99-19.03,1.7-13.68,2.72-27.43,4.39-41.12,3.02-24.76,8.41-50.19,23.02-70.93,7.28-10.33,16.7-19.21,27.99-24.99.29-.15.03-.58-.25-.43-20.31,10.39-33.88,30.16-41.46,51.19-9.1,25.25-10.43,52.3-13.32,78.74-.85,7.77-1.79,15.55-3.21,23.23-1.28,6.91-3.15,13.81-7.05,19.74-.18.27.26.52.43.25h0Z"/>
    <path class="cls-4" d="m272.32,74.27c-6.14-4.04-14.23-1.88-20.53.56-3.76,1.46-7.44,3.08-11.37,4.07-2.04.51-4.13.85-6.24.83s-4.65-.29-6.35-1.76c-.24-.21-.6.14-.35.35,2.56,2.22,6.7,2.12,9.86,1.69,4.01-.55,7.83-1.98,11.56-3.49,6.99-2.82,16.11-6.46,23.17-1.82.27.18.52-.26.25-.43h0Z"/>
    <path class="cls-4" d="m278.41,129.17c-6.81-3.66-12.98-8.71-20.42-11.11-8.48-2.74-17.18-.94-25.54,1.29-4.39,1.17-8.87,2.3-12.78,4.71-.27.17-.02.6.25.43,3.41-2.1,7.27-3.2,11.1-4.24,4.26-1.15,8.55-2.3,12.95-2.84s8.55-.38,12.71.77c3.7,1.02,7.13,2.81,10.42,4.76,3.7,2.2,7.27,4.62,11.06,6.66.28.15.54-.28.25-.43h0Z"/>
    <path class="cls-4" d="m219.09,123.81c-2.63-5.03-7.87-8.24-13.42-9.03-3.3-.47-6.67-.13-9.89.7-3.45.89-6.61,2.65-9.98,3.77-.3.1-.17.58.13.48,3.02-1,5.84-2.51,8.88-3.46s6.45-1.41,9.69-1.13c5.81.5,11.42,3.66,14.16,8.91.15.29.58.03.43-.25h0Z"/>
    <path class="cls-4" d="m214.11,50.41c5.1,2.09,8.75,6.7,9.68,12.1.46,2.65.54,5.34,1.03,7.98.25,1.36.58,2.7.97,4.03.35,1.18.89,2.33,1.17,3.52.07.31.56.18.48-.13-.3-1.26-.88-2.49-1.24-3.74-.43-1.48-.77-2.97-1.03-4.49-.51-3.01-.47-6.14-1.31-9.09-1.37-4.81-5-8.77-9.63-10.66-.3-.12-.43.36-.13.48h0Z"/>
  </g>
  <g>
    <path class="cls-5" d="m219.3,185.52s-33.04-42.05,19.2-106.18c52.23-64.13,93.45-43.68,93.45-43.68,0,0-21.06,36.8-21.45,82.41-.39,45.62-44.34,69.55-44.34,69.55,0,0-20.73,8.64-46.86-2.11Z"/>
    <path class="cls-4" d="m219.47,184.58c4.45-3.86,7.78-8.76,10.55-13.92,3.03-5.64,5.57-11.55,8.06-17.44,5.33-12.63,10.04-25.51,15.32-38.16,9.53-22.86,21.41-45.74,40.75-61.86,10.02-8.35,21.83-14.64,34.68-17.22.32-.06.18-.55-.13-.48-23.1,4.62-41.9,20.77-55.02,39.7-15.03,21.7-23.49,46.95-33.33,71.21-2.87,7.08-5.83,14.15-9.23,20.99-3.08,6.21-6.73,12.23-12.01,16.81-.24.21.11.56.35.35h0Z"/>
    <path class="cls-4" d="m312.84,92.91c-4.81-5.56-13.22-5.67-19.93-5.03-4.11.39-8.2.97-12.34.81-3.76-.15-9.27-.87-11.54-4.31-.18-.27-.61-.02-.43.25,1.87,2.85,5.93,3.88,9.11,4.31,3.93.53,7.93.22,11.86-.21,7.52-.82,17.37-1.89,22.93,4.53.21.24.56-.11.35-.35h0Z"/>
    <path class="cls-4" d="m303.78,147.39c-5.55-5.37-10.11-11.88-16.59-16.21-7-4.68-15.34-5.53-23.56-5.7-5-.1-10.14-.34-15,1.03-.31.09-.18.57.13.48,4.27-1.21,8.73-1.1,13.12-1.04s8.52.17,12.71.9,7.86,2,11.34,4.13c3.3,2.02,6.12,4.69,8.77,7.49,2.92,3.08,5.66,6.33,8.71,9.28.23.22.59-.13.35-.35h0Z"/>
    <path class="cls-4" d="m248.16,126.11c-1.18-5.65-5.47-10.2-10.7-12.44-2.88-1.23-6-1.8-9.11-1.9-3.69-.12-7.32.74-10.99.91-.32.01-.32.51,0,.5,3.31-.15,6.59-.91,9.91-.92,3.06-.02,6.15.43,9.03,1.49,5.53,2.04,10.15,6.63,11.38,12.5.07.31.55.18.48-.13h0Z"/>
    <path class="cls-4" d="m263.27,54.09c4.36,3.41,6.65,8.83,6.07,14.32-.28,2.65-.93,5.23-1.17,7.89-.13,1.43-.19,2.87-.17,4.31.02,1.2.23,2.42.17,3.61-.01.32.49.32.5,0,.06-1.27-.16-2.57-.17-3.85-.01-1.52.06-3.04.22-4.55.31-2.93,1.14-5.82,1.22-8.78.15-5.12-2.28-10.14-6.31-13.3-.25-.2-.61.16-.35.35h0Z"/>
  </g>
  <g>
    <path class="cls-5" d="m217.67,166.14s-10.49-52.44,65.07-86.07c75.56-33.64,103.1,3.22,103.1,3.22,0,0-35.41,23.32-56.35,63.85-20.94,40.53-70.96,42.04-70.96,42.04,0,0-22.4-1.65-40.86-23.04Z"/>
    <path class="cls-4" d="m218.23,165.38c5.78-1.45,11.01-4.36,15.86-7.76,5-3.51,9.73-7.43,14.4-11.37,10-8.44,19.57-17.36,29.47-25.91,18.6-16.07,39.09-31.37,63.23-37.73,13.61-3.58,28.07-4.23,41.7-.45.31.09.44-.4.13-.48-23.95-6.64-49.2.27-70.2,12.35-22.04,12.68-40.25,30.67-59.31,47.24-5.6,4.87-11.27,9.69-17.22,14.12-5.52,4.12-11.46,7.8-18.2,9.5-.31.08-.18.56.13.48h0Z"/>
    <path class="cls-4" d="m342.95,125.75c-1.81-7.23-9.36-11.1-15.72-13.58-3.87-1.51-7.79-2.85-11.41-4.91-3.2-1.82-7.65-4.91-8.11-8.9-.04-.32-.54-.32-.5,0,.38,3.31,3.38,6,5.95,7.82,3.08,2.18,6.62,3.7,10.13,5.04,7.28,2.76,17.04,6.13,19.18,14.67.08.31.56.18.48-.13h0Z"/>
    <path class="cls-4" d="m310.26,170.27c-2.66-7.69-3.78-16.09-8.15-23.09-4.27-6.84-11.13-11.08-18.1-14.77-4.31-2.28-8.68-4.73-13.51-5.67-.31-.06-.45.42-.13.48,4.34.84,8.25,2.93,12.13,4.96,3.41,1.78,6.81,3.62,9.97,5.83,3.37,2.36,6.35,5.16,8.66,8.57s3.68,7.05,4.84,10.84c1.33,4.31,2.33,8.72,3.81,12.98.1.3.59.17.48-.13h0Z"/>
    <path class="cls-4" d="m270.23,126.18c1.58-5.92-.48-12.21-4.55-16.65-1.97-2.15-4.37-3.88-6.93-5.25-3.15-1.69-6.68-2.53-9.93-4-.29-.13-.55.3-.25.43,2.9,1.3,6.01,2.1,8.88,3.46,2.58,1.22,5.02,2.87,7.06,4.86,4.46,4.36,6.88,10.86,5.24,17.01-.08.31.4.44.48.13h0Z"/>
    <path class="cls-4" d="m316.26,68.77c2.48,5.24,1.79,11.3-1.44,16.03-1.44,2.11-3.08,4.07-4.42,6.25-.7,1.13-1.34,2.3-1.92,3.49-.52,1.06-.88,2.24-1.46,3.26-.16.28.27.53.43.25.62-1.09,1-2.33,1.56-3.46.65-1.32,1.38-2.61,2.17-3.86,1.56-2.45,3.54-4.62,4.99-7.14,2.61-4.57,2.78-10.32.52-15.08-.14-.29-.57-.04-.43.25h0Z"/>
  </g>
  <ellipse class="cls-6" cx="211.27" cy="173.18" rx="54.41" ry="29.03"/>
  <text class="cls-3" transform="translate(151 94.31)"><tspan x="0" y="0">Pla</tspan><tspan class="cls-2" x="77.75" y="0">n</tspan><tspan x="107.55" y="0">t </tspan><tspan x="-36.8" y="60">O</tspan><tspan class="cls-2" x="1.95" y="60">d</tspan><tspan class="cls-7" x="31.35" y="60">y</tspan><tspan x="60.55" y="60">ss</tspan><tspan class="cls-1" x="109.45" y="60">e</tspan><tspan x="136.6" y="60">y</tspan></text>
</svg>