<?xml version="1.0" encoding="UTF-8"?>
<svg id="Layer_1" data-name="Layer 1" xmlns="http://www.w3.org/2000/svg" viewBox="0 0 1024 768">
  <defs>
    <style>
      .cls-1 {
        fill: #131f31;
      }

      .cls-2 {
        fill: #eaeaea;
      }
    </style>
  </defs>
  <rect class="cls-1" y="1" width="1024" height="768"/>
  <circle class="cls-2" cx="495.1" cy="230.97" r="2.27"/>
  <circle class="cls-2" cx="473.54" cy="290.7" r="2.27"/>
  <circle class="cls-2" cx="398.54" cy="66.66" r="4.61"/>
  <circle class="cls-2" cx="285.39" cy="57.03" r="4.61"/>
  <circle class="cls-2" cx="386.03" cy="95.16" r="2.27"/>
  <circle class="cls-2" cx="300.61" cy="98.47" r="2.27"/>
  <circle class="cls-2" cx="381.49" cy="18.56" r="2.27"/>
  <circle class="cls-2" cx="398.48" cy="124.87" r="2.27"/>
  <circle class="cls-2" cx="339.05" cy="127.14" r="2.27"/>
  <circle class="cls-2" cx="350.72" cy="44.08" r="2.27"/>
  <circle class="cls-2" cx="261.67" cy="138.12" r="2.27"/>
  <circle class="cls-2" cx="202.72" cy="120.33" r="2.27"/>
  <circle class="cls-2" cx="287.66" cy="18.56" r="2.27"/>
  <circle class="cls-2" cx="436.85" cy="39.39" r="4.69"/>
  <circle class="cls-2" cx="394.53" cy="249.02" r="6.22"/>
  <circle class="cls-2" cx="421.32" cy="182.08" r="3.78"/>
  <circle class="cls-2" cx="356.6" cy="170.5" r="3.78"/>
  <circle class="cls-2" cx="221.1" cy="34.7" r="2.27"/>
  <circle class="cls-2" cx="154.07" cy="8.13" r="2.27"/>
  <circle class="cls-2" cx="127.37" cy="49.02" r="2.27"/>
  <circle class="cls-2" cx="65.15" cy="34.7" r="2.27"/>
  <circle class="cls-2" cx="178.33" cy="36.97" r="2.27"/>
  <circle class="cls-2" cx="383.76" cy="346.49" r="2.27"/>
  <circle class="cls-2" cx="396.21" cy="367.83" r="2.27"/>
  <circle class="cls-2" cx="315.1" cy="423.36" r="5.61"/>
  <circle class="cls-2" cx="248.19" cy="397.37" r="2.27"/>
  <circle class="cls-2" cx="241.46" cy="469.86" r="2.27"/>
  <circle class="cls-2" cx="419.81" cy="299.46" r="2.27"/>
  <circle class="cls-2" cx="495.1" cy="348.76" r="2.27"/>
  <circle class="cls-2" cx="558.23" cy="351.04" r="2.27"/>
  <circle class="cls-2" cx="434.43" cy="445.86" r="2.27"/>
  <circle class="cls-2" cx="480.36" cy="422.24" r="2.27"/>
  <circle class="cls-2" cx="519.98" cy="391.1" r="2.27"/>
  <circle class="cls-2" cx="417.54" cy="426.7" r="2.27"/>
  <circle class="cls-2" cx="439.54" cy="384" r="2.27"/>
  <circle class="cls-2" cx="565.61" cy="421.18" r="10.07"/>
  <circle class="cls-2" cx="550.99" cy="301.73" r="2.27"/>
  <circle class="cls-2" cx="646.68" cy="329.61" r="6.42"/>
  <circle class="cls-2" cx="597.91" cy="155.17" r="2.27"/>
  <circle class="cls-2" cx="611.15" cy="78.28" r="2.27"/>
  <circle class="cls-2" cx="671.51" cy="33.56" r="5.68"/>
  <circle class="cls-2" cx="672.65" cy="255.24" r="2.27"/>
  <circle class="cls-2" cx="701.98" cy="243.59" r="2.27"/>
  <circle class="cls-2" cx="681.54" cy="292.97" r="2.27"/>
  <circle class="cls-2" cx="692.31" cy="190.75" r="2.27"/>
  <circle class="cls-2" cx="755.32" cy="221.9" r="2.27"/>
  <circle class="cls-2" cx="844.42" cy="210.42" r="6.73"/>
  <circle class="cls-2" cx="966.72" cy="288.52" r="6.73"/>
  <circle class="cls-2" cx="755.32" cy="262.53" r="2.27"/>
  <circle class="cls-2" cx="894.38" cy="257.52" r="2.27"/>
  <circle class="cls-2" cx="935.13" cy="126.06" r="3.36"/>
  <circle class="cls-2" cx="615.69" cy="206.48" r="2.27"/>
  <circle class="cls-2" cx="730.43" cy="155.17" r="2.27"/>
  <circle class="cls-2" cx="732.7" cy="124.87" r="2.27"/>
  <circle class="cls-2" cx="786.82" cy="166.72" r="2.27"/>
  <circle class="cls-2" cx="753.04" cy="32.43" r="2.27"/>
  <circle class="cls-2" cx="952.61" cy="178.3" r="2.27"/>
  <circle class="cls-2" cx="942.43" cy="233.24" r="2.27"/>
  <circle class="cls-2" cx="829.98" cy="98.4" r="2.27"/>
  <circle class="cls-2" cx="959.99" cy="320.92" r="2.27"/>
  <circle class="cls-2" cx="846.6" cy="44.08" r="2.27"/>
  <circle class="cls-2" cx="797.88" cy="71.27" r="2.27"/>
  <circle class="cls-2" cx="915.17" cy="54.75" r="2.27"/>
  <circle class="cls-2" cx="923.67" cy="23.76" r="5.2"/>
  <circle class="cls-2" cx="1011.75" cy="185.93" r="5.2"/>
  <circle class="cls-2" cx="992.31" cy="27.88" r="2.27"/>
  <circle class="cls-2" cx="690.03" cy="54.75" r="2.27"/>
  <circle class="cls-2" cx="597.91" cy="39.24" r="2.27"/>
  <circle class="cls-2" cx="333.35" cy="304.01" r="2.27"/>
  <circle class="cls-2" cx="285.39" cy="348.76" r="2.27"/>
  <circle class="cls-2" cx="292.75" cy="277.35" r="4.37"/>
  <circle class="cls-2" cx="243.73" cy="255.24" r="4.37"/>
  <circle class="cls-2" cx="209.54" cy="304.01" r="2.27"/>
  <circle class="cls-2" cx="182.87" cy="267.07" r="2.27"/>
  <circle class="cls-2" cx="142.7" cy="214.87" r="2.27"/>
  <circle class="cls-2" cx="82.69" cy="201.93" r="2.27"/>
  <circle class="cls-2" cx="17.64" cy="180.58" r="2.27"/>
  <circle class="cls-2" cx="52.7" cy="241.32" r="2.27"/>
  <circle class="cls-2" cx="62.87" cy="188.48" r="2.27"/>
  <circle class="cls-2" cx="182.87" cy="340.58" r="2.27"/>
  <circle class="cls-2" cx="122.82" cy="348.76" r="2.27"/>
  <circle class="cls-2" cx="122.82" cy="272.98" r="2.27"/>
  <circle class="cls-2" cx="84.96" cy="388.82" r="2.27"/>
  <circle class="cls-2" cx="133.98" cy="431.24" r="2.27"/>
  <circle class="cls-2" cx="227.32" cy="370.1" r="2.27"/>
  <circle class="cls-2" cx="159.76" cy="417.75" r="2.27"/>
  <circle class="cls-2" cx="180.6" cy="467.59" r="2.27"/>
  <circle class="cls-2" cx="80.42" cy="433.52" r="2.27"/>
  <circle class="cls-2" cx="15.37" cy="374.56" r="2.27"/>
  <circle class="cls-2" cx="62.87" cy="292.97" r="2.27"/>
  <circle class="cls-2" cx="19.91" cy="281.73" r="2.27"/>
  <circle class="cls-2" cx="148.39" cy="305.14" r="5.68"/>
  <circle class="cls-2" cx="221.51" cy="89.84" r="5.68"/>
  <circle class="cls-2" cx="560.98" cy="214.19" r="7.71"/>
  <circle class="cls-2" cx="283.12" cy="208.4" r="6.47"/>
  <circle class="cls-2" cx="218.82" cy="164.45" r="2.27"/>
  <circle class="cls-2" cx="227.73" cy="120.33" r="2.27"/>
  <circle class="cls-2" cx="218.82" cy="206.48" r="2.27"/>
  <circle class="cls-2" cx="207.27" cy="157.44" r="2.27"/>
  <circle class="cls-2" cx="125.1" cy="157.44" r="2.27"/>
  <circle class="cls-2" cx="78.14" cy="124.87" r="2.27"/>
  <circle class="cls-2" cx="87.23" cy="91.93" r="2.27"/>
  <circle class="cls-2" cx="60.6" cy="69" r="2.27"/>
  <circle class="cls-2" cx="29.1" cy="91.93" r="2.27"/>
  <circle class="cls-2" cx="17.64" cy="33.56" r="2.27"/>
  <circle class="cls-2" cx="154.07" cy="135.85" r="2.27"/>
  <circle class="cls-2" cx="159.76" cy="87.57" r="2.27"/>
  <circle class="cls-2" cx="519.98" cy="107.76" r="5.16"/>
  <circle class="cls-2" cx="532.71" cy="162.18" r="2.27"/>
  <circle class="cls-2" cx="480.36" cy="122.6" r="2.27"/>
  <circle class="cls-2" cx="475.81" cy="77.94" r="2.27"/>
  <circle class="cls-2" cx="550.89" cy="64.55" r="4.45"/>
  <circle class="cls-2" cx="637.98" cy="127.14" r="2.27"/>
  <circle class="cls-2" cx="670.38" cy="97.44" r="2.27"/>
  <circle class="cls-2" cx="800.16" cy="306.28" r="2.27"/>
  <circle class="cls-2" cx="846.6" cy="323.19" r="2.27"/>
  <circle class="cls-2" cx="917.44" cy="313.1" r="2.27"/>
  <circle class="cls-2" cx="889.83" cy="376.84" r="2.27"/>
  <circle class="cls-2" cx="931.77" cy="401.91" r="2.27"/>
  <circle class="cls-2" cx="977.44" cy="415.54" r="2.27"/>
  <circle class="cls-2" cx="862.87" cy="152.89" r="2.27"/>
  <circle class="cls-2" cx="971.76" cy="73.54" r="2.27"/>
  <circle class="cls-2" cx="892.1" cy="89.84" r="2.27"/>
  <circle class="cls-2" cx="608.87" cy="262.53" r="2.27"/>
  <circle class="cls-2" cx="658.43" cy="374.56" r="2.27"/>
  <circle class="cls-2" cx="665.83" cy="399.64" r="2.27"/>
  <circle class="cls-2" cx="728.16" cy="333.76" r="2.27"/>
  <circle class="cls-2" cx="789.1" cy="386.55" r="2.27"/>
  <circle class="cls-2" cx="827.71" cy="379.11" r="2.27"/>
  <circle class="cls-2" cx="844.32" cy="428.97" r="2.27"/>
  <circle class="cls-2" cx="898.92" cy="454.13" r="2.27"/>
  <circle class="cls-2" cx="1001.89" cy="454.13" r="2.27"/>
  <circle class="cls-2" cx="750.85" cy="367.83" r="4.46"/>
  <circle class="cls-2" cx="753.04" cy="426.7" r="4.46"/>
  <circle class="cls-2" cx="1019.22" cy="98.47" r="2.27"/>
  <circle class="cls-2" cx="989.84" cy="336.03" r="2.27"/>
  <circle class="cls-2" cx="1008.82" cy="245.86" r="2.27"/>
  <circle class="cls-2" cx="992.11" cy="374.56" r="5.68"/>
  <circle class="cls-2" cx="996.86" cy="133.64" r="2.27"/>
  <circle class="cls-2" cx="497.78" cy="686.54" r="2.27"/>
  <circle class="cls-2" cx="476.23" cy="746.27" r="2.27"/>
  <circle class="cls-2" cx="401.23" cy="522.23" r="4.61"/>
  <circle class="cls-2" cx="388.72" cy="550.73" r="2.27"/>
  <circle class="cls-2" cx="303.29" cy="554.04" r="2.27"/>
  <circle class="cls-2" cx="253.16" cy="545.41" r="2.27"/>
  <circle class="cls-2" cx="384.18" cy="474.13" r="2.27"/>
  <circle class="cls-2" cx="401.17" cy="580.44" r="2.27"/>
  <circle class="cls-2" cx="341.74" cy="582.71" r="2.27"/>
  <circle class="cls-2" cx="353.41" cy="499.65" r="2.27"/>
  <circle class="cls-2" cx="363.06" cy="413.27" r="2.27"/>
  <circle class="cls-2" cx="264.36" cy="593.69" r="2.27"/>
  <circle class="cls-2" cx="232.28" cy="575.89" r="2.27"/>
  <circle class="cls-2" cx="290.35" cy="474.13" r="2.27"/>
  <circle class="cls-2" cx="439.54" cy="494.96" r="4.69"/>
  <circle class="cls-2" cx="397.22" cy="704.59" r="6.22"/>
  <circle class="cls-2" cx="424.01" cy="637.65" r="3.78"/>
  <circle class="cls-2" cx="359.29" cy="626.07" r="3.78"/>
  <circle class="cls-2" cx="223.78" cy="490.27" r="2.27"/>
  <circle class="cls-2" cx="156.76" cy="463.7" r="2.27"/>
  <circle class="cls-2" cx="130.06" cy="504.59" r="2.27"/>
  <circle class="cls-2" cx="67.83" cy="490.27" r="2.27"/>
  <circle class="cls-2" cx="181.02" cy="492.54" r="2.27"/>
  <circle class="cls-2" cx="422.5" cy="755.03" r="2.27"/>
  <circle class="cls-2" cx="553.68" cy="757.3" r="2.27"/>
  <circle class="cls-2" cx="600.6" cy="610.74" r="2.27"/>
  <circle class="cls-2" cx="613.83" cy="533.85" r="2.27"/>
  <circle class="cls-2" cx="674.2" cy="489.13" r="5.68"/>
  <circle class="cls-2" cx="675.34" cy="710.81" r="2.27"/>
  <circle class="cls-2" cx="704.67" cy="699.16" r="2.27"/>
  <circle class="cls-2" cx="684.23" cy="748.54" r="2.27"/>
  <circle class="cls-2" cx="695" cy="646.32" r="2.27"/>
  <circle class="cls-2" cx="758.01" cy="677.47" r="2.27"/>
  <circle class="cls-2" cx="847.1" cy="665.99" r="6.73"/>
  <circle class="cls-2" cx="969.41" cy="744.09" r="6.73"/>
  <circle class="cls-2" cx="758.01" cy="718.1" r="2.27"/>
  <circle class="cls-2" cx="814.73" cy="724.92" r="2.27"/>
  <circle class="cls-2" cx="897.07" cy="713.09" r="2.27"/>
  <circle class="cls-2" cx="937.82" cy="581.63" r="3.36"/>
  <circle class="cls-2" cx="618.38" cy="662.05" r="2.27"/>
  <circle class="cls-2" cx="733.12" cy="610.74" r="2.27"/>
  <circle class="cls-2" cx="735.39" cy="580.44" r="2.27"/>
  <circle class="cls-2" cx="789.51" cy="622.29" r="2.27"/>
  <circle class="cls-2" cx="755.73" cy="488" r="2.27"/>
  <circle class="cls-2" cx="955.29" cy="633.87" r="2.27"/>
  <circle class="cls-2" cx="945.12" cy="688.81" r="2.27"/>
  <circle class="cls-2" cx="832.67" cy="553.97" r="2.27"/>
  <circle class="cls-2" cx="849.29" cy="499.65" r="2.27"/>
  <circle class="cls-2" cx="800.57" cy="526.84" r="2.27"/>
  <circle class="cls-2" cx="917.86" cy="510.32" r="2.27"/>
  <circle class="cls-2" cx="926.36" cy="479.33" r="5.2"/>
  <circle class="cls-2" cx="1014.44" cy="641.5" r="5.2"/>
  <circle class="cls-2" cx="995" cy="483.45" r="2.27"/>
  <circle class="cls-2" cx="692.72" cy="510.32" r="2.27"/>
  <circle class="cls-2" cx="595.64" cy="379.11" r="2.27"/>
  <circle class="cls-2" cx="600.6" cy="494.81" r="2.27"/>
  <circle class="cls-2" cx="635.71" cy="451.86" r="2.27"/>
  <circle class="cls-2" cx="336.04" cy="759.57" r="2.27"/>
  <circle class="cls-2" cx="295.44" cy="732.92" r="4.37"/>
  <circle class="cls-2" cx="255.43" cy="710.81" r="4.37"/>
  <circle class="cls-2" cx="212.23" cy="759.57" r="2.27"/>
  <circle class="cls-2" cx="185.56" cy="722.64" r="2.27"/>
  <circle class="cls-2" cx="145.39" cy="670.44" r="2.27"/>
  <circle class="cls-2" cx="85.38" cy="657.5" r="2.27"/>
  <circle class="cls-2" cx="20.33" cy="636.15" r="2.27"/>
  <circle class="cls-2" cx="55.39" cy="696.88" r="2.27"/>
  <circle class="cls-2" cx="65.56" cy="644.05" r="2.27"/>
  <circle class="cls-2" cx="125.51" cy="728.55" r="2.27"/>
  <circle class="cls-2" cx="65.56" cy="748.54" r="2.27"/>
  <circle class="cls-2" cx="22.6" cy="737.3" r="2.27"/>
  <circle class="cls-2" cx="151.08" cy="760.71" r="5.68"/>
  <circle class="cls-2" cx="92.2" cy="708.54" r="5.68"/>
  <circle class="cls-2" cx="563.67" cy="669.76" r="7.71"/>
  <circle class="cls-2" cx="285.81" cy="663.97" r="6.47"/>
  <circle class="cls-2" cx="211.81" cy="536.13" r="6.47"/>
  <circle class="cls-2" cx="221.51" cy="620.02" r="2.27"/>
  <circle class="cls-2" cx="221.51" cy="662.05" r="2.27"/>
  <circle class="cls-2" cx="209.96" cy="613.01" r="2.27"/>
  <circle class="cls-2" cx="127.78" cy="613.01" r="2.27"/>
  <circle class="cls-2" cx="80.83" cy="580.44" r="2.27"/>
  <circle class="cls-2" cx="89.92" cy="547.5" r="2.27"/>
  <circle class="cls-2" cx="63.29" cy="524.57" r="2.27"/>
  <circle class="cls-2" cx="31.79" cy="547.5" r="2.27"/>
  <circle class="cls-2" cx="20.33" cy="489.13" r="2.27"/>
  <circle class="cls-2" cx="156.76" cy="591.42" r="2.27"/>
  <circle class="cls-2" cx="162.45" cy="543.14" r="2.27"/>
  <circle class="cls-2" cx="522.67" cy="563.33" r="5.16"/>
  <circle class="cls-2" cx="512" cy="481.18" r="5.16"/>
  <circle class="cls-2" cx="535.4" cy="617.75" r="2.27"/>
  <circle class="cls-2" cx="483.05" cy="578.17" r="2.27"/>
  <circle class="cls-2" cx="478.5" cy="533.51" r="2.27"/>
  <circle class="cls-2" cx="553.58" cy="520.12" r="4.45"/>
  <circle class="cls-2" cx="640.67" cy="582.71" r="2.27"/>
  <circle class="cls-2" cx="673.07" cy="553.01" r="2.27"/>
  <circle class="cls-2" cx="802.84" cy="761.85" r="2.27"/>
  <circle class="cls-2" cx="920.13" cy="768.67" r="2.27"/>
  <circle class="cls-2" cx="865.56" cy="608.46" r="2.27"/>
  <circle class="cls-2" cx="974.45" cy="529.11" r="2.27"/>
  <circle class="cls-2" cx="894.79" cy="545.41" r="2.27"/>
  <circle class="cls-2" cx="611.56" cy="718.1" r="2.27"/>
  <circle class="cls-2" cx="1021.91" cy="554.04" r="2.27"/>
  <circle class="cls-2" cx="1011.51" cy="701.43" r="2.27"/>
  <circle class="cls-2" cx="999.55" cy="589.21" r="2.27"/>
</svg>