<?xml version="1.0" encoding="UTF-8"?>
<svg id="Layer_2" data-name="Layer 2" xmlns="http://www.w3.org/2000/svg" viewBox="0 0 1024 768">
  <defs>
    <style>
      .cls-1 {
        fill: #68c4d6;
      }

      .cls-2 {
        fill: #f49619;
      }

      .cls-3 {
        fill: #95d3df;
      }

      .cls-4 {
        fill: #029ba3;
      }

      .cls-5 {
        fill: #2f4f9e;
      }
    </style>
  </defs>
  <path class="cls-1" d="m845.32,383.96c0,24.55-2.52,48.51-7.31,71.64-.2.98-.41,1.95-.62,2.93-13.68,63.35-44.45,120.34-87.24,165.91-14.8,15.77-31.05,30.18-48.52,43-2.76,2.02-5.54,4-8.36,5.95-7.2,4.96-14.59,9.67-22.17,14.1-10.93,6.4-22.25,12.22-33.89,17.42-5.93,2.65-11.96,5.15-18.06,7.46-3.38,1.3-6.78,2.54-10.21,3.72-17.9,6.2-36.46,10.99-55.54,14.23-19.3,3.3-39.15,5.01-59.39,5.01-194.05,0-351.36-157.31-351.36-351.37,0-35.85,5.36-70.44,15.34-103.02,4.87-15.92,10.85-31.35,17.84-46.21,6.19-13.17,13.18-25.89,20.91-38.1,21.54-34.14,48.8-64.28,80.43-89.11,2.93-2.31,5.91-4.57,8.92-6.78,24.36-17.91,51.1-32.75,79.68-43.95,39.73-15.59,82.98-24.13,128.24-24.13,79.2,0,152.26,26.18,211,70.37,19.75,14.86,37.89,31.75,54.09,50.37,9.9,11.38,19.09,23.41,27.48,36.01,2.14,3.21,4.23,6.46,6.26,9.75,12.73,20.53,23.4,42.47,31.71,65.53,4.93,13.64,9.04,27.68,12.25,42.06,3.11,13.88,5.41,28.07,6.82,42.52.33,3.37.61,6.74.84,10.13,0,.21.03.41.04.62.54,7.93.82,15.91.82,23.94Z"/>
  <path class="cls-3" d="m836.8,306.75c-33.54-17.73-77.54-48.05-152.42-12.12-117.13,56.21-122.46-83.26-205.13-97.53-47.88-8.26-110.01-17.79-153.58-40.74-22.84-12.01-40.58-27.72-48.5-48.84,2.93-2.31,5.91-4.57,8.92-6.78,24.36-17.91,51.1-32.75,79.68-43.95,2.05,8.07,5.01,17.65,9.19,27.53,8.13,19.19,20.91,39.5,40.76,52.07,15.56,9.85,35.45,14.95,60.86,11.04,29.81-4.58,50.71-5.49,66.06-3.75h.01c3.65.41,7,.98,10.06,1.69h0c27.97,6.4,33.53,24.16,51.04,42.82,27.04,28.83,135,37.67,186.52,12.28,0,0,0-.01.02-.01.86-.42,1.71-.86,2.54-1.3,12.73,20.53,23.4,42.47,31.71,65.53,4.93,13.64,9.04,27.68,12.25,42.06Z"/>
  <path class="cls-3" d="m637.21,704.92c-5.93,2.65-11.96,5.15-18.06,7.46-8.64-19.35-21.3-43.82-40.19-68.71-9.9-13.07-21.52-26.25-35.17-38.85-4.95-4.59-10.18-9.09-15.68-13.48-9.18-7.35-19.15-14.39-29.98-20.98-9.34-5.68-19.32-11.04-29.99-15.96-138.67-64-191.49-85.53-213.88-151.99-3.19-9.48-7.09-18.61-11.55-27.35-2.12-4.17-4.37-8.24-6.72-12.22h0c-21.2-35.83-51.2-64.12-78-81.89,4.87-15.92,10.85-31.35,17.84-46.21,37.09,18.43,74.12,26.42,101.34,96.47,30.08,77.41,152.75,130.59,164.3,131.56,11.56.97,129.6,58.19,167.47,154.47,15.09,38.37,23.76,66.95,28.27,87.68Z"/>
  <path class="cls-3" d="m784.14,419.69c-7.55,19.21,16.06,23.03,13.63,63.51-.09,1.55-.23,3.16-.4,4.83-2.22,21.28-9.9,33.44-18.88,43.78-10.02,11.53-21.66,20.81-29.17,38-.56,1.28-1.06,2.57-1.5,3.87-3.36,9.73-3.68,19.94-2.52,29.51.24,2,.55,3.97.9,5.89,1.01,5.51,2.44,10.71,3.95,15.37-14.8,15.77-31.05,30.18-48.52,43-2.76,2.02-5.54,4-8.36,5.95-.69-3.59-1.41-7.64-2.1-12.05-4.42-28.24-7.6-71.22,5.94-102.9,5.96-13.96,15.17-25.73,28.95-33.08,19.13-10.21,26.18-22.29,27.46-35.24.99-9.92-1.41-20.34-4.36-30.81-.11-.4-.23-.81-.34-1.21-6.15-21.53-14.16-43.18.5-61.02,22.98-27.95,68.81-42.14,94.3-47.81.33,3.37.61,6.74.84,10.13,0,.21.03.41.04.62-27.38,12.16-46.34,33.53-55.81,50.27-1.9,3.35-3.42,6.52-4.55,9.39Z"/>
  <path class="cls-2" d="m326.01,163.25c0,38.11-30.88,68.99-68.93,68.99-25.93,0-48.57-14.39-60.34-35.6,21.54-34.14,48.8-64.28,80.43-89.11,2.93-2.31,5.91-4.57,8.92-6.78,21.62,10,37.13,30.89,39.58,55.62.23,2.26.34,4.56.34,6.88Z"/>
  <circle class="cls-4" cx="733.07" cy="530.7" r="45.43"/>
  <ellipse class="cls-5" cx="291.28" cy="579.24" rx="49.96" ry="109.88" transform="translate(-324.27 375.62) rotate(-45)"/>
  <circle class="cls-2" cx="790.9" cy="447.03" r="36.81"/>
  <path class="cls-5" d="m608.94,716.1c-17.9,6.2-36.46,10.99-55.54,14.23,5.13-13.15,17.92-22.47,32.89-22.47,8.62,0,16.52,3.09,22.65,8.24Z"/>
  <path class="cls-4" d="m701.63,667.44c-2.76,2.02-5.54,4-8.36,5.95-7.2,4.96-14.59,9.67-22.17,14.1-1.19-2.44-1.86-5.19-1.86-8.09,0-10.16,8.24-18.4,18.41-18.4,1.21,0,2.38.12,3.52.34,4.15.8,7.82,3.01,10.46,6.1Z"/>
  <ellipse class="cls-5" cx="558.06" cy="448.94" rx="20.61" ry="32.6" transform="translate(-150.54 553.17) rotate(-47.18)"/>
  <ellipse class="cls-2" cx="571.49" cy="617.23" rx="20.61" ry="32.6" transform="translate(-269.68 616.94) rotate(-47.18)"/>
  <ellipse class="cls-5" cx="370.58" cy="319.92" rx="20.61" ry="32.6" transform="translate(-115.96 374.32) rotate(-47.18)"/>
  <ellipse class="cls-2" cx="199.91" cy="352.35" rx="20.61" ry="32.6" transform="translate(-194.42 259.52) rotate(-47.18)"/>
  <ellipse class="cls-4" cx="407.08" cy="100.74" rx="67.82" ry="33.91" transform="translate(29.72 283.68) rotate(-39.76)"/>
  <ellipse class="cls-4" cx="578.97" cy="412.38" rx="11.77" ry="17.97" transform="translate(-67.65 707.59) rotate(-60)"/>
  <ellipse class="cls-4" cx="802.63" cy="306" rx="2.96" ry="4.52" transform="translate(136.31 848.1) rotate(-60)"/>
  <ellipse class="cls-4" cx="784.14" cy="319.92" rx="2.96" ry="4.52" transform="translate(115.01 839.05) rotate(-60)"/>
  <ellipse class="cls-2" cx="739.91" cy="603.49" rx="2.96" ry="4.52" transform="translate(-152.68 942.52) rotate(-60)"/>
  <ellipse class="cls-5" cx="411.27" cy="457.07" rx="2.96" ry="4.52" transform="translate(-190.2 584.71) rotate(-60)"/>
  <ellipse class="cls-5" cx="534.16" cy="279.17" rx="2.96" ry="4.52" transform="translate(25.31 602.19) rotate(-60)"/>
  <ellipse class="cls-5" cx="788.37" cy="306" rx="2.96" ry="4.52" transform="translate(129.18 835.75) rotate(-60)"/>
  <ellipse class="cls-2" cx="774.11" cy="301.74" rx="2.96" ry="4.52" transform="translate(125.74 821.26) rotate(-60)"/>
  <ellipse class="cls-4" cx="361.49" cy="430.97" rx="2.96" ry="4.52" transform="translate(-192.48 528.54) rotate(-60)"/>
  <ellipse class="cls-2" cx="390.29" cy="609.18" rx="2.96" ry="4.52" transform="translate(-332.42 642.59) rotate(-60)"/>
  <ellipse class="cls-5" cx="760.17" cy="215.74" rx="2.96" ry="4.52" transform="translate(193.25 766.2) rotate(-60)"/>
  <circle class="cls-2" cx="541.08" cy="384" r="18.4"/>
  <circle class="cls-5" cx="514.25" cy="579.24" r="18.4"/>
  <circle class="cls-2" cx="379.89" cy="460.49" r="18.4"/>
  <circle class="cls-4" cx="254.26" cy="360.73" r="18.4"/>
  <circle class="cls-2" cx="514.25" cy="273.21" r="8.01"/>
  <circle class="cls-4" cx="398.29" cy="631.13" r="8.01"/>
  <circle class="cls-2" cx="527.35" cy="255.57" r="8.01"/>
  <circle class="cls-4" cx="506.24" cy="236.49" r="8.01"/>
  <circle class="cls-4" cx="231.87" cy="327.93" r="8.01"/>
  <path class="cls-2" d="m786.58,189.42c-10.82,11.17-25.97,18.11-42.74,18.11-32.84,0-59.46-26.62-59.46-59.46,0-18,8-34.13,20.63-45.03,19.75,14.86,37.89,31.75,54.09,50.37,9.9,11.38,19.09,23.41,27.48,36.01Z"/>
  <circle class="cls-4" cx="572.42" cy="82.75" r="13.06"/>
  <circle class="cls-4" cx="509.74" cy="699.01" r="12.93"/>
  <circle class="cls-5" cx="601.48" cy="122.32" r="25.12"/>
  <circle class="cls-2" cx="550.32" cy="128.75" r="16.79"/>
  <path class="cls-4" d="m824.55,264.69c-4.95,2.52-10.55,3.94-16.48,3.94-20.1,0-36.4-16.3-36.4-36.4,0-13.65,7.5-25.54,18.61-31.76,0,0,0-.01.02-.01.83-.47,1.67-.9,2.54-1.3,12.73,20.53,23.4,42.47,31.71,65.53Z"/>
</svg>