<?xml version="1.0" encoding="UTF-8"?>
<svg xmlns="http://www.w3.org/2000/svg" viewBox="0 0 2047.72 768.65">
  <defs>
    <style>
      .cls-1 {
        fill: #131f31;
      }

      .cls-2 {
        fill: #eaeaea;
      }
    </style>
  </defs>
  <g id="Layer_2" data-name="Layer 2">
    <rect class="cls-1" y=".65" width="1024" height="768"/>
    <circle class="cls-2" cx="495.1" cy="230.62" r="2.27"/>
    <circle class="cls-2" cx="473.54" cy="290.35" r="2.27"/>
    <circle class="cls-2" cx="398.54" cy="66.31" r="4.61"/>
    <circle class="cls-2" cx="285.39" cy="56.67" r="4.61"/>
    <circle class="cls-2" cx="386.03" cy="94.81" r="2.27"/>
    <circle class="cls-2" cx="300.61" cy="98.11" r="2.27"/>
    <circle class="cls-2" cx="381.49" cy="18.2" r="2.27"/>
    <circle class="cls-2" cx="398.48" cy="124.52" r="2.27"/>
    <circle class="cls-2" cx="339.05" cy="126.79" r="2.27"/>
    <circle class="cls-2" cx="350.72" cy="43.73" r="2.27"/>
    <circle class="cls-2" cx="261.67" cy="137.77" r="2.27"/>
    <circle class="cls-2" cx="202.72" cy="119.97" r="2.27"/>
    <circle class="cls-2" cx="287.66" cy="18.2" r="2.27"/>
    <circle class="cls-2" cx="436.85" cy="39.04" r="4.69"/>
    <circle class="cls-2" cx="394.53" cy="248.67" r="6.22"/>
    <circle class="cls-2" cx="421.32" cy="181.73" r="3.78"/>
    <circle class="cls-2" cx="356.6" cy="170.15" r="3.78"/>
    <circle class="cls-2" cx="221.1" cy="34.35" r="2.27"/>
    <circle class="cls-2" cx="154.07" cy="7.78" r="2.27"/>
    <circle class="cls-2" cx="127.37" cy="48.66" r="2.27"/>
    <circle class="cls-2" cx="65.15" cy="34.35" r="2.27"/>
    <circle class="cls-2" cx="178.33" cy="36.62" r="2.27"/>
    <circle class="cls-2" cx="383.76" cy="346.14" r="2.27"/>
    <circle class="cls-2" cx="396.21" cy="367.48" r="2.27"/>
    <circle class="cls-2" cx="315.1" cy="423.01" r="5.61"/>
    <circle class="cls-2" cx="248.19" cy="397.01" r="2.27"/>
    <circle class="cls-2" cx="241.46" cy="469.51" r="2.27"/>
    <circle class="cls-2" cx="419.81" cy="299.11" r="2.27"/>
    <circle class="cls-2" cx="495.1" cy="348.41" r="2.27"/>
    <circle class="cls-2" cx="558.23" cy="350.68" r="2.27"/>
    <circle class="cls-2" cx="434.43" cy="445.51" r="2.27"/>
    <circle class="cls-2" cx="480.36" cy="421.88" r="2.27"/>
    <circle class="cls-2" cx="519.98" cy="390.74" r="2.27"/>
    <circle class="cls-2" cx="417.54" cy="426.35" r="2.27"/>
    <circle class="cls-2" cx="439.54" cy="383.65" r="2.27"/>
    <circle class="cls-2" cx="565.61" cy="420.82" r="10.07"/>
    <circle class="cls-2" cx="550.99" cy="301.38" r="2.27"/>
    <circle class="cls-2" cx="646.68" cy="329.26" r="6.42"/>
    <circle class="cls-2" cx="597.91" cy="154.81" r="2.27"/>
    <circle class="cls-2" cx="611.15" cy="77.93" r="2.27"/>
    <circle class="cls-2" cx="671.51" cy="33.21" r="5.68"/>
    <circle class="cls-2" cx="672.65" cy="254.89" r="2.27"/>
    <circle class="cls-2" cx="701.98" cy="243.23" r="2.27"/>
    <circle class="cls-2" cx="681.54" cy="292.62" r="2.27"/>
    <circle class="cls-2" cx="692.31" cy="190.4" r="2.27"/>
    <circle class="cls-2" cx="755.32" cy="221.55" r="2.27"/>
    <circle class="cls-2" cx="844.42" cy="210.07" r="6.73"/>
    <circle class="cls-2" cx="966.72" cy="288.17" r="6.73"/>
    <circle class="cls-2" cx="755.32" cy="262.17" r="2.27"/>
    <circle class="cls-2" cx="894.38" cy="257.16" r="2.27"/>
    <circle class="cls-2" cx="935.13" cy="125.7" r="3.36"/>
    <circle class="cls-2" cx="615.69" cy="206.12" r="2.27"/>
    <circle class="cls-2" cx="730.43" cy="154.81" r="2.27"/>
    <circle class="cls-2" cx="732.7" cy="124.52" r="2.27"/>
    <circle class="cls-2" cx="786.82" cy="166.37" r="2.27"/>
    <circle class="cls-2" cx="753.04" cy="32.07" r="2.27"/>
    <circle class="cls-2" cx="952.61" cy="177.95" r="2.27"/>
    <circle class="cls-2" cx="942.43" cy="232.89" r="2.27"/>
    <circle class="cls-2" cx="829.98" cy="98.05" r="2.27"/>
    <circle class="cls-2" cx="959.99" cy="320.57" r="2.27"/>
    <circle class="cls-2" cx="846.6" cy="43.73" r="2.27"/>
    <circle class="cls-2" cx="797.88" cy="70.92" r="2.27"/>
    <circle class="cls-2" cx="915.17" cy="54.4" r="2.27"/>
    <circle class="cls-2" cx="923.67" cy="23.41" r="5.2"/>
    <circle class="cls-2" cx="1011.75" cy="185.57" r="5.2"/>
    <circle class="cls-2" cx="992.31" cy="27.53" r="2.27"/>
    <circle class="cls-2" cx="690.03" cy="54.4" r="2.27"/>
    <circle class="cls-2" cx="597.91" cy="38.89" r="2.27"/>
    <circle class="cls-2" cx="333.35" cy="303.65" r="2.27"/>
    <circle class="cls-2" cx="285.39" cy="348.41" r="2.27"/>
    <circle class="cls-2" cx="292.75" cy="277" r="4.37"/>
    <circle class="cls-2" cx="243.73" cy="254.89" r="4.37"/>
    <circle class="cls-2" cx="209.54" cy="303.65" r="2.27"/>
    <circle class="cls-2" cx="182.87" cy="266.72" r="2.27"/>
    <circle class="cls-2" cx="142.7" cy="214.52" r="2.27"/>
    <circle class="cls-2" cx="82.69" cy="201.58" r="2.27"/>
    <circle class="cls-2" cx="17.64" cy="180.22" r="2.27"/>
    <circle class="cls-2" cx="52.7" cy="240.96" r="2.27"/>
    <circle class="cls-2" cx="62.87" cy="188.12" r="2.27"/>
    <circle class="cls-2" cx="182.87" cy="340.22" r="2.27"/>
    <circle class="cls-2" cx="122.82" cy="348.41" r="2.27"/>
    <circle class="cls-2" cx="122.82" cy="272.63" r="2.27"/>
    <circle class="cls-2" cx="84.96" cy="388.47" r="2.27"/>
    <circle class="cls-2" cx="133.98" cy="430.89" r="2.27"/>
    <circle class="cls-2" cx="227.32" cy="369.75" r="2.27"/>
    <circle class="cls-2" cx="159.76" cy="417.4" r="2.27"/>
    <circle class="cls-2" cx="180.6" cy="467.23" r="2.27"/>
    <circle class="cls-2" cx="80.42" cy="433.16" r="2.27"/>
    <circle class="cls-2" cx="15.37" cy="374.21" r="2.27"/>
    <circle class="cls-2" cx="62.87" cy="292.62" r="2.27"/>
    <circle class="cls-2" cx="19.91" cy="281.37" r="2.27"/>
    <circle class="cls-2" cx="148.39" cy="304.79" r="5.68"/>
    <circle class="cls-2" cx="221.51" cy="89.49" r="5.68"/>
    <circle class="cls-2" cx="560.98" cy="213.84" r="7.71"/>
    <circle class="cls-2" cx="283.12" cy="208.05" r="6.47"/>
    <circle class="cls-2" cx="218.82" cy="164.1" r="2.27"/>
    <circle class="cls-2" cx="227.73" cy="119.97" r="2.27"/>
    <circle class="cls-2" cx="218.82" cy="206.12" r="2.27"/>
    <circle class="cls-2" cx="207.27" cy="157.09" r="2.27"/>
    <circle class="cls-2" cx="125.1" cy="157.09" r="2.27"/>
    <circle class="cls-2" cx="78.14" cy="124.52" r="2.27"/>
    <circle class="cls-2" cx="87.23" cy="91.57" r="2.27"/>
    <circle class="cls-2" cx="60.6" cy="68.64" r="2.27"/>
    <circle class="cls-2" cx="29.1" cy="91.57" r="2.27"/>
    <circle class="cls-2" cx="17.64" cy="33.21" r="2.27"/>
    <circle class="cls-2" cx="154.07" cy="135.49" r="2.27"/>
    <circle class="cls-2" cx="159.76" cy="87.22" r="2.27"/>
    <circle class="cls-2" cx="519.98" cy="107.41" r="5.16"/>
    <circle class="cls-2" cx="532.71" cy="161.82" r="2.27"/>
    <circle class="cls-2" cx="480.36" cy="122.24" r="2.27"/>
    <circle class="cls-2" cx="475.81" cy="77.58" r="2.27"/>
    <circle class="cls-2" cx="550.89" cy="64.2" r="4.45"/>
    <circle class="cls-2" cx="637.98" cy="126.79" r="2.27"/>
    <circle class="cls-2" cx="670.38" cy="97.08" r="2.27"/>
    <circle class="cls-2" cx="800.16" cy="305.93" r="2.27"/>
    <circle class="cls-2" cx="846.6" cy="322.84" r="2.27"/>
    <circle class="cls-2" cx="917.44" cy="312.74" r="2.27"/>
    <circle class="cls-2" cx="889.83" cy="376.48" r="2.27"/>
    <circle class="cls-2" cx="931.77" cy="401.56" r="2.27"/>
    <circle class="cls-2" cx="977.44" cy="415.19" r="2.27"/>
    <circle class="cls-2" cx="862.87" cy="152.54" r="2.27"/>
    <circle class="cls-2" cx="971.76" cy="73.19" r="2.27"/>
    <circle class="cls-2" cx="892.1" cy="89.49" r="2.27"/>
    <circle class="cls-2" cx="608.87" cy="262.17" r="2.27"/>
    <circle class="cls-2" cx="658.43" cy="374.21" r="2.27"/>
    <circle class="cls-2" cx="665.83" cy="399.29" r="2.27"/>
    <circle class="cls-2" cx="728.16" cy="333.41" r="2.27"/>
    <circle class="cls-2" cx="789.1" cy="386.2" r="2.27"/>
    <circle class="cls-2" cx="827.71" cy="378.76" r="2.27"/>
    <circle class="cls-2" cx="844.32" cy="428.62" r="2.27"/>
    <circle class="cls-2" cx="898.92" cy="453.78" r="2.27"/>
    <circle class="cls-2" cx="1001.89" cy="453.78" r="2.27"/>
    <circle class="cls-2" cx="750.85" cy="367.48" r="4.46"/>
    <circle class="cls-2" cx="753.04" cy="426.35" r="4.46"/>
    <circle class="cls-2" cx="1019.22" cy="98.11" r="2.27"/>
    <circle class="cls-2" cx="989.84" cy="335.68" r="2.27"/>
    <circle class="cls-2" cx="1008.82" cy="245.51" r="2.27"/>
    <circle class="cls-2" cx="992.11" cy="374.21" r="5.68"/>
    <circle class="cls-2" cx="996.86" cy="133.29" r="2.27"/>
    <circle class="cls-2" cx="497.78" cy="686.19" r="2.27"/>
    <circle class="cls-2" cx="476.23" cy="745.92" r="2.27"/>
    <circle class="cls-2" cx="401.23" cy="521.88" r="4.61"/>
    <circle class="cls-2" cx="388.72" cy="550.38" r="2.27"/>
    <circle class="cls-2" cx="303.29" cy="553.68" r="2.27"/>
    <circle class="cls-2" cx="253.16" cy="545.06" r="2.27"/>
    <circle class="cls-2" cx="384.18" cy="473.77" r="2.27"/>
    <circle class="cls-2" cx="401.17" cy="580.09" r="2.27"/>
    <circle class="cls-2" cx="341.74" cy="582.36" r="2.27"/>
    <circle class="cls-2" cx="353.41" cy="499.3" r="2.27"/>
    <circle class="cls-2" cx="363.06" cy="412.92" r="2.27"/>
    <circle class="cls-2" cx="264.36" cy="593.34" r="2.27"/>
    <circle class="cls-2" cx="232.28" cy="575.54" r="2.27"/>
    <circle class="cls-2" cx="290.35" cy="473.77" r="2.27"/>
    <circle class="cls-2" cx="439.54" cy="494.61" r="4.69"/>
    <circle class="cls-2" cx="397.22" cy="704.24" r="6.22"/>
    <circle class="cls-2" cx="424.01" cy="637.3" r="3.78"/>
    <circle class="cls-2" cx="359.29" cy="625.72" r="3.78"/>
    <circle class="cls-2" cx="223.78" cy="489.92" r="2.27"/>
    <circle class="cls-2" cx="156.76" cy="463.35" r="2.27"/>
    <circle class="cls-2" cx="130.06" cy="504.23" r="2.27"/>
    <circle class="cls-2" cx="67.83" cy="489.92" r="2.27"/>
    <circle class="cls-2" cx="181.02" cy="492.19" r="2.27"/>
    <circle class="cls-2" cx="422.5" cy="754.68" r="2.27"/>
    <circle class="cls-2" cx="553.68" cy="756.95" r="2.27"/>
    <circle class="cls-2" cx="600.6" cy="610.38" r="2.27"/>
    <circle class="cls-2" cx="613.83" cy="533.5" r="2.27"/>
    <circle class="cls-2" cx="674.2" cy="488.78" r="5.68"/>
    <circle class="cls-2" cx="675.34" cy="710.46" r="2.27"/>
    <circle class="cls-2" cx="704.67" cy="698.8" r="2.27"/>
    <circle class="cls-2" cx="684.23" cy="748.19" r="2.27"/>
    <circle class="cls-2" cx="695" cy="645.97" r="2.27"/>
    <circle class="cls-2" cx="758.01" cy="677.12" r="2.27"/>
    <circle class="cls-2" cx="847.1" cy="665.64" r="6.73"/>
    <circle class="cls-2" cx="969.41" cy="743.74" r="6.73"/>
    <circle class="cls-2" cx="758.01" cy="717.74" r="2.27"/>
    <circle class="cls-2" cx="814.73" cy="724.56" r="2.27"/>
    <circle class="cls-2" cx="897.07" cy="712.73" r="2.27"/>
    <circle class="cls-2" cx="937.82" cy="581.27" r="3.36"/>
    <circle class="cls-2" cx="618.38" cy="661.69" r="2.27"/>
    <circle class="cls-2" cx="733.12" cy="610.38" r="2.27"/>
    <circle class="cls-2" cx="735.39" cy="580.09" r="2.27"/>
    <circle class="cls-2" cx="789.51" cy="621.94" r="2.27"/>
    <circle class="cls-2" cx="755.73" cy="487.64" r="2.27"/>
    <circle class="cls-2" cx="955.29" cy="633.52" r="2.27"/>
    <circle class="cls-2" cx="945.12" cy="688.46" r="2.27"/>
    <circle class="cls-2" cx="832.67" cy="553.62" r="2.27"/>
    <circle class="cls-2" cx="849.29" cy="499.3" r="2.27"/>
    <circle class="cls-2" cx="800.57" cy="526.49" r="2.27"/>
    <circle class="cls-2" cx="917.86" cy="509.97" r="2.27"/>
    <circle class="cls-2" cx="926.36" cy="478.98" r="5.2"/>
    <circle class="cls-2" cx="1014.44" cy="641.14" r="5.2"/>
    <circle class="cls-2" cx="995" cy="483.1" r="2.27"/>
    <circle class="cls-2" cx="692.72" cy="509.97" r="2.27"/>
    <circle class="cls-2" cx="595.64" cy="378.76" r="2.27"/>
    <circle class="cls-2" cx="600.6" cy="494.46" r="2.27"/>
    <circle class="cls-2" cx="635.71" cy="451.5" r="2.27"/>
    <circle class="cls-2" cx="336.04" cy="759.22" r="2.27"/>
    <circle class="cls-2" cx="295.44" cy="732.57" r="4.37"/>
    <circle class="cls-2" cx="255.43" cy="710.46" r="4.37"/>
    <circle class="cls-2" cx="212.23" cy="759.22" r="2.27"/>
    <circle class="cls-2" cx="185.56" cy="722.29" r="2.27"/>
    <circle class="cls-2" cx="145.39" cy="670.09" r="2.27"/>
    <circle class="cls-2" cx="85.38" cy="657.15" r="2.27"/>
    <circle class="cls-2" cx="20.33" cy="635.79" r="2.27"/>
    <circle class="cls-2" cx="55.39" cy="696.53" r="2.27"/>
    <circle class="cls-2" cx="65.56" cy="643.69" r="2.27"/>
    <circle class="cls-2" cx="125.51" cy="728.2" r="2.27"/>
    <circle class="cls-2" cx="65.56" cy="748.19" r="2.27"/>
    <circle class="cls-2" cx="22.6" cy="736.94" r="2.27"/>
    <circle class="cls-2" cx="151.08" cy="760.36" r="5.68"/>
    <circle class="cls-2" cx="92.2" cy="708.19" r="5.68"/>
    <circle class="cls-2" cx="563.67" cy="669.41" r="7.71"/>
    <circle class="cls-2" cx="285.81" cy="663.62" r="6.47"/>
    <circle class="cls-2" cx="211.81" cy="535.77" r="6.47"/>
    <circle class="cls-2" cx="221.51" cy="619.67" r="2.27"/>
    <circle class="cls-2" cx="221.51" cy="661.69" r="2.27"/>
    <circle class="cls-2" cx="209.96" cy="612.66" r="2.27"/>
    <circle class="cls-2" cx="127.78" cy="612.66" r="2.27"/>
    <circle class="cls-2" cx="80.83" cy="580.09" r="2.27"/>
    <circle class="cls-2" cx="89.92" cy="547.14" r="2.27"/>
    <circle class="cls-2" cx="63.29" cy="524.21" r="2.27"/>
    <circle class="cls-2" cx="31.79" cy="547.14" r="2.27"/>
    <circle class="cls-2" cx="20.33" cy="488.78" r="2.27"/>
    <circle class="cls-2" cx="156.76" cy="591.06" r="2.27"/>
    <circle class="cls-2" cx="162.45" cy="542.79" r="2.27"/>
    <circle class="cls-2" cx="522.67" cy="562.98" r="5.16"/>
    <circle class="cls-2" cx="512" cy="480.82" r="5.16"/>
    <circle class="cls-2" cx="535.4" cy="617.39" r="2.27"/>
    <circle class="cls-2" cx="483.05" cy="577.81" r="2.27"/>
    <circle class="cls-2" cx="478.5" cy="533.15" r="2.27"/>
    <circle class="cls-2" cx="553.58" cy="519.77" r="4.45"/>
    <circle class="cls-2" cx="640.67" cy="582.36" r="2.27"/>
    <circle class="cls-2" cx="673.07" cy="552.65" r="2.27"/>
    <circle class="cls-2" cx="802.84" cy="761.49" r="2.27"/>
    <circle class="cls-2" cx="897.07" cy="754.03" r="2.27"/>
    <circle class="cls-2" cx="865.56" cy="608.11" r="2.27"/>
    <circle class="cls-2" cx="974.45" cy="528.76" r="2.27"/>
    <circle class="cls-2" cx="894.79" cy="545.06" r="2.27"/>
    <circle class="cls-2" cx="611.56" cy="717.74" r="2.27"/>
    <circle class="cls-2" cx="1021.91" cy="553.68" r="2.27"/>
    <circle class="cls-2" cx="1011.51" cy="701.08" r="2.27"/>
    <circle class="cls-2" cx="999.55" cy="588.86" r="2.27"/>
  </g>
  <g id="Layer_1" data-name="Layer 1">
    <rect class="cls-1" x="1023.54" width="1024" height="768"/>
    <circle class="cls-2" cx="1518.63" cy="229.97" r="2.27"/>
    <circle class="cls-2" cx="1497.08" cy="289.7" r="2.27"/>
    <circle class="cls-2" cx="1422.08" cy="65.66" r="4.61"/>
    <circle class="cls-2" cx="1308.93" cy="56.03" r="4.61"/>
    <circle class="cls-2" cx="1409.57" cy="94.16" r="2.27"/>
    <circle class="cls-2" cx="1324.14" cy="97.47" r="2.27"/>
    <circle class="cls-2" cx="1405.03" cy="17.56" r="2.27"/>
    <circle class="cls-2" cx="1422.02" cy="123.87" r="2.27"/>
    <circle class="cls-2" cx="1362.58" cy="126.14" r="2.27"/>
    <circle class="cls-2" cx="1374.26" cy="43.08" r="2.27"/>
    <circle class="cls-2" cx="1285.21" cy="137.12" r="2.27"/>
    <circle class="cls-2" cx="1226.26" cy="119.32" r="2.27"/>
    <circle class="cls-2" cx="1311.2" cy="17.56" r="2.27"/>
    <circle class="cls-2" cx="1460.38" cy="38.39" r="4.69"/>
    <circle class="cls-2" cx="1418.07" cy="248.02" r="6.22"/>
    <circle class="cls-2" cx="1444.85" cy="181.08" r="3.78"/>
    <circle class="cls-2" cx="1380.13" cy="169.5" r="3.78"/>
    <circle class="cls-2" cx="1244.63" cy="33.7" r="2.27"/>
    <circle class="cls-2" cx="1177.61" cy="7.13" r="2.27"/>
    <circle class="cls-2" cx="1150.9" cy="48.02" r="2.27"/>
    <circle class="cls-2" cx="1088.68" cy="33.7" r="2.27"/>
    <circle class="cls-2" cx="1201.86" cy="35.97" r="2.27"/>
    <circle class="cls-2" cx="1407.3" cy="345.49" r="2.27"/>
    <circle class="cls-2" cx="1419.74" cy="366.83" r="2.27"/>
    <circle class="cls-2" cx="1338.64" cy="422.36" r="5.61"/>
    <circle class="cls-2" cx="1271.73" cy="396.37" r="2.27"/>
    <circle class="cls-2" cx="1265" cy="468.86" r="2.27"/>
    <circle class="cls-2" cx="1443.35" cy="298.46" r="2.27"/>
    <circle class="cls-2" cx="1518.63" cy="347.76" r="2.27"/>
    <circle class="cls-2" cx="1581.77" cy="350.04" r="2.27"/>
    <circle class="cls-2" cx="1457.97" cy="444.86" r="2.27"/>
    <circle class="cls-2" cx="1503.89" cy="421.23" r="2.27"/>
    <circle class="cls-2" cx="1543.52" cy="390.1" r="2.27"/>
    <circle class="cls-2" cx="1441.08" cy="425.7" r="2.27"/>
    <circle class="cls-2" cx="1463.07" cy="383" r="2.27"/>
    <circle class="cls-2" cx="1589.14" cy="420.18" r="10.07"/>
    <circle class="cls-2" cx="1574.53" cy="300.73" r="2.27"/>
    <circle class="cls-2" cx="1670.21" cy="328.61" r="6.42"/>
    <circle class="cls-2" cx="1621.45" cy="154.17" r="2.27"/>
    <circle class="cls-2" cx="1634.68" cy="77.28" r="2.27"/>
    <circle class="cls-2" cx="1695.05" cy="32.56" r="5.68"/>
    <circle class="cls-2" cx="1696.19" cy="254.24" r="2.27"/>
    <circle class="cls-2" cx="1725.52" cy="242.59" r="2.27"/>
    <circle class="cls-2" cx="1705.08" cy="291.97" r="2.27"/>
    <circle class="cls-2" cx="1715.84" cy="189.75" r="2.27"/>
    <circle class="cls-2" cx="1778.85" cy="220.9" r="2.27"/>
    <circle class="cls-2" cx="1867.95" cy="209.42" r="6.73"/>
    <circle class="cls-2" cx="1990.26" cy="287.52" r="6.73"/>
    <circle class="cls-2" cx="1778.85" cy="261.53" r="2.27"/>
    <circle class="cls-2" cx="1917.91" cy="256.52" r="2.27"/>
    <circle class="cls-2" cx="1958.67" cy="125.06" r="3.36"/>
    <circle class="cls-2" cx="1639.23" cy="205.48" r="2.27"/>
    <circle class="cls-2" cx="1753.97" cy="154.17" r="2.27"/>
    <circle class="cls-2" cx="1756.24" cy="123.87" r="2.27"/>
    <circle class="cls-2" cx="1810.36" cy="165.72" r="2.27"/>
    <circle class="cls-2" cx="1776.58" cy="31.43" r="2.27"/>
    <circle class="cls-2" cx="1976.14" cy="177.3" r="2.27"/>
    <circle class="cls-2" cx="1965.97" cy="232.24" r="2.27"/>
    <circle class="cls-2" cx="1853.52" cy="97.4" r="2.27"/>
    <circle class="cls-2" cx="1983.53" cy="319.92" r="2.27"/>
    <circle class="cls-2" cx="1870.13" cy="43.08" r="2.27"/>
    <circle class="cls-2" cx="1821.42" cy="70.27" r="2.27"/>
    <circle class="cls-2" cx="1938.71" cy="53.75" r="2.27"/>
    <circle class="cls-2" cx="1947.21" cy="22.76" r="5.2"/>
    <circle class="cls-2" cx="2035.28" cy="184.93" r="5.2"/>
    <circle class="cls-2" cx="2015.85" cy="26.88" r="2.27"/>
    <circle class="cls-2" cx="1713.57" cy="53.75" r="2.27"/>
    <circle class="cls-2" cx="1621.45" cy="38.24" r="2.27"/>
    <circle class="cls-2" cx="1356.89" cy="303" r="2.27"/>
    <circle class="cls-2" cx="1308.93" cy="347.76" r="2.27"/>
    <circle class="cls-2" cx="1316.29" cy="276.35" r="4.37"/>
    <circle class="cls-2" cx="1267.27" cy="254.24" r="4.37"/>
    <circle class="cls-2" cx="1233.08" cy="303" r="2.27"/>
    <circle class="cls-2" cx="1206.41" cy="266.07" r="2.27"/>
    <circle class="cls-2" cx="1166.24" cy="213.87" r="2.27"/>
    <circle class="cls-2" cx="1106.22" cy="200.93" r="2.27"/>
    <circle class="cls-2" cx="1041.18" cy="179.58" r="2.27"/>
    <circle class="cls-2" cx="1076.24" cy="240.31" r="2.27"/>
    <circle class="cls-2" cx="1086.41" cy="187.48" r="2.27"/>
    <circle class="cls-2" cx="1206.41" cy="339.58" r="2.27"/>
    <circle class="cls-2" cx="1146.36" cy="347.76" r="2.27"/>
    <circle class="cls-2" cx="1146.36" cy="271.98" r="2.27"/>
    <circle class="cls-2" cx="1108.5" cy="387.82" r="2.27"/>
    <circle class="cls-2" cx="1157.52" cy="430.24" r="2.27"/>
    <circle class="cls-2" cx="1250.86" cy="369.1" r="2.27"/>
    <circle class="cls-2" cx="1183.3" cy="416.75" r="2.27"/>
    <circle class="cls-2" cx="1204.14" cy="466.59" r="2.27"/>
    <circle class="cls-2" cx="1103.95" cy="432.52" r="2.27"/>
    <circle class="cls-2" cx="1038.9" cy="373.56" r="2.27"/>
    <circle class="cls-2" cx="1086.41" cy="291.97" r="2.27"/>
    <circle class="cls-2" cx="1043.45" cy="280.73" r="2.27"/>
    <circle class="cls-2" cx="1171.92" cy="304.14" r="5.68"/>
    <circle class="cls-2" cx="1245.05" cy="88.84" r="5.68"/>
    <circle class="cls-2" cx="1584.52" cy="213.19" r="7.71"/>
    <circle class="cls-2" cx="1306.66" cy="207.4" r="6.47"/>
    <circle class="cls-2" cx="1242.36" cy="163.45" r="2.27"/>
    <circle class="cls-2" cx="1251.27" cy="119.32" r="2.27"/>
    <circle class="cls-2" cx="1242.36" cy="205.48" r="2.27"/>
    <circle class="cls-2" cx="1230.8" cy="156.44" r="2.27"/>
    <circle class="cls-2" cx="1148.63" cy="156.44" r="2.27"/>
    <circle class="cls-2" cx="1101.68" cy="123.87" r="2.27"/>
    <circle class="cls-2" cx="1110.77" cy="90.93" r="2.27"/>
    <circle class="cls-2" cx="1084.14" cy="68" r="2.27"/>
    <circle class="cls-2" cx="1052.64" cy="90.93" r="2.27"/>
    <circle class="cls-2" cx="1041.18" cy="32.56" r="2.27"/>
    <circle class="cls-2" cx="1177.61" cy="134.85" r="2.27"/>
    <circle class="cls-2" cx="1183.3" cy="86.57" r="2.27"/>
    <circle class="cls-2" cx="1543.52" cy="106.76" r="5.16"/>
    <circle class="cls-2" cx="1556.25" cy="161.18" r="2.27"/>
    <circle class="cls-2" cx="1503.89" cy="121.6" r="2.27"/>
    <circle class="cls-2" cx="1499.35" cy="76.94" r="2.27"/>
    <circle class="cls-2" cx="1574.43" cy="63.55" r="4.45"/>
    <circle class="cls-2" cx="1661.52" cy="126.14" r="2.27"/>
    <circle class="cls-2" cx="1693.91" cy="96.44" r="2.27"/>
    <circle class="cls-2" cx="1823.69" cy="305.28" r="2.27"/>
    <circle class="cls-2" cx="1870.13" cy="322.19" r="2.27"/>
    <circle class="cls-2" cx="1940.98" cy="312.1" r="2.27"/>
    <circle class="cls-2" cx="1913.37" cy="375.84" r="2.27"/>
    <circle class="cls-2" cx="1955.31" cy="400.91" r="2.27"/>
    <circle class="cls-2" cx="2000.98" cy="414.54" r="2.27"/>
    <circle class="cls-2" cx="1886.41" cy="151.89" r="2.27"/>
    <circle class="cls-2" cx="1995.3" cy="72.54" r="2.27"/>
    <circle class="cls-2" cx="1915.64" cy="88.84" r="2.27"/>
    <circle class="cls-2" cx="1632.41" cy="261.53" r="2.27"/>
    <circle class="cls-2" cx="1681.97" cy="373.56" r="2.27"/>
    <circle class="cls-2" cx="1689.37" cy="398.64" r="2.27"/>
    <circle class="cls-2" cx="1751.69" cy="332.76" r="2.27"/>
    <circle class="cls-2" cx="1812.63" cy="385.55" r="2.27"/>
    <circle class="cls-2" cx="1851.25" cy="378.11" r="2.27"/>
    <circle class="cls-2" cx="1867.86" cy="427.97" r="2.27"/>
    <circle class="cls-2" cx="1922.46" cy="453.13" r="2.27"/>
    <circle class="cls-2" cx="2025.43" cy="453.13" r="2.27"/>
    <circle class="cls-2" cx="1774.39" cy="366.83" r="4.46"/>
    <circle class="cls-2" cx="1776.58" cy="425.7" r="4.46"/>
    <circle class="cls-2" cx="2042.76" cy="97.47" r="2.27"/>
    <circle class="cls-2" cx="2013.38" cy="335.03" r="2.27"/>
    <circle class="cls-2" cx="2032.35" cy="244.86" r="2.27"/>
    <circle class="cls-2" cx="2015.65" cy="373.56" r="5.68"/>
    <circle class="cls-2" cx="2020.4" cy="132.64" r="2.27"/>
    <circle class="cls-2" cx="1521.32" cy="685.54" r="2.27"/>
    <circle class="cls-2" cx="1499.77" cy="745.27" r="2.27"/>
    <circle class="cls-2" cx="1424.76" cy="521.23" r="4.61"/>
    <circle class="cls-2" cx="1412.26" cy="549.73" r="2.27"/>
    <circle class="cls-2" cx="1326.83" cy="553.03" r="2.27"/>
    <circle class="cls-2" cx="1276.69" cy="544.41" r="2.27"/>
    <circle class="cls-2" cx="1407.71" cy="473.13" r="2.27"/>
    <circle class="cls-2" cx="1424.7" cy="579.44" r="2.27"/>
    <circle class="cls-2" cx="1365.27" cy="581.71" r="2.27"/>
    <circle class="cls-2" cx="1376.94" cy="498.65" r="2.27"/>
    <circle class="cls-2" cx="1386.6" cy="412.27" r="2.27"/>
    <circle class="cls-2" cx="1287.9" cy="592.69" r="2.27"/>
    <circle class="cls-2" cx="1255.82" cy="574.89" r="2.27"/>
    <circle class="cls-2" cx="1313.89" cy="473.13" r="2.27"/>
    <circle class="cls-2" cx="1463.07" cy="493.96" r="4.69"/>
    <circle class="cls-2" cx="1420.76" cy="703.59" r="6.22"/>
    <circle class="cls-2" cx="1447.54" cy="636.65" r="3.78"/>
    <circle class="cls-2" cx="1382.82" cy="625.07" r="3.78"/>
    <circle class="cls-2" cx="1247.32" cy="489.27" r="2.27"/>
    <circle class="cls-2" cx="1180.29" cy="462.7" r="2.27"/>
    <circle class="cls-2" cx="1153.59" cy="503.59" r="2.27"/>
    <circle class="cls-2" cx="1091.37" cy="489.27" r="2.27"/>
    <circle class="cls-2" cx="1204.55" cy="491.54" r="2.27"/>
    <circle class="cls-2" cx="1446.04" cy="754.03" r="2.27"/>
    <circle class="cls-2" cx="1577.22" cy="756.3" r="2.27"/>
    <circle class="cls-2" cx="1624.14" cy="609.74" r="2.27"/>
    <circle class="cls-2" cx="1637.37" cy="532.85" r="2.27"/>
    <circle class="cls-2" cx="1697.74" cy="488.13" r="5.68"/>
    <circle class="cls-2" cx="1698.88" cy="709.81" r="2.27"/>
    <circle class="cls-2" cx="1728.21" cy="698.16" r="2.27"/>
    <circle class="cls-2" cx="1707.77" cy="747.54" r="2.27"/>
    <circle class="cls-2" cx="1718.53" cy="645.32" r="2.27"/>
    <circle class="cls-2" cx="1781.54" cy="676.47" r="2.27"/>
    <circle class="cls-2" cx="1870.64" cy="664.99" r="6.73"/>
    <circle class="cls-2" cx="1992.95" cy="743.09" r="6.73"/>
    <circle class="cls-2" cx="1781.54" cy="717.1" r="2.27"/>
    <circle class="cls-2" cx="1838.26" cy="723.91" r="2.27"/>
    <circle class="cls-2" cx="1920.6" cy="712.09" r="2.27"/>
    <circle class="cls-2" cx="1961.36" cy="580.63" r="3.36"/>
    <circle class="cls-2" cx="1641.92" cy="661.05" r="2.27"/>
    <circle class="cls-2" cx="1756.65" cy="609.74" r="2.27"/>
    <circle class="cls-2" cx="1758.93" cy="579.44" r="2.27"/>
    <circle class="cls-2" cx="1813.05" cy="621.29" r="2.27"/>
    <circle class="cls-2" cx="1779.27" cy="486.99" r="2.27"/>
    <circle class="cls-2" cx="1978.83" cy="632.87" r="2.27"/>
    <circle class="cls-2" cx="1968.65" cy="687.81" r="2.27"/>
    <circle class="cls-2" cx="1856.21" cy="552.97" r="2.27"/>
    <circle class="cls-2" cx="1872.82" cy="498.65" r="2.27"/>
    <circle class="cls-2" cx="1824.11" cy="525.84" r="2.27"/>
    <circle class="cls-2" cx="1941.4" cy="509.32" r="2.27"/>
    <circle class="cls-2" cx="1949.9" cy="478.33" r="5.2"/>
    <circle class="cls-2" cx="2037.97" cy="640.5" r="5.2"/>
    <circle class="cls-2" cx="2018.54" cy="482.45" r="2.27"/>
    <circle class="cls-2" cx="1716.26" cy="509.32" r="2.27"/>
    <circle class="cls-2" cx="1619.17" cy="378.11" r="2.27"/>
    <circle class="cls-2" cx="1624.14" cy="493.81" r="2.27"/>
    <circle class="cls-2" cx="1659.25" cy="450.86" r="2.27"/>
    <circle class="cls-2" cx="1359.58" cy="758.57" r="2.27"/>
    <circle class="cls-2" cx="1318.98" cy="731.92" r="4.37"/>
    <circle class="cls-2" cx="1278.96" cy="709.81" r="4.37"/>
    <circle class="cls-2" cx="1235.77" cy="758.57" r="2.27"/>
    <circle class="cls-2" cx="1209.1" cy="721.64" r="2.27"/>
    <circle class="cls-2" cx="1168.93" cy="669.44" r="2.27"/>
    <circle class="cls-2" cx="1108.91" cy="656.5" r="2.27"/>
    <circle class="cls-2" cx="1043.87" cy="635.15" r="2.27"/>
    <circle class="cls-2" cx="1078.93" cy="695.88" r="2.27"/>
    <circle class="cls-2" cx="1089.1" cy="643.05" r="2.27"/>
    <circle class="cls-2" cx="1149.05" cy="727.55" r="2.27"/>
    <circle class="cls-2" cx="1089.1" cy="747.54" r="2.27"/>
    <circle class="cls-2" cx="1046.14" cy="736.3" r="2.27"/>
    <circle class="cls-2" cx="1174.61" cy="759.71" r="5.68"/>
    <circle class="cls-2" cx="1115.73" cy="707.54" r="5.68"/>
    <circle class="cls-2" cx="1587.21" cy="668.76" r="7.71"/>
    <circle class="cls-2" cx="1309.34" cy="662.97" r="6.47"/>
    <circle class="cls-2" cx="1235.35" cy="535.13" r="6.47"/>
    <circle class="cls-2" cx="1245.05" cy="619.02" r="2.27"/>
    <circle class="cls-2" cx="1245.05" cy="661.05" r="2.27"/>
    <circle class="cls-2" cx="1233.49" cy="612.01" r="2.27"/>
    <circle class="cls-2" cx="1151.32" cy="612.01" r="2.27"/>
    <circle class="cls-2" cx="1104.37" cy="579.44" r="2.27"/>
    <circle class="cls-2" cx="1113.46" cy="546.5" r="2.27"/>
    <circle class="cls-2" cx="1086.83" cy="523.57" r="2.27"/>
    <circle class="cls-2" cx="1055.32" cy="546.5" r="2.27"/>
    <circle class="cls-2" cx="1043.87" cy="488.13" r="2.27"/>
    <circle class="cls-2" cx="1180.29" cy="590.42" r="2.27"/>
    <circle class="cls-2" cx="1185.98" cy="542.14" r="2.27"/>
    <circle class="cls-2" cx="1546.21" cy="562.33" r="5.16"/>
    <circle class="cls-2" cx="1535.54" cy="480.18" r="5.16"/>
    <circle class="cls-2" cx="1558.94" cy="616.75" r="2.27"/>
    <circle class="cls-2" cx="1506.58" cy="577.17" r="2.27"/>
    <circle class="cls-2" cx="1502.04" cy="532.51" r="2.27"/>
    <circle class="cls-2" cx="1577.12" cy="519.12" r="4.45"/>
    <circle class="cls-2" cx="1664.21" cy="581.71" r="2.27"/>
    <circle class="cls-2" cx="1696.6" cy="552" r="2.27"/>
    <circle class="cls-2" cx="1826.38" cy="760.85" r="2.27"/>
    <circle class="cls-2" cx="1906.19" cy="751.76" r="2.27"/>
    <circle class="cls-2" cx="1889.1" cy="607.46" r="2.27"/>
    <circle class="cls-2" cx="1997.99" cy="528.11" r="2.27"/>
    <circle class="cls-2" cx="1918.33" cy="544.41" r="2.27"/>
    <circle class="cls-2" cx="1635.1" cy="717.1" r="2.27"/>
    <circle class="cls-2" cx="2045.45" cy="553.03" r="2.27"/>
    <circle class="cls-2" cx="2035.04" cy="700.43" r="2.27"/>
    <circle class="cls-2" cx="2023.08" cy="588.21" r="2.27"/>
  </g>
</svg>