<?xml version="1.0" encoding="UTF-8"?><svg xmlns="http://www.w3.org/2000/svg" viewBox="0 0 1024 768"><defs><style>.d{fill:#006838;}.e{fill:#f04b59;}.f{fill:#c32126;}.g{fill:#c25c2e;}.h{fill:#ab4b28;}.i{fill:#0b8044;}.j{fill:#378c42;}</style></defs><g id="a"/><g id="b"><g><rect class="d" x="529.65" y="442.32" width="5.9" height="63.41" transform="translate(415.41 -229.28) rotate(38.87)"/><rect class="d" x="478.07" y="399.78" width="5.9" height="63.41" transform="translate(-156.79 535.21) rotate(-51.13)"/><path class="i" d="M466.1,419.19s-16.46,14.18-43.44-5.85c-26.98-20.03-19.43-37.13-19.43-37.13,0,0,15.32,7.88,33.84,7.2,18.52-.68,29.04,16.72,29.04,16.72,0,0,3.89,8.25,0,19.05Z"/><path class="j" d="M465.82,419.04c-3.32-3.43-8.02-5.1-12.4-6.75-5.19-1.95-10.48-3.62-15.7-5.5-9.6-3.46-19.3-7.81-26.37-15.42-3.67-3.96-6.48-8.68-7.8-13.93-.08-.31-.56-.18-.48,.13,5.23,20.76,28.21,27.44,45.92,33.65,3.1,1.09,6.2,2.21,9.22,3.52,2.67,1.16,5.23,2.55,7.27,4.66,.22,.23,.58-.12,.35-.35h0Z"/><path class="j" d="M426.7,382.81c-2.08,2.02-2.12,5.22-1.78,7.9,.21,1.63,.54,3.24,.6,4.89s-.03,4.04-1.45,5.12c-.25,.19,0,.63,.25,.43,2.18-1.66,1.83-5.48,1.49-7.84-.47-3.26-1.45-7.53,1.24-10.15,.23-.22-.12-.58-.35-.35h0Z"/><path class="j" d="M448.98,385.49c-2.72,3.05-6.15,5.58-7.47,9.62-.69,2.13-.78,4.4-.75,6.62s.03,4.53,.71,6.67c.1,.31,.58,.17,.48-.13-.67-2.1-.66-4.35-.69-6.54s.05-4.4,.73-6.49c1.29-3.94,4.69-6.42,7.34-9.4,.21-.24-.14-.59-.35-.35h0Z"/><path class="j" d="M441.43,408.42c-2.32,.6-4.11,2.44-4.95,4.64-.47,1.23-.64,2.56-.62,3.87,.03,1.47,.43,2.91,.57,4.37,.03,.32,.53,.32,.5,0-.12-1.25-.43-2.47-.54-3.72s0-2.57,.36-3.78c.69-2.31,2.44-4.29,4.81-4.91,.31-.08,.18-.56-.13-.48h0Z"/><path class="j" d="M412.09,403.81c1.32-1.84,3.48-2.79,5.72-2.62,1.09,.08,2.16,.29,3.25,.33,1.02,.04,2.01-.15,3.02-.15,.32,0,.32-.5,0-.5-.5,0-1,.11-1.5,.14-.62,.04-1.25,.04-1.87,0-1.28-.07-2.55-.4-3.83-.33-2.08,.11-4,1.2-5.22,2.89-.19,.26,.25,.51,.43,.25h0Z"/><path class="i" d="M547.26,454.91s16.46,14.18,43.44-5.85c26.98-20.03,19.43-37.13,19.43-37.13,0,0-15.32,7.88-33.84,7.2-18.52-.68-29.04,16.72-29.04,16.72,0,0-3.89,8.25,0,19.05Z"/><path class="j" d="M547.89,455.11c3.78-3.91,9.45-5.65,14.44-7.45,5.27-1.9,10.63-3.59,15.87-5.57,9.2-3.47,18.39-8,24.95-15.54,3.34-3.83,5.88-8.32,7.13-13.26,.08-.31-.4-.45-.48-.13-2.42,9.6-9.63,17.01-17.92,21.99-9.29,5.58-19.81,8.46-29.92,12.12-5,1.81-10.64,3.58-14.43,7.5-.22,.23,.13,.59,.35,.35h0Z"/><path class="j" d="M589.29,436.45c-1.42-1.08-1.51-3.5-1.45-5.12s.38-3.26,.6-4.89c.35-2.68,.3-5.88-1.78-7.9-.23-.22-.58,.13-.35,.35,2.69,2.62,1.71,6.88,1.24,10.15-.34,2.37-.69,6.19,1.49,7.84,.26,.19,.51-.24,.25-.43h0Z"/><path class="j" d="M571.89,444.12c.66-2.08,.66-4.3,.71-6.47,.04-2.29-.03-4.63-.74-6.82-1.32-4.04-4.75-6.56-7.47-9.62-.21-.24-.57,.11-.35,.35,2.65,2.98,6.06,5.45,7.34,9.4,.68,2.09,.76,4.31,.73,6.49s-.02,4.44-.69,6.54c-.1,.31,.38,.44,.48,.13h0Z"/><path class="j" d="M576.93,457.02c.13-1.43,.53-2.83,.57-4.26,.03-1.35-.14-2.72-.62-3.98-.84-2.21-2.63-4.04-4.95-4.64-.31-.08-.44,.4-.13,.48,2.37,.62,4.12,2.6,4.81,4.91,.35,1.18,.46,2.44,.37,3.67-.09,1.29-.43,2.55-.55,3.83-.03,.32,.47,.32,.5,0h0Z"/><path class="j" d="M589.27,437.08c.97,0,1.93,.19,2.9,.16,1.13-.03,2.24-.25,3.37-.33,2.24-.17,4.39,.78,5.72,2.62,.19,.26,.62,0,.43-.25-1.22-1.69-3.13-2.78-5.22-2.89-1.24-.06-2.48,.24-3.72,.32-.62,.04-1.25,.04-1.87,.01-.54-.03-1.08-.14-1.62-.14-.32,0-.32,.5,0,.5h0Z"/><rect class="i" x="501.46" y="314.08" width="21.08" height="324.37"/><path class="e" d="M450.98,218.19c-2.73,8.6-4.04,17.54-3.96,26.56,.04,4.77,4.77,8.66,9.49,7.23,6.87-2.07,12.19-6.42,17-11.6,4-4.3,7.98-10.22,13.62-12.5,7.49-3.04,7.02-14.51-1.99-14.73-7.6-.19-15.18-.61-22.76-1.27l1.99,14.73c4.32-1.2,8.28-1.51,12.75-1.16l-5.3-12.8c-1.69,1.36-4.98,1.51-6.95,2.53-2.77,1.43-5.13,3.54-6.67,6.27-3.33,5.92-3,13.48-3.08,20.04-.09,7.56-1.42,13.24-4.12,20.24s-3.16,14.21-3.54,21.5h15c-.09-3.77,.14-7.37,.9-11.07l-14.73-1.99c-.66,8.08-1.19,16.12-.06,24.19,1.16,8.24,4.01,13.92,12.57,15.92,16.47,3.83,30.39-3.38,43.42-12.68,5.02-3.58,4.87-11.94-1.79-13.71-4.37-1.16-9.28-.59-13.52-2.03s-4.52-8.1-5.46-11.75c-2.92-11.22-4.55-22.89-2.12-34.36l-14.46-3.99c-2.94,18.79-4.78,37.7-5.34,56.71h15l-1.06-21.43c-.49-9.87-13.86-9.4-15,0-1.08,8.9-.58,17.63,1.09,26.42,1.36,7.13,13.14,7.18,14.46,0,.84-4.54,1.2-8.96,.72-13.56-.89-8.45-11.68-10.15-14.73-1.99-1.61,4.28-2.36,8.69-2.53,13.26s4.98,8.94,9.49,7.23,7.35-3.93,10.03-7.76l-13.71-1.79c1.18,6.09,5.56,16.24,13.03,16.24,8.95,0,10.96-9.35,7.42-15.93-4.26-7.92-15.14-2.16-13.71,5.78,1.61,8.97,13.69,12.84,20.26,6.55s2.79-18.1-5.77-20.54l-3.99,14.46c7,1.43,17.89,1.07,19.95-7.6,1.9-7.98-6.11-14.72-13.6-14.11-8.62,.71-9.95,11.66-1.99,14.73,6.6,2.55,16.97,2.54,20.82-4.6,3.54-6.57-.17-14.95-6.33-18.37-6.93-3.85-16.19-.17-18.17,7.6-2.21,8.66,7.53,15.83,14.68,9.85,13.34-11.16-9.63-32.52-21.08-20.72-6.15,6.34-1.85,14.94,4.85,18.61,6.21,3.4,14.49,3.46,20.31-.74,7.56-5.44,6.8-16.38-1.42-20.84-7.24-3.92-18.1-2.59-24.03,2.91-5.07,4.7-.83,12.4,5.3,12.8,8.69,.58,18.38-3.82,22.53-11.79,2.14-4.12,1.57-9.31-1.72-12.67-3.89-3.97-9.46-4.15-14.45-2.59-5.72,1.78-7.89,10.75-1.79,13.71,7.16,3.47,16.01,1.57,19.77-5.92,2.34-4.67,.19-9.19-4.48-11.02-6.45-2.53-15.75,.59-17.71,7.81-2.51,9.28,9.89,15.23,17.16,11.18,7.7-4.29,6.46-13.94-.64-17.91s-14.88-3.41-19.73,3.48c-2.06,2.92-.81,6.62,1.17,9.09,3.04,3.79,7.83,6.66,12.83,4.99,4.7-1.57,8.18-6.9,6.79-11.87-3.28-11.74-18.46-5.58-23.77,.68-3.18,3.74-2.81,11.7,3.31,12.54,10.5,1.43,20.55-7.53,15.5-18.45-4.76-10.29-17.68-9.58-23.68-1.06-1.95,2.78-.95,6.78,1.17,9.09,7.34,7.96,21.8,8.49,27.68-1.59,2.75-4.72,1.95-11.03-2.02-14.81-4.71-4.49-11.14-4.29-17.01-2.75-2.99,.79-5.73,4.01-5.51,7.23,.51,7.21,6.55,10.67,13.38,10.36s12.27-3.95,16.05-9.42c1.85-2.68,1.08-6.9-1.17-9.09-7.29-7.08-19.04-7.14-26.16,.26-3.54,3.68-2.53,11.64,3.31,12.54,6.33,.97,12.47,.29,17.88-3.4,5.09-3.47,9.21-9.76,5.5-15.83-6.18-10.12-25.24-4.09-27.43,6.32-.87,4.13,1.19,7.88,5.24,9.23,6.92,2.31,14.68-2.05,16.17-9.22,1.56-7.52-5.83-15.2-13.41-12.4-7.05,2.6-8.06,11.88-2.56,16.58,6.96,5.95,15.5,.48,18.8-6.48,1.68-3.54,1.13-8.23-2.69-10.26-9.04-4.8-18.67,5.04-13.48,14.05s16.6,9.05,24.57,5.01c5.41-2.74,4.29-9.96,0-12.95-7.97-5.56-18.41,1.8-17.56,10.92,.97,10.44,12.68,13.85,21.21,10.48,4.1-1.62,7.54-6.66,4.48-11.02-5.64-8.04-16.79-9.78-23.99-2.58-2.3,2.3-2.92,6.27-1.17,9.09,5.07,8.19,15.58,12.5,24.77,8.7,4.32-1.79,7.25-6.45,4.48-11.02-4.25-7-12.64-9.18-19.79-5.22-2.26,1.25-3.77,3.9-3.71,6.48,.15,7.01,5.82,12.42,12.81,12.76s14.06-5.98,11.27-13.43c-2.51-6.68-11.47-9.03-16.72-3.98-5.09,4.89-4.16,13.18,1.2,17.44,5.75,4.57,15.79,3.95,19.98-2.5s.82-14.62-5.59-17.81c-5.73-2.85-14.56-2.08-17.84,4.1-3.52,6.63,1.11,14.55,7.99,16.19,6.39,1.52,15.77-2.59,16.98-9.5,1.49-8.48-7.49-13.26-14.8-12.47s-14.89,6.88-12.65,15.05c2.04,7.42,10.03,9.46,16.78,8.74,7.29-.78,14.51-6.71,11.98-14.8-2.27-7.26-12.25-10.06-19.02-9.83-7.74,.26-16.29,5.51-14.16,14.45,1.84,7.74,10.74,9.34,17.58,9.4,7.85,.07,18.64-2.18,20.95-10.99,2.16-8.25-5.38-14.86-12.82-16.31-9.07-1.77-17.75,7.61-12.3,16.15,4.56,7.14,15.13,7.72,21.71,3.41,4.86-3.18,4.8-9.76,0-12.95-5.91-3.94-13.71-5.62-19.08,.2-6.04,6.54-1.96,15.01,5.37,17.96,6.21,2.5,14.71,2.25,18.41-4.21,3.27-5.72,.78-13.81-5.47-16.22-6.72-2.58-14.54,2.18-15.3,9.38-.93,8.88,8.87,12.36,16.24,10.96,6.44-1.23,13.03-6.82,10.42-13.98-2.62-7.16-12.62-9.15-17.08-2.55-4.84,7.18,2.54,17.07,10.79,14.76s8.44-12.9,3.13-18.12c-6.39-6.28-15.2,1.62-11.78,9.09,5.19,11.33,21.15,8.68,24.29-2.64,2.58-9.32-11.81-13.27-14.46-3.99-1,3.49-1.25,7.04-1.16,10.66,.07,2.93,.71,6.59-.6,9.34l13.71,5.78c1.85-5.87,2.89-11.85,3.33-17.99l-13.98,3.79c2.19,4.87-.88,12.38-2.42,17.07-1.92,5.82-5.35,8.74-11.14,10.54-3.03,.94-6.15,1.66-9.25,2.35-1.62,.36-3.25,.75-4.89,.96-1.05,.13-4.23-.58-3.1,1.05-1.07-1.54,1.32-7.34,1.74-9.04l2.99-12.06h-14.46l4.59,15.46c2.17,7.3,12.14,6.94,14.46,0,1.02-3.04,1.41-6.18,1.03-9.36-.93-7.88-12.36-10.8-14.73-1.99-1.6,5.96-2.45,12.06-2.55,18.23-.14,8.54,12.4,10.08,14.73,1.99l7.58-26.25-14.73-1.99,1.2,18.61c.53,8.26,12.28,10.4,14.73,1.99l3.41-11.68-14.73-1.99-.23,11.83c-.17,8.63,12.27,9.96,14.73,1.99l4.66-15.05-14.46-3.99c-.93,5.6-.85,10.9,.84,16.36,1.99,6.42,10.09,7.1,13.71,1.79,3.13-4.59,5.22-9.73,6.09-15.21,1.51-9.45-11.18-13.23-14.46-3.99-.67,1.88-1.15,3.73-1.49,5.71l14.73,1.99c.25-2.85,2.9-5.5,4.55-7.7,2.26-3.03,4.17-6.08,5.68-9.54,3.16-7.23,4.55-15.22,3.64-23.08-.84-7.3-3.36-14.29-10.43-17.63-6.31-2.98-13.32-.97-19.71-3.17l-1.99,14.73c3.64-.44,7.14-.49,10.75,.24v-14.46c-4.61,.72-9.39-.55-14-.69s-8.72,.53-12.83,2.2c-8.02,3.27-14.3,9.18-19.21,16.2-3.35,4.79,1.15,11.27,6.48,11.29,7.63,.02,14.91-2.05,21.29-6.25l-11.29-6.48c.58-1.2,.65-1.42,.19-.65-.27,.44-.57,.87-.89,1.27-.6,.84-1.23,1.6-1.72,2.51-1.46,2.71-1.61,5.44-1,8.39,1.06,5.08,6.95,6.44,11.02,4.48l12.53-6.02-11.02-8.47-2.75,7.07c-3.2,8.24,9.3,12.58,13.71,5.78l4.09-6.31-13.98-3.79c.06,1.55,.11,3.11-.13,4.65-.82,5.24,3.25,11.16,9.23,9.23,3.69-1.2,6.53-2.86,9.45-5.39l-11.78-1.52c.44,.44,.73,.95,.87,1.53,1.75,5.47,8.31,7.22,12.54,3.31,3.57-3.3,5.91-7.28,7.41-11.87l-14.46-3.99c-.76,3.42-1.19,6.86-1.18,10.37,0,6.15,8.43,10.35,12.8,5.3,3.63-4.19,4.59-9.43,1.61-14.32-2.24-3.66-6.54-4.47-10.26-2.69-4.74,2.27-7.41,7.13-7.32,12.31l14.73-1.99c-1.5-5.8-5.11-11.89-11.06-13.96-5.62-1.95-11.97,.98-13.61,6.81-1.43,5.08,.88,10.85,5.53,13.41,5.72,3.16,12.53,.57,16.68-3.85l-10.61-10.61c-5.56,6.8-3.93,16.11,3.91,20.4,4.41,2.41,9.02,1.73,13.74,2.57,3.87,.68,7.09,3.15,10.61,4.73,9.47,4.24,14.74-3.86,15.46-12.57,.15-1.85-.08-3.6-.3-5.43-.14-.76-.22-1.52-.25-2.28-2.86,1.17-3.44,2.1-1.74,2.8,.68,1.22,3.99,2.62,5.23,3.22,.79,.34,1.58,.67,2.37,.99,1.75,1.08,1.59,.68-.5-1.21,1.54,7.11,12.99,7.2,14.46,0l.5-2.45-14.73-1.99c.05,4.2-.08,8.37-.38,12.55-.61,8.41,12.93,10.24,14.73,1.99l.65-2.99c2.05-9.39-11.75-13.31-14.46-3.99-.71,2.44-1.46,4.88-2.28,7.28-.31,.9-2.62,5.88-1.29,5.08l3.79-1.02-.95-.07,5.3,2.2c.79,1.81,.94,2.02,.45,.62l-.85-2.66c-.57-1.77-1.14-3.54-1.7-5.31s-2.11-4.52-.96-6.13l-13.98-3.79c-.4,7.67-2.01,15.02-4.6,22.25l12.54-3.31c-1.17-1.05-1.72-1.63-2.51-2.98l-12.95,7.57c3.27,4.61,4.61,9.61,4.37,15.26-.23,5.32-1.58,12.58-4.6,17.07-2.61,3.9-9,3.33-13.19,3.35-4.44,.02-10.36-.47-13.28-4.4l-6.48,11.29c5.52,.69,11.4,2.06,16.96,1.97s9.56-3.36,12.68-7.84c6.69-9.64,11.61-20.63,15.24-31.76l-14.46-3.99-3.59,16.52c-2.04,9.4,11.64,13.28,14.46,3.99l.58-1.92-14.73-1.99-.91,11.96h15l.1-4.62c.15-7.11-8.03-9.08-12.8-5.3-2.29,1.81-4.28,4.34-7.03,5.45s-5.95,1.01-8.87,.95c-7.76-.14-15.46-.62-23.23-.4-6.32,.18-16.08-.88-20.98,3.93-4.43,4.35-6.02,12.39-7.22,18.25-1.92,9.42,12.53,13.45,14.46,3.99,.66-3.25,1.48-6.48,2.64-9.59l.59-1.55c.84-1.48,.14-1.25-2.11,.68,.02-.16,4.55-.33,4.85-.35,7.44-.46,14.9-.56,22.34-.31,6.19,.21,12.39,.85,18.53-.37,7.06-1.4,11.23-5.78,16.63-10.06l-12.8-5.3-.1,4.62c-.2,9.75,14.27,9.52,15,0l.91-11.96c.66-8.67-12.35-9.83-14.73-1.99l-.58,1.92,14.46,3.99,3.59-16.52c2.05-9.44-11.46-13.19-14.46-3.99-2.72,8.33-6.32,16.24-10.88,23.73-.82,1.35-1.91,4-3.19,4.94,1.03-.75-1.33-.21-2.25-.29-4.7-.45-9.4-1.17-14.09-1.76-5.41-.67-9.69,6.97-6.48,11.29,5.4,7.26,12.84,10.81,21.79,11.65s20.03,.45,26.67-5.67,9.01-16.54,10.11-24.93c1.26-9.57-.3-19.49-5.97-27.48s-17.93-.9-12.95,7.57c1.33,2.26,2.91,4.27,4.86,6.02,4.39,3.93,10.59,2.12,12.54-3.31,3.03-8.48,4.66-17.25,5.13-26.23,.42-8.06-10.01-9.35-13.98-3.79-3.07,4.31-2.84,9.7-1.52,14.62s2.78,12.91,6.54,16.66c4.26,4.24,10.8,2.97,14.09-1.71,3.53-5.01,5.1-12.16,6.8-18l-14.46-3.99-.65,2.99,14.73,1.99c.3-4.19,.43-8.36,.38-12.55-.09-8.2-12.98-10.52-14.73-1.99l-.5,2.45h14.46c-1.17-5.41-5.41-6.95-9.77-9.23s-7.84-5.49-13.17-5.34c-5.02,.15-9.67,3.25-11.25,8.11-.88,2.7-.61,5.31-.28,8.06,.11,.86,.26,1.7,.24,2.57-.05,2.39-1.68,3.76,1.14,1.63l3.79-1.02c1.35-.02-.56-.55-.94-.8-.94-.61-2.02-1.1-3.03-1.6-2.32-1.15-4.77-2.3-7.3-2.91s-5.01-.74-7.53-.9c-.79-.05-2.37-.49-3.1-.35-1.89,.34,1.48-.15-1.23,3.15,5.99-7.33-3.87-17.77-10.61-10.61-2.05,2.01-1.72,4.58,.99,7.72l-3.79,1.02c.36-.05,1.22,2.8,1.38,3.44,2.11,8.15,14.87,6.52,14.73-1.99-.88,.75-.92,.97-.11,.65l-10.26-2.69,.74-3.86,12.8,5.3c0-2.21,.17-4.22,.65-6.38,2.1-9.43-11.48-13.19-14.46-3.99-.73,2.23-1.86,3.69-3.55,5.25l12.54,3.31c-.59-1.83-1.3-3.53-2.39-5.11-2.87-4.17-7.94-4.84-11.78-1.52-.87,.75-1.75,1.19-2.83,1.54l9.23,9.23c.46-2.91,.77-5.7,.67-8.64-.27-7.55-9.91-10.06-13.98-3.79l-4.09,6.31,13.71,5.78,2.75-7.07c2.6-6.69-5.76-11-11.02-8.47l-12.53,6.02,11.02,4.48c.4,1.91-.84,2.73,.89,1.07,.56-.54,1.11-1.46,1.49-2.12,1.12-1.96,1.71-4.24,1.59-6.49-.3-5.34-6.26-9.79-11.29-6.48-4.28,2.82-8.6,4.22-13.72,4.2l6.48,11.29c3.43-4.9,8.78-9.75,14.86-10.8,7.29-1.26,14.77,1.15,22.21-.02s6.99-13.05,0-14.46c-4.93-1-9.74-1.38-14.74-.77-8.2,1-10.42,11.84-1.99,14.73,5.29,1.82,10.79,.53,16.03,1.86,4.44,1.13,3.62,9.14,3.23,12.66-1.39,12.48-12.93,19.76-14,32.14-.72,8.34,13.31,10.35,14.73,1.99,.33-1.97,.82-3.82,1.49-5.71l-14.46-3.99c-.7,4.37-2.09,7.97-4.58,11.63l13.71,1.79c-.87-2.79-1.33-5.47-.84-8.38,1.55-9.36-11.55-13.39-14.46-3.99l-4.66,15.05,14.73,1.99,.23-11.83c.17-8.56-12.38-10.05-14.73-1.99l-3.41,11.68,14.73,1.99-1.2-18.61c-.53-8.24-12.3-10.42-14.73-1.99l-7.58,26.25,14.73,1.99c.08-4.9,.74-9.51,2.02-14.24l-14.73-1.99c.24,2.04,.16,3.44-.49,5.38h14.46l-4.59-15.46c-2.05-6.9-12.64-7.37-14.46,0-1.52,6.13-3.27,12.25-4.55,18.43-1.13,5.46-1.17,11.15,2.44,15.73,7.17,9.1,22.3,4.1,31.62,1.46,10.27-2.91,18.03-8.45,22.03-18.58,3.96-10.03,6.51-21.32,1.95-31.49-3.32-7.39-13.5-2.86-13.98,3.79-.35,4.81-1.34,9.4-2.8,14-2.52,7.97,10.01,13.54,13.71,5.78,1.86-3.91,2.72-7.73,2.77-12.07,.04-3.88-.58-7.73,.51-11.51l-14.46-3.99c.4-1.44,3.73,.37,3.13-.95l-11.78,9.09,1.7-6.2,3.79-1.02-.94,.07,3.79,1.02,1.86,3.48-1.02,3.79-1.36,1.45-3.79,1.02,.94,.05-3.79-1.02-1.51-2.48v-3.99c1.54-1.39,1.63-1.91,.28-1.54-.59-.03-1.12-.24-1.56-.63l3.71,6.48-1.72,2.39h-3.99c2.73-4.73,2.56-7.09-.53-7.09-1.58-.78-1.59-.4-.02,1.12v3.99c-2.99,.7-3.7,1.39-2.12,2.07,.66,.37,1.29,.78,1.9,1.22v-12.95c-.73,.48-1.64,1.06-1.84,.67l1.02,3.79,.05-1.24-1.02,3.79,.06,.2-3.79,1.02c1.78-.1,2.23,.08,2.81,1.44l-1.02-3.79c-.17-1.6,1.61-.98-.94-.76-1.49,.13-2.84,.53-4.37,.58-1.21,.04-2.47,0-3.67-.15-3.87-.47-.73-.83-.46,1.05v3.99c-1.77,1.32-1.84,1.74-.2,1.26,.79-.08,1.57-.05,2.34,.11,.78,.1,1.54,.29,2.28,.57,1.67,1.02,1.72,.79,.16-.69v-3.99c1.06-1.28,.77-1.67-.87-1.17-1.44-.21-1.23,.11,.65,.96v3.99c-.15,.68,.71,2.16-.65,.03l-1.02-3.79-.03,1.28,1.02-3.79c1.88-2.59-.98,9.31,.28,7.42l1-5.1c-2.46-.35-3.26,1.93-2.4,6.83l-3.79-1.02-.57-.61-1.02-3.79-.05,1,1.02-3.79c1.04-1.85,4.23-2.67,4.3,.56l-3.71,6.48s-.7-.11-.74-.16l4.48-11.02c-2.96,1.22-5.98,1.17-7.83-1.8l-1.17,9.09c.09-.09,.46-.42,.44-.45l4.48-11.02c-.88,.4-1.78,.72-2.71,.95-.27,.35-.11,.59,.47,.72l-1.02,3.79-3.96,.56v-12.95c-.93,.47-1.73,.5-2.74,.53-.39,0-.76-.09-1.1-.29-.74-.32-.73-.3,.04,.07v3.99l-1.54,2.16-3.79,1.02,.97-.08-3.79-1.02,.86,.46-2.69-10.26c-1.9,2.73-.15,4.2,5.24,4.4v3.99l-1.85,2.41-3.79,1.02,.97,.1-3.79-1.02-.51-.34-1.02-3.79c.54-1.23,1.43-1.95,2.69-2.15l5.24,9.23c-1.17,.87-1.35,1.02-.53,.45,.62-.22,1.24-.4,1.88-.53,.34-.1,.69-.17,1.04-.21,2.07-.22,1.04-1.59-3.11-4.11l1.02-3.79c-1.1,2.11-4.52,2.99-6.74,2.65l3.31,12.54c1.45-1.5,3.34-1.83,4.95-.26l-1.17-9.09c-.61,.89-1.41,1.43-2.42,1.77-2.47,.82-2.3-1.09-.01,1.99l1.02,3.79-.06-.92-5.51,7.23c.88-.28,1.78-.48,2.7-.59,.51-.16,.28-.33-.69-.5v-3.99c-.32,2.15-3.19,.08-4.05-.84l1.17,9.09c-1.92,2.72-4.86-3.09-.78-2.53l3.31,12.54c.73-.85,3.01-3.02,3.39-2.89l-4.48-3.45,.55,.83-1.02-3.79-.08,1,1.02-3.79,1.92-1.57h3.99c-.42-.42-.79-.88-1.13-1.37l1.17,9.09c-2.6,.72-3.07,1.24-1.42,1.56,1.92,1.26,1.77,.8-.46-1.4v-3.99l1.18-2.01,3.79-1.02-.28,.23,2.2,5.3-.02-1-1.02,3.79c-.55,.96-2.37-.06,.01,.87l-4.48-11.02c-.49,.97-.02,.16,.75,.54l-1.79,13.71c2.63-.36,2.24-1.13-1.18-2.31v-3.99c-.89,3.44-6.3,4.09-9.16,3.9l5.3,12.8c.86-.8,2.3-.56,3.4-.55,.72,0,1.43,.03,2.15,.08,1.04,.32,1.05,.23,.03-.27v-3.99c.46-.02,.57,0,.34,.06-.7,.27-1.43,.35-2.19,.22-.55-.1-1.1-.25-1.62-.45-1.33-.92-1.58-1.01-.74-.27v3.99c-.31,1.56-6.89,1.16-2.4,3.08,.24,.19,.47,.38,.7,.58,1.36,1.3,1.98-.07,1.88-4.1l3.79-1.02-.89,.12,5.3,2.2,.68,1.27v3.99c-1.56,1.58-2.73,1.79-3.5,.62,2.83-2.52,3.34-3.64,1.53-3.35-.42-.38-3.91-.67-4.7-.98l-1.99,14.73c1.3-.11,4.3-7.22,1.29-7.71-1.14-.19-2.41,.2-3.65-.05-9.38-1.91-13.36,11.79-3.99,14.46-5.76-1.64,3.22-8.54,3.96-4.46l-13.71,5.78,.28,1.05v-3.99l3.26-3.43,5.78,.76c-1.47-1.07-2.04-4.63-2.35-6.25-1.33-6.88-10.34-6.61-13.71-1.79-.24,.46-.59,.75-1.06,.87l9.49,7.23c.12-3.27,.84-6.2,1.99-9.27l-14.73-1.99c.34,3.22,.41,6.38-.18,9.57h14.46c-1.42-7.44-1.47-14.92-.56-22.43h-15l1.06,21.43c.48,9.61,14.72,9.7,15,0,.52-17.66,2.06-35.26,4.8-52.72,1.46-9.32-12.42-13.59-14.46-3.99-3.28,15.42-1.17,30.91,3.09,45.93,1.83,6.44,3.88,13.08,10.03,16.66,5.7,3.32,12.31,2.38,18.45,4.02l-1.79-13.71c-8.48,6.05-17.48,12.59-28.45,11.7-1.16-.09-2.26-.34-3.41-.53s-1.87-1.09-1.13,0c-1.19-1.75-.97-5.98-1.07-8.04-.27-5.87,.21-11.75,.69-17.6,.69-8.38-13.04-10.26-14.73-1.99-1.02,4.98-1.56,9.97-1.44,15.06,.23,9.69,14.51,9.62,15,0,.32-6.33,.88-12.28,3.3-18.21,2.46-6.02,3.91-11.63,4.24-18.17,.15-2.98,.08-5.97,.16-8.95,.05-2.3-.34-5.85,.72-8,.94-1.91,2.11-1.8,4.24-2.54,2.81-.98,5-2.25,7.32-4.12,5.53-4.48,.48-12.35-5.3-12.8s-11.27,.18-16.74,1.7c-8.52,2.37-6.17,14.02,1.99,14.73,7.57,.66,15.16,1.08,22.76,1.27l-1.99-14.73c-6.77,2.74-11.85,7.12-16.73,12.48-4.01,4.4-7.95,9.84-13.89,11.63l9.49,7.23c-.07-7.78,1.07-15.16,3.43-22.57,2.93-9.22-11.55-13.17-14.46-3.99h0Z"/><path class="e" d="M483.69,315.03c4.87,.76,7.61,4.91,10.55,8.54,3.89,4.8,7.62,7.84,13.9,8.69,12.73,1.73,22.11-9.13,29.11-18.35,2.91-3.84,6.98-8.42,6.09-13.59-1.3-7.52-8.76-7.04-14.63-6.82s-11.06,.88-16.43-1.56c-5.68-2.59-10.88-3.16-17.07-2.41-6.03,.74-10.38,4.55-9.92,11.01,.42,5.97,4.87,10.38,10.15,12.57,4.5,1.86,10.11,2.91,14.94,1.86,6.47-1.41,10.01-7.98,7.29-14.07-4.9-10.95-22.44-11.88-24.9,1.23-2.14,11.42,10.29,21.36,20.9,16.31,6.01-2.86,8.92-10.46,4.88-16.19-3.5-4.97-11.06-5.82-15.26-1.2-4.46,4.9-2.89,12.44,2.36,16.04,5.6,3.84,12.97,1.65,16.97-3.4,2.68-3.39,2.88-7.2,0-10.61-4.65-5.5-14.07-6.13-18.08,.6s.8,14.53,7.93,16.02,15.76-2.18,15.76-10.06c0-7.31-8.65-11.93-15.01-9.36-5.94,2.4-7.55,9.95-1.79,13.71,8.17,5.33,20.49-.69,18.36-11.21s-14.2-11.35-19.91-3.56c-2.82,3.84,.1,10.03,4.48,11.02,8.93,2.01,18.47-4.38,17.17-14.24-.53-4.01-3.07-7.5-7.5-7.5-3.64,0-8.03,3.46-7.5,7.5,.39,2.99,.2-.59,1.82-.22l4.48,11.02-6.88,.77-1.02-3.79,4.08-2.74-1.79,13.71-2.95-1.32-.76-5.78c3.81-2.61,4.64-3.56,2.49-2.85-.82,.32-1.66,.33-2.53,.03l3.79,1.02-.16,.06,1.02,3.79-.04-1.29-1.02,3.79-.51,.55-3.79,1.02-.74-.1v-10.61c-2.05,1.87-.82,3.24,3.69,4.09l-1.02,3.79-3.52,2.1-3.79-1.02-1.6-1.97v-3.99c-.07,.42,2.68-2.02,1.86-1.23-1.14,1.11-3.73,1.7-2.89,3.64l-1.02-3.79-.12,1.39,1.02-3.79c3.27-1.59,3.64-2.25,1.1-1.98-.88-.01-1.74-.15-2.58-.4-.77-.18-1.53-.41-2.26-.71-.88-.71-1.02-.51-.44,.59l-3.45,4.48c1.65-1.01,5.95-.09,7.75,.61,3.18,1.25,5.97,2.86,9.4,3.43,7.05,1.16,14.12-.45,21.17,.04l-3.79-1.02,.69,.46-3.71-6.48,.07,.82,1.02-3.79c-1.98,4.33-5.36,8.3-8.59,11.75-2.77,2.97-7.4,9.19-12.13,7.08-3.3-1.47-5.85-6.76-8.44-9.4-3.49-3.55-7.73-6.44-12.73-7.22-4.03-.63-8.02,1.03-9.23,5.24-1.02,3.55,1.24,8.6,5.24,9.23h0Z"/><path class="e" d="M515.91,333.13c9.65,0,9.67-15,0-15s-9.67,15,0,15h0Z"/><g><path class="f" d="M505.21,246.07c-5.28-1.11-10.45,2.59-11.76,7.73s1.85,10.49,6.31,13.11c5.11,2.99,11.29,2.26,16.48-.08s9.76-6.33,11.24-11.78c.83-3.03,.64-6.2,.25-9.28-.35-2.78-.63-5.68-1.63-8.32-2-5.28-6.49-8.13-11.84-9.32-4.83-1.08-10.01-1.47-14.94-1.26s-9.84,1.13-14.12,3.56c-4.66,2.64-7.78,6.94-9.55,11.93s-2.23,10.48-3.18,15.72c-.57,3.16-1.2,6.39-.87,9.61,.26,2.62,1.01,5.09,2.2,7.44,2.29,4.52,6.2,8.22,10.57,10.72,5.1,2.92,10.96,4.17,16.77,4.64s12.19,.26,18.19-.35,11.52-1.85,16.67-4.68c4.3-2.36,8.12-5.65,11.14-9.5,6.34-8.1,9.44-18.73,7.07-28.89-1.19-5.13-3.93-10.01-8.13-13.26-3.83-2.97-8.84-4.69-13.72-4.28-2.55,.21-4.96,.91-7.18,2.18-2.79,1.6-.28,5.92,2.52,4.32,3.36-1.92,7.3-1.92,10.9-.69,3.85,1.32,6.88,4.14,8.8,7.69,4.07,7.5,3.11,17.04-.69,24.43s-10.22,13.21-18.03,15.79c-5.13,1.69-10.52,2.11-15.88,2.34-5.05,.21-10.2,.32-15.2-.51-8.34-1.37-17.38-5.77-20.27-14.35-1.62-4.82-.25-9.67,.52-14.52,.72-4.5,1.24-9.17,2.97-13.43,1.55-3.82,4.28-6.79,7.97-8.59s7.7-2.27,11.63-2.34c4.15-.08,8.45,.21,12.51,1.12s7.49,2.74,8.73,6.96c.67,2.26,.95,4.66,1.21,7,.28,2.55,.43,5.22-.48,7.67-1.49,4.01-5.78,6.91-9.65,8.31s-8.67,1.59-11.98-1.39c-2.7-2.44-3.7-6.34-.92-9.13,1.06-1.07,2.52-1.79,4.02-1.48,1.32,.28,2.7-.39,3.08-1.75,.34-1.24-.42-2.8-1.75-3.08h0Z"/><path class="f" d="M551.89,241.96c5.06-7.14,3.29-16.67,1.66-24.64-.88-4.29-2.37-8.62-5.78-11.57-3.09-2.67-6.96-4.11-10.89-5.05-9.32-2.24-18.91-3-28.11,.1-8.29,2.79-16.17,7.71-22.45,13.8-6.6,6.4-11.9,15.18-10.83,24.7l3.16-2.41c-5.53-1.97-11.61,0-16.3,3.13-4.39,2.93-8.07,6.81-11,11.19-6.37,9.51-8.73,21.2-8.12,32.51,.32,6.05,1.33,12.2,3.09,18,1.58,5.21,4.63,9.35,9.72,11.5,4.49,1.89,9.52,2.14,14.33,2s9.81-.46,14.55-1.58c5.58-1.32,10.63-4.11,13.83-8.98,1.64-2.5,2.82-5.26,5.22-7.17,2.27-1.8,5.08-2.88,7.75-3.92l-3.08-1.75c2.44,9.18,10.8,15.04,19.58,17.42,4.64,1.26,9.57,1.82,14.37,1.9,4.42,.07,9.01-.37,13.16-1.98s7.81-4.43,10.41-8.26,3.94-8.03,5.24-12.26c2.93-9.57,5.68-19.66,1.93-29.42s-11.15-16.7-18.5-23.42c-2.37-2.17-5.92,1.36-3.54,3.54,5.85,5.35,11.87,10.92,15.69,17.97,1.85,3.41,3.05,7.18,3.23,11.07,.21,4.81-.89,9.52-2.2,14.12-2.06,7.24-4.05,16.26-10.95,20.5-6.67,4.1-15.69,3.63-23.12,2.38-8.6-1.44-18.04-5.69-20.48-14.88-.32-1.21-1.82-2.24-3.08-1.75-4.94,1.92-9.73,4.02-12.91,8.45-1.43,1.99-2.38,4.35-3.98,6.21-1.37,1.6-3.03,2.79-4.91,3.72-3.81,1.87-8.23,2.44-12.41,2.77s-8.8,.64-13.12,.05c-3.86-.52-7.91-1.95-10.09-5.39-1.37-2.16-2-4.66-2.61-7.11-.67-2.74-1.24-5.52-1.61-8.32-1.4-10.4-.52-21.37,4.27-30.83,2.39-4.72,5.6-8.96,9.68-12.34s9.43-6.11,14.64-4.25c1.42,.5,3.34-.85,3.16-2.41-.81-7.21,2.54-13.78,7.29-19.01,5.19-5.72,11.88-10.26,18.93-13.36,3.54-1.55,7.39-2.7,11.24-3.09,4.51-.46,9.04,0,13.48,.83,3.53,.66,7.23,1.36,10.43,3.07s5.13,4.38,6.14,7.87c1.14,3.96,1.88,8.24,2.14,12.35s-.16,8.08-2.57,11.48c-.78,1.1-.2,2.78,.9,3.42,1.25,.73,2.64,.21,3.42-.9h0Z"/><path class="f" d="M452.49,251.9c-3.03-3.68-5.78-7.42-5.13-12.44,.34-2.64,1.12-5.26,1.73-7.85l1.94-8.19c.31-1.33,.62-2.66,.94-3.99,.26-1.06,.52-2.2,1.17-3.09,1.15-1.6,3.31-2.2,5.11-2.73,5.07-1.48,10.38-1.91,15.63-1.33,6.11,.68,11.94,2.63,18.13,1.34,1.32-.28,2.09-1.83,1.75-3.08-.38-1.37-1.75-2.02-3.08-1.75-5.71,1.19-11.59-1-17.26-1.57s-11.66,.04-17.17,1.76c-2.39,.75-4.86,1.76-6.56,3.68-1.96,2.22-2.48,5.18-3.14,7.97l-2.05,8.68c-.71,2.98-1.55,5.97-1.99,9.01-.49,3.39-.15,6.57,1.3,9.69,1.27,2.74,3.24,5.1,5.15,7.41,.86,1.04,2.65,.89,3.54,0,1.03-1.03,.86-2.49,0-3.54h0Z"/><path class="f" d="M551.95,220.91c2.86-1.02,5.71-2.05,8.58-3.06,2.21-.78,4.72-1.73,7.1-1.35s3.86,2.57,5.63,3.96c2.17,1.71,4.58,3.02,7.22,3.87,.6,.19,1.21,.35,1.83,.49,.27,.06,.88,.07,1.06,.24,.17,.15,.2,.48,.27,.74,.21,.83,.39,1.66,.58,2.49,.61,2.61,1.54,5.33,1.73,8.01s-1.13,5.52-1.99,8.09c-.91,2.73-1.74,5.49-2.76,8.18-.89,2.35-2.27,3.98-4.28,5.45s-4.2,3.04-5.25,5.45c-.54,1.24-.36,2.68,.9,3.42,1.06,.62,2.88,.35,3.42-.9,.85-1.95,2.65-3.03,4.29-4.27,2.25-1.7,3.96-3.64,5.1-6.25,1.28-2.93,2.16-6.03,3.17-9.06s2.44-6.19,2.42-9.43-1.07-6.3-1.78-9.33-1.04-6.25-4.38-7.36c-1.18-.39-2.43-.57-3.61-.99-1.32-.47-2.56-1.14-3.72-1.91-2.45-1.62-4.19-4.11-6.97-5.23-3.06-1.23-6.44-.7-9.5,.25-3.51,1.08-6.94,2.44-10.4,3.67-1.27,.45-2.12,1.7-1.75,3.08,.34,1.23,1.8,2.2,3.08,1.75h0Z"/><path class="f" d="M540.99,308.05c-5.88,8.66-13.28,16.62-21.82,22.72-1.04,.74-1.81,1.13-3.1,1.04-1.49-.11-2.93-.32-4.43-.3-2.38,.04-5.07,.47-7.34-.48-1.84-.78-3.16-2.45-4.28-4.03-1.42-2.01-2.74-4.1-4.44-5.89-4.02-4.26-9.41-6.87-14.63-9.33-1.22-.57-2.7-.34-3.42,.9-.63,1.09-.33,2.84,.9,3.42,4.83,2.27,9.9,4.6,13.62,8.55,3.36,3.57,5.21,8.67,9.93,10.8,2.73,1.23,5.65,1.2,8.58,1.1,1.38-.04,2.74-.05,4.12,.11,1.6,.18,3.13,.33,4.67-.26,2.68-1.02,5.04-3.29,7.23-5.09s4.31-3.74,6.34-5.74c4.61-4.56,8.75-9.6,12.39-14.97,1.81-2.67-2.52-5.17-4.32-2.52h0Z"/></g><polygon class="d" points="487.13 480.23 503.06 483.62 503.06 476.84 487.13 480.23"/><polygon class="d" points="489.4 397.37 505.34 400.76 505.34 393.97 489.4 397.37"/><polygon class="d" points="488.49 343.1 504.42 346.49 504.42 339.71 488.49 343.1"/><polygon class="d" points="530.22 370.1 514.29 366.71 514.29 373.49 530.22 370.1"/><polygon class="d" points="532.69 442.47 516.75 439.08 516.75 445.86 532.69 442.47"/></g></g><g id="c"><path class="g" d="M595.83,515.82h.73l-34.13,137.32c-1.01,4.06-4.66,6.91-8.84,6.91h-82.78c-4.19,0-7.83-2.85-8.84-6.91l-34.13-137.32h.33c-2.32,0-4.42-.93-5.95-2.43h179.56c-1.53,1.5-3.63,2.43-5.95,2.43Z"/><g><path class="h" d="M604.33,503.46v3.86c0,2.38-.98,4.53-2.55,6.07-1.53,1.5-3.63,2.43-5.95,2.43h-167.66c-2.32,0-4.42-.93-5.95-2.43-1.57-1.54-2.55-3.69-2.55-6.07v-3.86c0-4.69,3.81-8.5,8.5-8.5h167.66c4.69,0,8.5,3.81,8.5,8.5Z"/><path class="g" d="M512.2,515.82v144.23h-41.39c-4.19,0-7.83-2.85-8.84-6.91l-34.13-137.32h84.36Z"/><path class="g" d="M596.56,515.82l-34.13,137.32c-1.01,4.06-4.66,6.91-8.84,6.91h-41.39v-144.23h84.36Z"/></g></g></svg>