<?xml version="1.0" encoding="UTF-8"?>
<svg id="Layer_1" data-name="Layer 1" xmlns="http://www.w3.org/2000/svg" viewBox="0 0 3074 768">
  <defs>
    <style>
      .cls-1 {
        fill: #131f31;
      }

      .cls-2 {
        fill: #eaeaea;
      }
    </style>
  </defs>
  <rect class="cls-1" width="3074" height="768"/>
  <ellipse class="cls-2" cx="387.35" cy="63.95" rx="260.02" ry="3.36"/>
  <ellipse class="cls-2" cx="707.33" cy="303.67" rx="260.02" ry="3.36"/>
  <ellipse class="cls-2" cx="707.33" cy="303.67" rx="260.02" ry="3.36"/>
  <ellipse class="cls-2" cx="912.67" cy="184.38" rx="260.02" ry="3.36"/>
  <ellipse class="cls-2" cx="1399.17" cy="63.95" rx="260.02" ry="3.36"/>
  <ellipse class="cls-2" cx="1209.23" cy="428.59" rx="260.02" ry="3.36"/>
  <ellipse class="cls-2" cx="1659.19" cy="366.85" rx="260.02" ry="3.36"/>
  <ellipse class="cls-2" cx="2292.16" cy="235.15" rx="260.02" ry="3.36"/>
  <ellipse class="cls-2" cx="2114.33" cy="49.12" rx="260.02" ry="3.36"/>
  <ellipse class="cls-2" cx="2125.96" cy="749.89" rx="260.02" ry="3.36"/>
  <ellipse class="cls-2" cx="2703.29" cy="692.76" rx="260.02" ry="3.36"/>
  <ellipse class="cls-2" cx="949.21" cy="735.19" rx="260.02" ry="3.36"/>
  <ellipse class="cls-2" cx="1537" cy="215.82" rx="260.02" ry="3.36"/>
  <ellipse class="cls-2" cx="2061.05" cy="573.84" rx="260.02" ry="3.36"/>
  <ellipse class="cls-2" cx="2662.99" cy="495.5" rx="260.02" ry="3.36"/>
  <ellipse class="cls-2" cx="272.02" cy="373.07" rx="260.02" ry="3.36"/>
  <ellipse class="cls-2" cx="2581.1" cy="160.48" rx="260.02" ry="3.36"/>
  <ellipse class="cls-2" cx="376.69" cy="543.39" rx="260.02" ry="3.36"/>
  <ellipse class="cls-2" cx="307.78" cy="631.41" rx="260.02" ry="3.36"/>
  <ellipse class="cls-2" cx="1085.87" cy="602.34" rx="260.02" ry="3.36"/>
  <ellipse class="cls-2" cx="1797.02" cy="650.34" rx="260.02" ry="3.36"/>
  <ellipse class="cls-2" cx="1678.43" cy="498.86" rx="68.91" ry="1.14"/>
  <ellipse class="cls-2" cx="995.76" cy="362.05" rx="68.91" ry="1.14"/>
  <ellipse class="cls-2" cx="811.38" cy="265.93" rx="68.91" ry="1.14"/>
  <ellipse class="cls-2" cx="1907.74" cy="425.23" rx="68.91" ry="1.14"/>
  <ellipse class="cls-2" cx="1276.98" cy="573.84" rx="68.91" ry="1.14"/>
  <ellipse class="cls-2" cx="1036.27" cy="543.39" rx="68.91" ry="1.14"/>
  <ellipse class="cls-2" cx="838.72" cy="514.12" rx="68.91" ry="1.14"/>
  <ellipse class="cls-2" cx="678.92" cy="606.84" rx="68.91" ry="1.14"/>
  <ellipse class="cls-2" cx="307.78" cy="479.93" rx="68.91" ry="1.14"/>
  <ellipse class="cls-2" cx="98.91" cy="447.92" rx="68.91" ry="1.14"/>
  <ellipse class="cls-2" cx="907.63" cy="646.97" rx="68.91" ry="1.14"/>
  <ellipse class="cls-2" cx="794.29" cy="456.37" rx="68.91" ry="1.14"/>
  <ellipse class="cls-2" cx="578.46" cy="381.28" rx="68.91" ry="1.14"/>
  <ellipse class="cls-2" cx="1414.81" cy="300.3" rx="68.91" ry="1.14"/>
  <ellipse class="cls-2" cx="1641.56" cy="426.37" rx="68.91" ry="1.14"/>
  <ellipse class="cls-2" cx="1468.09" cy="496.64" rx="68.91" ry="1.14"/>
  <ellipse class="cls-2" cx="1502.73" cy="570.48" rx="68.91" ry="1.14"/>
  <ellipse class="cls-2" cx="1296.77" cy="657.11" rx="68.91" ry="1.14"/>
  <ellipse class="cls-2" cx="1105.18" cy="707.53" rx="68.91" ry="1.14"/>
  <ellipse class="cls-2" cx="1554.96" cy="747.62" rx="68.91" ry="1.14"/>
  <ellipse class="cls-2" cx="1670.52" cy="698.23" rx="68.91" ry="1.14"/>
  <ellipse class="cls-2" cx="1554.96" cy="605.7" rx="68.91" ry="1.14"/>
  <ellipse class="cls-2" cx="1816.26" cy="618.71" rx="68.91" ry="1.14"/>
  <ellipse class="cls-2" cx="1728.11" cy="546.75" rx="68.91" ry="1.14"/>
  <ellipse class="cls-2" cx="1934.85" cy="455.23" rx="68.91" ry="1.14"/>
  <ellipse class="cls-2" cx="1414.81" cy="700.51" rx="68.91" ry="1.14"/>
  <ellipse class="cls-2" cx="1865.94" cy="718.15" rx="68.91" ry="1.14"/>
  <ellipse class="cls-2" cx="2252.16" cy="653.7" rx="68.91" ry="1.14"/>
  <ellipse class="cls-2" cx="2292.16" cy="719.29" rx="68.91" ry="1.14"/>
  <ellipse class="cls-2" cx="2731.91" cy="739.69" rx="68.91" ry="1.14"/>
  <ellipse class="cls-2" cx="2606.57" cy="544.52" rx="68.91" ry="1.14"/>
  <ellipse class="cls-2" cx="2817.27" cy="618.71" rx="68.91" ry="1.14"/>
  <ellipse class="cls-2" cx="2561.27" cy="645.84" rx="68.91" ry="1.14"/>
  <ellipse class="cls-2" cx="2458.9" cy="598.97" rx="68.91" ry="1.14"/>
  <ellipse class="cls-2" cx="2292.16" cy="540.02" rx="68.91" ry="1.14"/>
  <ellipse class="cls-2" cx="2183.25" cy="485.65" rx="68.91" ry="1.14"/>
  <ellipse class="cls-2" cx="2003.76" cy="528.5" rx="68.91" ry="1.14"/>
  <ellipse class="cls-2" cx="2389.99" cy="392.3" rx="68.91" ry="1.14"/>
  <ellipse class="cls-2" cx="2361.07" cy="352.48" rx="68.91" ry="1.14"/>
  <ellipse class="cls-2" cx="2321.07" cy="277.5" rx="68.91" ry="1.14"/>
  <ellipse class="cls-2" cx="2125.96" cy="329.61" rx="68.91" ry="1.14"/>
  <ellipse class="cls-2" cx="2125.96" cy="380.7" rx="68.91" ry="1.14"/>
  <ellipse class="cls-2" cx="1885.17" cy="313.47" rx="68.91" ry="1.14"/>
  <ellipse class="cls-2" cx="2772.2" cy="457.5" rx="68.91" ry="1.14"/>
  <ellipse class="cls-2" cx="2923.01" cy="221.45" rx="68.91" ry="1.14"/>
  <ellipse class="cls-2" cx="2869.74" cy="110.73" rx="68.91" ry="1.14"/>
  <ellipse class="cls-2" cx="2731.91" cy="353.61" rx="68.91" ry="1.14"/>
  <ellipse class="cls-2" cx="2527.82" cy="308.46" rx="68.91" ry="1.14"/>
  <ellipse class="cls-2" cx="2968.93" cy="555.99" rx="68.91" ry="1.14"/>
  <ellipse class="cls-2" cx="2986.78" cy="454.09" rx="68.91" ry="1.14"/>
  <ellipse class="cls-2" cx="2748.35" cy="283.72" rx="68.91" ry="1.14"/>
  <ellipse class="cls-2" cx="2675.49" cy="238.85" rx="68.91" ry="1.14"/>
  <ellipse class="cls-2" cx="2991.93" cy="176.07" rx="68.91" ry="1.14"/>
  <ellipse class="cls-2" cx="2512.18" cy="748.75" rx="68.91" ry="1.14"/>
  <ellipse class="cls-2" cx="1769.91" cy="250.11" rx="68.91" ry="1.14"/>
  <ellipse class="cls-2" cx="2334.06" cy="82.11" rx="68.91" ry="1.14"/>
  <ellipse class="cls-2" cx="394.29" cy="331.88" rx="68.91" ry="1.14"/>
  <ellipse class="cls-2" cx="598.47" cy="497.77" rx="68.91" ry="1.14"/>
  <ellipse class="cls-2" cx="578.46" cy="264.79" rx="68.91" ry="1.14"/>
  <ellipse class="cls-2" cx="985.14" cy="234.01" rx="68.91" ry="1.14"/>
  <ellipse class="cls-2" cx="588.93" cy="232.87" rx="68.91" ry="1.14"/>
  <ellipse class="cls-2" cx="422.71" cy="135.22" rx="68.91" ry="1.14"/>
  <ellipse class="cls-2" cx="340.94" cy="94.34" rx="68.91" ry="1.14"/>
  <ellipse class="cls-2" cx="437.4" cy="43.03" rx="68.91" ry="1.14"/>
  <ellipse class="cls-2" cx="361.16" cy="12.58" rx="68.91" ry="1.14"/>
  <ellipse class="cls-2" cx="1907.74" cy="129" rx="68.91" ry="1.14"/>
  <ellipse class="cls-2" cx="2057.04" cy="181.01" rx="68.91" ry="1.14"/>
  <ellipse class="cls-2" cx="1710.47" cy="28.53" rx="68.91" ry="1.14"/>
  <ellipse class="cls-2" cx="1632.09" cy="186.75" rx="68.91" ry="1.14"/>
  <ellipse class="cls-2" cx="2527.82" cy="219.18" rx="68.91" ry="1.14"/>
  <ellipse class="cls-2" cx="1345.89" cy="111.86" rx="68.91" ry="1.14"/>
  <ellipse class="cls-2" cx="1364.9" cy="160.48" rx="68.91" ry="1.14"/>
  <ellipse class="cls-2" cx="1609.52" cy="307.33" rx="68.91" ry="1.14"/>
  <ellipse class="cls-2" cx="196.25" cy="127.86" rx="68.91" ry="1.14"/>
  <ellipse class="cls-2" cx="98.91" cy="93.2" rx="68.91" ry="1.14"/>
  <ellipse class="cls-2" cx="949.21" cy="67.31" rx="68.91" ry="1.14"/>
  <ellipse class="cls-2" cx="361.16" cy="215.82" rx="68.91" ry="1.14"/>
  <ellipse class="cls-2" cx="196.25" cy="394.57" rx="68.91" ry="1.14"/>
  <ellipse class="cls-2" cx="98.91" cy="27.4" rx="68.91" ry="1.14"/>
  <ellipse class="cls-2" cx="116.67" cy="607.97" rx="68.91" ry="1.14"/>
  <ellipse class="cls-2" cx="98.91" cy="715.88" rx="68.91" ry="1.14"/>
  <ellipse class="cls-2" cx="479.62" cy="654.84" rx="68.91" ry="1.14"/>
  <ellipse class="cls-2" cx="647.38" cy="699.37" rx="68.91" ry="1.14"/>
  <ellipse class="cls-2" cx="675.69" cy="363.19" rx="86.76" ry=".56"/>
  <ellipse class="cls-2" cx="811.38" cy="409.88" rx="86.76" ry=".56"/>
  <ellipse class="cls-2" cx="1172.69" cy="497.73" rx="86.76" ry=".56"/>
  <ellipse class="cls-2" cx="1209.23" cy="380.15" rx="86.76" ry=".56"/>
  <ellipse class="cls-2" cx="1105.18" cy="298.03" rx="86.76" ry=".56"/>
  <ellipse class="cls-2" cx="2032.14" cy="90.17" rx="86.76" ry=".56"/>
  <ellipse class="cls-2" cx="2292.16" cy="51.83" rx="86.76" ry=".56"/>
  <ellipse class="cls-2" cx="2662.99" cy="90.73" rx="86.76" ry=".56"/>
  <ellipse class="cls-2" cx="2900.02" cy="52.39" rx="86.76" ry=".56"/>
  <ellipse class="cls-2" cx="2963.31" cy="312.33" rx="86.76" ry=".56"/>
  <ellipse class="cls-2" cx="2938.65" cy="388.72" rx="86.76" ry=".56"/>
  <ellipse class="cls-2" cx="2963.31" cy="657.11" rx="86.76" ry=".56"/>
  <ellipse class="cls-2" cx="1227.85" cy="258.33" rx="86.76" ry=".56"/>
  <ellipse class="cls-2" cx="1122.47" cy="124.57" rx="86.76" ry=".56"/>
  <ellipse class="cls-2" cx="838.72" cy="103.4" rx="86.76" ry=".56"/>
  <ellipse class="cls-2" cx="455.24" cy="447.37" rx="86.76" ry=".56"/>
  <ellipse class="cls-2" cx="442.79" cy="410.43" rx="86.76" ry=".56"/>
  <ellipse class="cls-2" cx="221.46" cy="284.28" rx="86.76" ry=".56"/>
  <ellipse class="cls-2" cx="98.91" cy="352.16" rx="86.76" ry=".56"/>
  <ellipse class="cls-2" cx="601.01" cy="143.77" rx="86.76" ry=".56"/>
  <ellipse class="cls-2" cx="325.38" cy="175.52" rx="86.76" ry=".56"/>
  <ellipse class="cls-2" cx="116.67" cy="212.45" rx="86.76" ry=".56"/>
</svg>