<?xml version="1.0" encoding="UTF-8"?><svg xmlns="http://www.w3.org/2000/svg" viewBox="0 0 1024 768"><defs><style>.d{fill:#006838;}.e{fill:#fbb040;}.f{fill:#b64528;}.g{fill:#c25c2e;}.h{fill:#ab4b28;}.i{fill:#0b8044;}.j{fill:#378c42;}.k{fill:#603913;}</style></defs><g id="a"/><g id="b"><g><rect class="d" x="499.87" y="326.64" width="21.08" height="324.37"/><rect class="d" x="529.65" y="422.32" width="5.9" height="63.41" transform="translate(402.86 -233.7) rotate(38.87)"/><rect class="d" x="478.07" y="379.78" width="5.9" height="63.41" transform="translate(-141.22 527.76) rotate(-51.13)"/><path class="i" d="M466.1,399.19s-16.46,14.18-43.44-5.85c-26.98-20.03-19.43-37.13-19.43-37.13,0,0,15.32,7.88,33.84,7.2,18.52-.68,29.04,16.72,29.04,16.72,0,0,3.89,8.25,0,19.05Z"/><path class="j" d="M465.82,399.04c-3.32-3.43-8.02-5.1-12.4-6.75-5.19-1.95-10.48-3.62-15.7-5.5-9.6-3.46-19.3-7.81-26.37-15.42-3.67-3.96-6.48-8.68-7.8-13.93-.08-.31-.56-.18-.48,.13,5.23,20.76,28.21,27.44,45.92,33.65,3.1,1.09,6.2,2.21,9.22,3.52,2.67,1.16,5.23,2.55,7.27,4.66,.22,.23,.58-.12,.35-.35h0Z"/><path class="j" d="M426.7,362.81c-2.08,2.02-2.12,5.22-1.78,7.9,.21,1.63,.54,3.24,.6,4.89s-.03,4.04-1.45,5.12c-.25,.19,0,.63,.25,.43,2.18-1.66,1.83-5.48,1.49-7.84-.47-3.26-1.45-7.53,1.24-10.15,.23-.22-.12-.58-.35-.35h0Z"/><path class="j" d="M448.98,365.49c-2.72,3.05-6.15,5.58-7.47,9.62-.69,2.13-.78,4.4-.75,6.62s.03,4.53,.71,6.67c.1,.31,.58,.17,.48-.13-.67-2.1-.66-4.35-.69-6.54s.05-4.4,.73-6.49c1.29-3.94,4.69-6.42,7.34-9.4,.21-.24-.14-.59-.35-.35h0Z"/><path class="j" d="M441.43,388.42c-2.32,.6-4.11,2.44-4.95,4.64-.47,1.23-.64,2.56-.62,3.87,.03,1.47,.43,2.91,.57,4.37,.03,.32,.53,.32,.5,0-.12-1.25-.43-2.47-.54-3.72s0-2.57,.36-3.78c.69-2.31,2.44-4.29,4.81-4.91,.31-.08,.18-.56-.13-.48h0Z"/><path class="j" d="M412.09,383.81c1.32-1.84,3.48-2.79,5.72-2.62,1.09,.08,2.16,.29,3.25,.33,1.02,.04,2.01-.15,3.02-.15,.32,0,.32-.5,0-.5-.5,0-1,.11-1.5,.14-.62,.04-1.25,.04-1.87,0-1.28-.07-2.55-.4-3.83-.33-2.08,.11-4,1.2-5.22,2.89-.19,.26,.25,.51,.43,.25h0Z"/><path class="i" d="M547.26,434.91s16.46,14.18,43.44-5.85c26.98-20.03,19.43-37.13,19.43-37.13,0,0-15.32,7.88-33.84,7.2-18.52-.68-29.04,16.72-29.04,16.72,0,0-3.89,8.25,0,19.05Z"/><path class="j" d="M547.89,435.11c3.78-3.91,9.45-5.65,14.44-7.45,5.27-1.9,10.63-3.59,15.87-5.57,9.2-3.47,18.39-8,24.95-15.54,3.34-3.83,5.88-8.32,7.13-13.26,.08-.31-.4-.45-.48-.13-2.42,9.6-9.63,17.01-17.92,21.99-9.29,5.58-19.81,8.46-29.92,12.12-5,1.81-10.64,3.58-14.43,7.5-.22,.23,.13,.59,.35,.35h0Z"/><path class="j" d="M589.29,416.45c-1.42-1.08-1.51-3.5-1.45-5.12s.38-3.26,.6-4.89c.35-2.68,.3-5.88-1.78-7.9-.23-.22-.58,.13-.35,.35,2.69,2.62,1.71,6.88,1.24,10.15-.34,2.37-.69,6.19,1.49,7.84,.26,.19,.51-.24,.25-.43h0Z"/><path class="j" d="M571.89,424.12c.66-2.08,.66-4.3,.71-6.47,.04-2.29-.03-4.63-.74-6.82-1.32-4.04-4.75-6.56-7.47-9.62-.21-.24-.57,.11-.35,.35,2.65,2.98,6.06,5.45,7.34,9.4,.68,2.09,.76,4.31,.73,6.49s-.02,4.44-.69,6.54c-.1,.31,.38,.44,.48,.13h0Z"/><path class="j" d="M576.93,437.02c.13-1.43,.53-2.83,.57-4.26,.03-1.35-.14-2.72-.62-3.98-.84-2.21-2.63-4.04-4.95-4.64-.31-.08-.44,.4-.13,.48,2.37,.62,4.12,2.6,4.81,4.91,.35,1.18,.46,2.44,.37,3.67-.09,1.29-.43,2.55-.55,3.83-.03,.32,.47,.32,.5,0h0Z"/><path class="j" d="M589.27,417.08c.97,0,1.93,.19,2.9,.16,1.13-.03,2.24-.25,3.37-.33,2.24-.17,4.39,.78,5.72,2.62,.19,.26,.62,0,.43-.25-1.22-1.69-3.13-2.78-5.22-2.89-1.24-.06-2.48,.24-3.72,.32-.62,.04-1.25,.04-1.87,.01-.54-.03-1.08-.14-1.62-.14-.32,0-.32,.5,0,.5h0Z"/><ellipse class="e" cx="510.41" cy="316.48" rx="20.47" ry="39.74"/><ellipse class="e" cx="550.15" cy="272.36" rx="39.74" ry="20.47"/><ellipse class="e" cx="470.68" cy="272.36" rx="39.74" ry="20.47"/><ellipse class="e" cx="510.41" cy="228.42" rx="20.47" ry="39.74"/><ellipse class="e" cx="542.02" cy="240.75" rx="39.74" ry="20.47" transform="translate(-11.48 453.78) rotate(-45)"/><ellipse class="e" cx="478.8" cy="303.97" rx="39.74" ry="20.47" transform="translate(-74.71 427.59) rotate(-45)"/><ellipse class="e" cx="542.02" cy="303.97" rx="20.47" ry="39.74" transform="translate(-56.19 472.3) rotate(-45)"/><ellipse class="e" cx="481.01" cy="240.75" rx="20.47" ry="39.74" transform="translate(-29.35 410.64) rotate(-45)"/><circle class="f" cx="510.41" cy="273.47" r="29.5"/><circle class="k" cx="510.41" cy="273.47" r="24.27"/></g></g><g id="c"><path class="g" d="M595.83,515.82h.73l-34.13,137.32c-1.01,4.06-4.66,6.91-8.84,6.91h-82.78c-4.19,0-7.83-2.85-8.84-6.91l-34.13-137.32h.33c-2.32,0-4.42-.93-5.95-2.43h179.56c-1.53,1.5-3.63,2.43-5.95,2.43Z"/><g><path class="h" d="M604.33,503.46v3.86c0,2.38-.98,4.53-2.55,6.07-1.53,1.5-3.63,2.43-5.95,2.43h-167.66c-2.32,0-4.42-.93-5.95-2.43-1.57-1.54-2.55-3.69-2.55-6.07v-3.86c0-4.69,3.81-8.5,8.5-8.5h167.66c4.69,0,8.5,3.81,8.5,8.5Z"/><path class="g" d="M512.2,515.82v144.23h-41.39c-4.19,0-7.83-2.85-8.84-6.91l-34.13-137.32h84.36Z"/><path class="g" d="M596.56,515.82l-34.13,137.32c-1.01,4.06-4.66,6.91-8.84,6.91h-41.39v-144.23h84.36Z"/></g></g></svg>