<?xml version="1.0" encoding="UTF-8"?><svg xmlns="http://www.w3.org/2000/svg" viewBox="0 0 1024 768"><defs><style>.d{fill:#006838;}.e{fill:#e491be;}.f{fill:#c25c2e;}.g{fill:#ab4b28;}.h{fill:#0b8044;}.i{fill:none;stroke:#e29ec6;stroke-linecap:round;stroke-miterlimit:10;}</style></defs><g id="a"/><g id="b"><g><g><rect class="h" x="499.99" y="308.73" width="24.24" height="218.13"/><path class="d" d="M499.99,441.65v48.61s-73.39-18.62-71.75-152.81c0,0,43.61,84.28,71.75,104.2"/><path class="d" d="M524.23,402.73v37.19s56.15-14.25,54.89-116.91c0,0-33.36,64.48-54.89,79.72"/><path class="e" d="M509.05,319.49s-44.61,6.04-45.34-58.4c-.72-64.43,0-51.22,0-51.22l22.24,30.81,23.1-31.92,17.72,34.94,33.66-37.6v51.97s8.27,56.1-51.38,61.42Z"/><line class="i" x1="490.24" y1="246.91" x2="490.24" y2="299.99"/><line class="i" x1="499.99" y1="280.55" x2="499.99" y2="299.99"/><line class="i" x1="543.16" y1="237.58" x2="543.16" y2="245.26"/><line class="i" x1="551.68" y1="229.81" x2="551.68" y2="240.79"/></g><path class="h" d="M469.96,425.15c3.27,9.22,10.19,14.38,18.42,19.03,2.1,1.19,4-2.05,1.89-3.24-7.29-4.12-13.77-8.55-16.69-16.78-.8-2.26-4.43-1.29-3.62,1h0Z"/><path class="h" d="M530.83,406.81c3.64-1.23,6.78-4.31,9.49-6.94,3.2-3.12,6-6.62,8.46-10.35,1.33-2.02-1.91-3.9-3.24-1.89-2.08,3.16-4.42,6.1-7.08,8.8-2.38,2.42-5.35,5.66-8.63,6.77-2.27,.77-1.3,4.39,1,3.62h0Z"/><path class="h" d="M571.11,348.81c-1.46,7.27-4.02,14.05-7.78,20.45-1.22,2.09,2.02,3.97,3.24,1.89,3.91-6.66,6.64-13.77,8.16-21.35,.47-2.36-3.14-3.37-3.62-1h0Z"/><path class="h" d="M432.85,364.73c1.35,6.05,1.96,12.12,1.88,18.31-.03,2.41,3.72,2.42,3.75,0,.09-6.53-.59-12.94-2.02-19.31-.53-2.35-4.14-1.36-3.62,1h0Z"/><path class="h" d="M433.28,365.63c2.56,5.99,6.64,10.94,11.9,14.77,1.95,1.42,3.83-1.83,1.89-3.24-4.73-3.45-8.26-8.06-10.55-13.43-.95-2.21-4.18-.3-3.24,1.89h0Z"/><path class="h" d="M473.53,465.78c4.66,8.49,12.85,13.36,21.29,17.51,2.16,1.06,4.06-2.17,1.89-3.24-7.86-3.87-15.6-8.25-19.95-16.17-1.16-2.12-4.4-.23-3.24,1.89h0Z"/><path class="h" d="M437.91,399.9c3.25,10.84,6.74,21.51,13.83,30.51,1.49,1.89,4.13-.78,2.65-2.65-6.65-8.44-9.82-18.71-12.87-28.86-.69-2.31-4.31-1.32-3.62,1h0Z"/><path class="h" d="M536.58,426.65c-2.55,2.06-5.52,3.5-8.44,4.93l2.82,1.62c.1-2.68,.14-5.36,.14-8.04,0-2.41-3.75-2.42-3.75,0,0,2.68-.04,5.36-.14,8.04-.05,1.51,1.61,2.21,2.82,1.62,3.24-1.59,6.38-3.24,9.2-5.52,1.88-1.52-.79-4.15-2.65-2.65h0Z"/></g></g><g id="c"><path class="f" d="M595.83,515.82h.73l-34.13,137.32c-1.01,4.06-4.66,6.91-8.84,6.91h-82.78c-4.19,0-7.83-2.85-8.84-6.91l-34.13-137.32h.33c-2.32,0-4.42-.93-5.95-2.43h179.56c-1.53,1.5-3.63,2.43-5.95,2.43Z"/><g><path class="g" d="M604.33,503.46v3.86c0,2.38-.98,4.53-2.55,6.07-1.53,1.5-3.63,2.43-5.95,2.43h-167.66c-2.32,0-4.42-.93-5.95-2.43-1.57-1.54-2.55-3.69-2.55-6.07v-3.86c0-4.69,3.81-8.5,8.5-8.5h167.66c4.69,0,8.5,3.81,8.5,8.5Z"/><path class="f" d="M512.2,515.82v144.23h-41.39c-4.19,0-7.83-2.85-8.84-6.91l-34.13-137.32h84.36Z"/><path class="f" d="M596.56,515.82l-34.13,137.32c-1.01,4.06-4.66,6.91-8.84,6.91h-41.39v-144.23h84.36Z"/></g></g></svg>