<?xml version="1.0" encoding="UTF-8"?>
<svg id="Layer_1" data-name="Layer 1" xmlns="http://www.w3.org/2000/svg" viewBox="0 0 1024 768">
  <defs>
    <style>
      .cls-1 {
        opacity: .04;
      }

      .cls-1, .cls-2 {
        fill: #fff;
      }

      .cls-3 {
        fill: none;
        stroke: #676766;
        stroke-linecap: round;
        stroke-miterlimit: 10;
        stroke-width: 7px;
      }

      .cls-4 {
        fill: #676766;
      }

      .cls-5 {
        fill: #888989;
      }

      .cls-2 {
        opacity: .05;
      }

      .cls-6 {
        fill: #066e31;
      }
    </style>
  </defs>
  <polygon class="cls-2" points="903.54 34.42 595.21 568.47 504.37 516.02 802.31 0 843.92 0 903.54 34.42"/>
  <polygon class="cls-1" points="776.24 0 477.83 516.86 432.41 490.64 715.69 0 776.24 0"/>
  <polygon class="cls-5" points="167.1 0 0 167.1 -.45 166.65 -.45 0 167.1 0"/>
  <polygon class="cls-5" points="1024.91 0 1024.91 167.1 857.81 0 1024.91 0"/>
  <rect class="cls-5" width="1024.91" height="47.68"/>
  <rect class="cls-5" x="-.45" width="48.13" height="499.67"/>
  <rect class="cls-5" x="976.32" y=".94" width="48.59" height="499.67"/>
  <polygon class="cls-5" points="166.65 499.67 109.25 557.07 -.45 666.77 -.45 332.57 47.68 380.7 128.69 461.71 166.65 499.67"/>
  <polygon class="cls-5" points="1024.91 333.03 1024.91 666.31 1024.45 666.77 914.75 557.07 857.35 499.67 895.31 461.71 976.32 380.7 1024.45 332.57 1024.91 333.03"/>
  <rect class="cls-5" y="461.71" width="1024.91" height="95.36"/>
  <line class="cls-3" x1="141.53" y1="483.98" x2="501.38" y2="483.98"/>
  <line class="cls-3" x1="324.45" y1="512.52" x2="684.3" y2="512.52"/>
  <line class="cls-3" x1="1002.8" y1="300.34" x2="1002.8" y2="177.9"/>
  <line class="cls-3" x1="352.15" y1="23.41" x2="712" y2="23.41"/>
  <line class="cls-3" x1="16.39" y1="163.9" x2="16.39" y2="41.45"/>
  <line class="cls-3" x1="35.37" y1="267.78" x2="35.37" y2="145.33"/>
  <rect class="cls-4" x="-.45" y="557.07" width="1025.36" height="210.93"/>
  <path class="cls-6" d="m-55.08,914.89c21.85-5.75,44.02-10.06,66.41-13.1l-39.88,5.36c101.69-13.4,204.22-.34,305.26,12.49,102.24,12.99,205,25.55,308.03,14.03,73.8-8.26,146.48-22.85,220.01-32.76l-39.88,5.36c92.18-12.23,184.47-10.46,276.54,1.83l-39.88-5.36c37.08,5.01,73.97,11.19,110.86,17.4,19.94,6.25,39.88,7.14,59.81,2.68,19.96-.91,38.55-6.84,55.77-17.8,17.48-9.43,31.51-22.3,42.09-38.63,13.26-14.49,22.21-31.49,26.85-51.01l5.36-39.88c-.08-27.08-6.91-52.31-20.48-75.71-7.82-10.12-15.64-20.24-23.45-30.36-18.72-18.59-40.78-31.45-66.19-38.58-82.88-13.96-166.36-28.19-250.42-32.25-85.02-4.11-168.87,5.1-252.8,18.31-40.01,6.3-79.85,13.66-119.99,19.12l39.88-5.36c-46.91,6.29-93.91,8.88-141.23,7.31-46.27-1.54-92.37-6.26-138.31-11.79-91.34-10.99-182.79-25.58-275.04-24.69-25.06.24-50.11,1.66-75,4.65-38.37,4.61-76.66,9.59-114.08,19.44-19.52,4.64-36.52,13.59-51.01,26.85-16.33,10.58-29.21,24.61-38.63,42.09-10.96,17.22-16.9,35.81-17.8,55.77-4.47,19.94-3.57,39.88,2.68,59.81,5.04,11.94,10.08,23.89,15.12,35.83,13.34,22.54,31.27,40.48,53.81,53.81l35.83,15.12c26.58,7.14,53.17,7.14,79.75,0h0Z"/>
</svg>